SplineFontDB: 3.2
FontName: Docuneering-ISO-8879
FullName: Docuneering ISO-8879
FamilyName: Docuneering ISO-8879
Weight: Regular
Copyright: Copyright 2021 Google Inc. All Rights Reserved. This derived font, compiled by Docuneering Ltd, supports the OASIS ISO-8879:1986 (Working Draft 0.3, 13 June 2002) XML Character Entities. Character glyphs used in this font were sourced from the following Noto Sans family of fonts: NotoSans, NotoSansMath, NotoSansMono, NotoSansSymbols, NotoSansSymbols2 & NotoEmoji. This derived font was created by Docuneering Ltd with the express permission of Monotype Imaging Inc. (www.monotype.com).
Version: 1.14
DefaultBaseFilename: Docuneering-ISO-8879
ItalicAngle: 0
UnderlinePosition: -125
UnderlineWidth: 50
Ascent: 800
Descent: 200
InvalidEm: 0
sfntRevision: 0x00010000
LayerCount: 2
Layer: 0 1 "Back" 1
Layer: 1 1 "Fore" 0
XUID: [1021 803 1819452531 13101]
StyleMap: 0x0040
FSType: 0
OS2Version: 4
OS2_WeightWidthSlopeOnly: 1
OS2_UseTypoMetrics: 0
CreationTime: 1470326346
ModificationTime: 1661328653
PfmFamily: 17
TTFWeight: 400
TTFWidth: 5
LineGap: 0
VLineGap: 0
Panose: 2 11 5 2 4 5 4 2 2 4
OS2TypoAscent: 1069
OS2TypoAOffset: 0
OS2TypoDescent: -423
OS2TypoDOffset: 0
OS2TypoLinegap: 0
OS2WinAscent: 1069
OS2WinAOffset: 0
OS2WinDescent: 423
OS2WinDOffset: 0
HheadAscent: 1069
HheadAOffset: 0
HheadDescent: -423
HheadDOffset: 0
OS2SubXSize: 650
OS2SubYSize: 600
OS2SubXOff: 0
OS2SubYOff: 75
OS2SupXSize: 650
OS2SupYSize: 600
OS2SupXOff: 0
OS2SupYOff: 350
OS2StrikeYSize: 50
OS2StrikeYPos: 322
OS2CapHeight: 714
OS2XHeight: 536
OS2Vendor: 'DNRG'
OS2CodePages: 00000001.00000000
OS2UnicodeRanges: 800000c3.020064ec.02000010.00000000
MarkAttachClasses: 1
DEI: 91125
ShortTable: maxp 16
  1
  0
  2654
  292
  16
  35
  4
  1
  0
  0
  0
  0
  0
  0
  4
  1
EndShort

StartChar: uni03A9
Encoding: 937 937 3
Width: 782
GlyphClass: 2
Flags: W
LayerCount: 2
Fore
SplineSet
38 0 m 1,0,-1
 38 79 l 1,1,-1
 216 79 l 1,2,3
 152 128 152 128 108 210 c 128,-1,4
 64 292 64 292 64 404 c 0,5,6
 64 502 64 502 102 574 c 128,-1,7
 140 646 140 646 213.5 685.5 c 128,-1,8
 287 725 287 725 391 725 c 0,9,10
 497 725 497 725 570 686 c 128,-1,11
 643 647 643 647 681 575 c 128,-1,12
 719 503 719 503 719 405 c 0,13,14
 719 293 719 293 675.5 210.5 c 128,-1,15
 632 128 632 128 568 79 c 1,16,-1
 745 79 l 1,17,-1
 745 0 l 1,18,-1
 457 0 l 1,19,-1
 457 72 l 1,20,21
 550 138 550 138 587.5 220 c 128,-1,22
 625 302 625 302 625 401 c 0,23,24
 625 515 625 515 568.5 580.5 c 128,-1,25
 512 646 512 646 391 646 c 0,26,27
 271 646 271 646 215 580.5 c 128,-1,28
 159 515 159 515 159 401 c 0,29,30
 159 301 159 301 196 220 c 128,-1,31
 233 139 233 139 326 72 c 1,32,-1
 326 0 l 1,33,-1
 38 0 l 1,0,-1
EndSplineSet
Validated: 1
EndChar

StartChar: universal
Encoding: 8704 8704 4
Width: 750
Flags: W
LayerCount: 2
Fore
SplineSet
332 -4 m 1,0,-1
 51 715 l 1,1,-1
 148 715 l 1,2,-1
 230 492 l 1,3,-1
 516 492 l 1,4,-1
 602 715 l 1,5,-1
 699 715 l 1,6,-1
 414 -4 l 1,7,-1
 332 -4 l 1,0,-1
375 82 m 1,8,9
 377 93 377 93 382.5 113 c 128,-1,10
 388 133 388 133 398 161 c 0,11,12
 408 190 408 190 430 252 c 128,-1,13
 452 314 452 314 488 410 c 1,14,-1
 262 410 l 1,15,16
 305 290 305 290 329 221 c 128,-1,17
 353 152 353 152 360 132 c 0,18,19
 373 93 373 93 375 82 c 1,8,9
EndSplineSet
Validated: 1
EndChar

StartChar: partialdiff
Encoding: 8706 8706 5
Width: 582
Flags: W
LayerCount: 2
Fore
SplineSet
228 -10 m 0,0,1
 142 -10 142 -10 96.5 39.5 c 128,-1,2
 51 89 51 89 51 183 c 0,3,4
 51 238 51 238 66 290.5 c 128,-1,5
 81 343 81 343 109 386 c 128,-1,6
 137 429 137 429 175 455 c 0,7,8
 232 494 232 494 306 494 c 0,9,10
 350 494 350 494 384.5 474.5 c 128,-1,11
 419 455 419 455 441 421 c 1,12,13
 442 430 442 430 442.5 439.5 c 128,-1,14
 443 449 443 449 443 458 c 0,15,16
 438 648 438 648 309 648 c 0,17,18
 281 648 281 648 246.5 638 c 128,-1,19
 212 628 212 628 183 608 c 1,20,-1
 183 692 l 1,21,22
 213 706 213 706 250.5 714 c 128,-1,23
 288 722 288 722 321 722 c 0,24,25
 424 722 424 722 477.5 655 c 128,-1,26
 531 588 531 588 531 455 c 0,27,28
 531 370 531 370 512.5 290.5 c 128,-1,29
 494 211 494 211 460.5 148 c 128,-1,30
 427 85 427 85 382 47 c 0,31,32
 315 -10 315 -10 228 -10 c 0,0,1
233 64 m 0,33,34
 279 64 279 64 318.5 99 c 128,-1,35
 358 134 358 134 386.5 194.5 c 128,-1,36
 415 255 415 255 426 331 c 1,37,38
 416 373 416 373 385.5 399.5 c 128,-1,39
 355 426 355 426 316 426 c 0,40,41
 265 426 265 426 226 391 c 128,-1,42
 187 356 187 356 164.5 300.5 c 128,-1,43
 142 245 142 245 142 182 c 0,44,45
 142 126 142 126 165.5 95 c 128,-1,46
 189 64 189 64 233 64 c 0,33,34
EndSplineSet
Validated: 1
EndChar

StartChar: existential
Encoding: 8707 8707 6
Width: 574
Flags: W
LayerCount: 2
Fore
SplineSet
51 0 m 1,0,-1
 51 80 l 1,1,-1
 440 80 l 1,2,-1
 440 331 l 1,3,-1
 80 331 l 1,4,-1
 80 411 l 1,5,-1
 440 411 l 1,6,-1
 440 635 l 1,7,-1
 59 635 l 1,8,-1
 59 715 l 1,9,-1
 523 715 l 1,10,-1
 523 0 l 1,11,-1
 51 0 l 1,0,-1
EndSplineSet
Validated: 1
EndChar

StartChar: emptyset
Encoding: 8709 8709 7
Width: 838
Flags: W
LayerCount: 2
Fore
SplineSet
96 -11 m 1,0,-1
 51 34 l 1,1,-1
 138 121 l 1,2,3
 98 169 98 169 75 229 c 128,-1,4
 52 289 52 289 52 357 c 0,5,6
 52 433 52 433 80.5 499.5 c 128,-1,7
 109 566 109 566 159.5 616.5 c 128,-1,8
 210 667 210 667 276.5 695.5 c 128,-1,9
 343 724 343 724 419 724 c 0,10,11
 487 724 487 724 547 701 c 128,-1,12
 607 678 607 678 655 638 c 1,13,-1
 742 725 l 1,14,-1
 787 680 l 1,15,-1
 700 593 l 1,16,17
 740 545 740 545 763 485 c 128,-1,18
 786 425 786 425 786 357 c 0,19,20
 786 281 786 281 757.5 214.5 c 128,-1,21
 729 148 729 148 678 97.5 c 128,-1,22
 627 47 627 47 560.5 18.5 c 128,-1,23
 494 -10 494 -10 419 -10 c 0,24,25
 351 -10 351 -10 291 13 c 128,-1,26
 231 36 231 36 183 76 c 1,27,-1
 96 -11 l 1,0,-1
124 357 m 0,28,29
 124 304 124 304 141.5 257 c 128,-1,30
 159 210 159 210 189 172 c 1,31,-1
 604 587 l 1,32,33
 566 617 566 617 519 634.5 c 128,-1,34
 472 652 472 652 419 652 c 0,35,36
 358 652 358 652 304.5 629 c 128,-1,37
 251 606 251 606 210.5 565.5 c 128,-1,38
 170 525 170 525 147 471.5 c 128,-1,39
 124 418 124 418 124 357 c 0,28,29
419 62 m 0,40,41
 480 62 480 62 533.5 85 c 128,-1,42
 587 108 587 108 627.5 148.5 c 128,-1,43
 668 189 668 189 691 242.5 c 128,-1,44
 714 296 714 296 714 357 c 0,45,46
 714 410 714 410 696.5 457 c 128,-1,47
 679 504 679 504 649 542 c 1,48,-1
 234 127 l 1,49,50
 272 97 272 97 319 79.5 c 128,-1,51
 366 62 366 62 419 62 c 0,40,41
EndSplineSet
Validated: 1
EndChar

StartChar: uni0394
Encoding: 916 916 8
Width: 581
GlyphClass: 2
Flags: W
LayerCount: 2
Fore
SplineSet
20 0 m 1,0,-1
 20 55 l 1,1,-1
 245 714 l 1,2,-1
 335 714 l 1,3,-1
 561 54 l 1,4,-1
 561 0 l 1,5,-1
 20 0 l 1,0,-1
116 79 m 1,6,-1
 462 79 l 1,7,-1
 337 451 l 2,8,9
 322 496 322 496 309.5 538 c 128,-1,10
 297 580 297 580 289 616 c 1,11,12
 280 580 280 580 268.5 538.5 c 128,-1,13
 257 497 257 497 243 455 c 2,14,-1
 116 79 l 1,6,-1
EndSplineSet
Validated: 1
EndChar

StartChar: gradient
Encoding: 8711 8711 9
Width: 581
Flags: W
LayerCount: 2
Fore
SplineSet
246 0 m 1,0,-1
 20 660 l 1,1,-1
 20 714 l 1,2,-1
 561 714 l 1,3,-1
 561 659 l 1,4,-1
 336 0 l 1,5,-1
 246 0 l 1,0,-1
292 98 m 1,6,7
 306 150 306 150 317 190 c 128,-1,8
 328 230 328 230 338 259 c 2,9,-1
 465 635 l 1,10,-1
 119 635 l 1,11,-1
 245 259 l 2,12,13
 261 213 261 213 273 173 c 128,-1,14
 285 133 285 133 292 98 c 1,6,7
EndSplineSet
Validated: 1
EndChar

StartChar: notelement
Encoding: 8713 8713 10
Width: 699
Flags: W
LayerCount: 2
Fore
SplineSet
295 -43 m 1,0,-1
 234 -17 l 1,1,-1
 269 73 l 1,2,3
 51 123 51 123 51 352 c 0,4,5
 51 495 51 495 138 569 c 128,-1,6
 225 643 225 643 394 643 c 2,7,-1
 488 643 l 1,8,-1
 534 762 l 1,9,-1
 595 736 l 1,10,-1
 559 643 l 1,11,-1
 648 643 l 1,12,-1
 648 572 l 1,13,-1
 531 572 l 1,14,-1
 461 388 l 1,15,-1
 648 388 l 1,16,-1
 648 317 l 1,17,-1
 433 317 l 1,18,-1
 362 132 l 1,19,-1
 648 132 l 1,20,-1
 648 61 l 1,21,-1
 394 61 l 2,22,23
 379 61 379 61 364.5 61.5 c 128,-1,24
 350 62 350 62 336 63 c 1,25,-1
 295 -43 l 1,0,-1
125 388 m 1,26,-1
 390 388 l 1,27,-1
 461 572 l 1,28,-1
 394 572 l 2,29,30
 144 572 144 572 125 388 c 1,26,-1
295 141 m 1,31,-1
 362 317 l 1,32,-1
 125 317 l 1,33,34
 133 247 133 247 174 202.5 c 128,-1,35
 215 158 215 158 295 141 c 1,31,-1
EndSplineSet
Validated: 1
EndChar

StartChar: product
Encoding: 8719 8719 11
Width: 649
Flags: W
LayerCount: 2
Fore
SplineSet
51 -240 m 1,0,-1
 51 714 l 1,1,-1
 598 714 l 1,2,-1
 598 -240 l 1,3,-1
 508 -240 l 1,4,-1
 508 634 l 1,5,-1
 141 634 l 1,6,-1
 141 -240 l 1,7,-1
 51 -240 l 1,0,-1
EndSplineSet
Validated: 1
EndChar

StartChar: summation
Encoding: 8721 8721 12
Width: 677
Flags: W
LayerCount: 2
Fore
SplineSet
51 -240 m 1,0,-1
 51 -185 l 1,1,-1
 357 262 l 1,2,-1
 59 658 l 1,3,-1
 59 714 l 1,4,-1
 594 714 l 1,5,-1
 594 635 l 1,6,-1
 185 635 l 1,7,-1
 463 264 l 1,8,-1
 173 -161 l 1,9,-1
 626 -161 l 1,10,-1
 626 -240 l 1,11,-1
 51 -240 l 1,0,-1
EndSplineSet
Validated: 1
EndChar

StartChar: minus
Encoding: 8722 8722 13
Width: 572
Flags: W
LayerCount: 2
Fore
SplineSet
51 317 m 1,0,-1
 51 388 l 1,1,-1
 521 388 l 1,2,-1
 521 317 l 1,3,-1
 51 317 l 1,0,-1
EndSplineSet
Validated: 1
EndChar

StartChar: asteriskmath
Encoding: 8727 8727 14
Width: 456
Flags: W
LayerCount: 2
Fore
SplineSet
192 169 m 1,0,-1
 197 300 l 1,1,-1
 87 230 l 1,2,-1
 51 292 l 1,3,-1
 166 353 l 1,4,-1
 51 414 l 1,5,-1
 87 476 l 1,6,-1
 197 406 l 1,7,-1
 192 537 l 1,8,-1
 264 537 l 1,9,-1
 259 406 l 1,10,-1
 369 476 l 1,11,-1
 405 414 l 1,12,-1
 290 353 l 1,13,-1
 405 292 l 1,14,-1
 369 230 l 1,15,-1
 259 300 l 1,16,-1
 264 169 l 1,17,-1
 192 169 l 1,0,-1
EndSplineSet
Validated: 1
EndChar

StartChar: radical
Encoding: 8730 8730 15
Width: 605
Flags: W
LayerCount: 2
Fore
SplineSet
274 -7 m 1,0,-1
 139 373 l 1,1,-1
 51 373 l 1,2,-1
 51 443 l 1,3,-1
 194 443 l 1,4,-1
 307 114 l 1,5,-1
 565 850 l 1,6,-1
 636 850 l 1,7,-1
 339 -7 l 1,8,-1
 274 -7 l 1,0,-1
EndSplineSet
Validated: 1
EndChar

StartChar: proportional
Encoding: 8733 8733 16
Width: 540
Flags: W
LayerCount: 2
Fore
SplineSet
198 198 m 0,0,1
 132 198 132 198 91.5 241 c 128,-1,2
 51 284 51 284 51 353 c 0,3,4
 51 398 51 398 70 432.5 c 128,-1,5
 89 467 89 467 122 487 c 128,-1,6
 155 507 155 507 198 507 c 0,7,8
 287 507 287 507 345 402 c 1,9,10
 404 501 404 501 489 507 c 1,11,-1
 489 444 l 1,12,13
 458 442 458 442 432.5 420.5 c 128,-1,14
 407 399 407 399 380 351 c 1,15,16
 428 264 428 264 489 261 c 1,17,-1
 489 198 l 1,18,19
 403 201 403 201 344 302 c 1,20,21
 315 252 315 252 277.5 225 c 128,-1,22
 240 198 240 198 198 198 c 0,0,1
202 261 m 0,23,24
 260 261 260 261 311 353 c 1,25,26
 286 399 286 399 260.5 421.5 c 128,-1,27
 235 444 235 444 201 444 c 0,28,29
 164 444 164 444 140 418.5 c 128,-1,30
 116 393 116 393 116 353 c 256,31,32
 116 313 116 313 139.5 287 c 128,-1,33
 163 261 163 261 202 261 c 0,23,24
EndSplineSet
Validated: 1
EndChar

StartChar: infinity
Encoding: 8734 8734 17
Width: 739
Flags: W
LayerCount: 2
Fore
SplineSet
532 153 m 0,0,1
 486 153 486 153 442.5 182 c 128,-1,2
 399 211 399 211 363 275 c 1,3,4
 332 217 332 217 293 186.5 c 128,-1,5
 254 156 254 156 205 156 c 0,6,7
 162 156 162 156 127 179 c 128,-1,8
 92 202 92 202 71.5 244.5 c 128,-1,9
 51 287 51 287 51 345 c 0,10,11
 51 400 51 400 70.5 443.5 c 128,-1,12
 90 487 90 487 125.5 512.5 c 128,-1,13
 161 538 161 538 208 538 c 0,14,15
 254 538 254 538 298 510.5 c 128,-1,16
 342 483 342 483 376 419 c 1,17,18
 407 477 407 477 445.5 506 c 128,-1,19
 484 535 484 535 533 535 c 0,20,21
 602 535 602 535 645 483 c 128,-1,22
 688 431 688 431 688 348 c 0,23,24
 688 293 688 293 668.5 249 c 128,-1,25
 649 205 649 205 614 179 c 128,-1,26
 579 153 579 153 532 153 c 0,0,1
207 223 m 0,27,28
 244 223 244 223 273.5 253.5 c 128,-1,29
 303 284 303 284 331 347 c 1,30,31
 306 409 306 409 276.5 440 c 128,-1,32
 247 471 247 471 209 471 c 0,33,34
 166 471 166 471 141 434 c 128,-1,35
 116 397 116 397 116 345 c 0,36,37
 116 296 116 296 139.5 259.5 c 128,-1,38
 163 223 163 223 207 223 c 0,27,28
529 220 m 0,39,40
 573 220 573 220 598.5 256.5 c 128,-1,41
 624 293 624 293 624 344 c 0,42,43
 624 397 624 397 598 432.5 c 128,-1,44
 572 468 572 468 530 468 c 0,45,46
 494 468 494 468 465.5 437.5 c 128,-1,47
 437 407 437 407 408 344 c 1,48,49
 434 282 434 282 463 251 c 128,-1,50
 492 220 492 220 529 220 c 0,39,40
EndSplineSet
Validated: 1
EndChar

StartChar: orthogonal
Encoding: 8735 8735 18
Width: 652
Flags: W
LayerCount: 2
Fore
SplineSet
51 0 m 1,0,-1
 51 550 l 1,1,-1
 122 550 l 1,2,-1
 122 71 l 1,3,-1
 601 71 l 1,4,-1
 601 0 l 1,5,-1
 51 0 l 1,0,-1
EndSplineSet
Validated: 1
EndChar

StartChar: angle
Encoding: 8736 8736 19
Width: 652
Flags: W
LayerCount: 2
Fore
SplineSet
51 0 m 1,0,-1
 51 50 l 1,1,-1
 461 515 l 1,2,-1
 511 464 l 1,3,-1
 166 71 l 1,4,-1
 601 71 l 1,5,-1
 601 0 l 1,6,-1
 51 0 l 1,0,-1
EndSplineSet
Validated: 1
EndChar

StartChar: logicaland
Encoding: 8743 8743 20
Width: 714
Flags: W
LayerCount: 2
Fore
SplineSet
51 0 m 1,0,-1
 332 580 l 1,1,-1
 382 580 l 1,2,-1
 663 0 l 1,3,-1
 580 0 l 1,4,-1
 357 478 l 1,5,-1
 134 0 l 1,6,-1
 51 0 l 1,0,-1
EndSplineSet
Validated: 1
EndChar

StartChar: logicalor
Encoding: 8744 8744 21
Width: 714
Flags: W
LayerCount: 2
Fore
SplineSet
332 0 m 1,0,-1
 51 580 l 1,1,-1
 134 580 l 1,2,-1
 357 102 l 1,3,-1
 580 580 l 1,4,-1
 663 580 l 1,5,-1
 382 0 l 1,6,-1
 332 0 l 1,0,-1
EndSplineSet
Validated: 1
EndChar

StartChar: intersection
Encoding: 8745 8745 22
Width: 684
Flags: W
LayerCount: 2
Fore
SplineSet
51 0 m 1,0,-1
 51 321 l 2,1,2
 51 489 51 489 125 576.5 c 128,-1,3
 199 664 199 664 342 664 c 0,4,5
 486 664 486 664 559.5 576.5 c 128,-1,6
 633 489 633 489 633 321 c 2,7,-1
 633 0 l 1,8,-1
 562 0 l 1,9,-1
 562 321 l 2,10,11
 562 592 562 592 342 592 c 0,12,13
 231 592 231 592 176.5 525 c 128,-1,14
 122 458 122 458 122 321 c 2,15,-1
 122 0 l 1,16,-1
 51 0 l 1,0,-1
EndSplineSet
Validated: 1
EndChar

StartChar: union
Encoding: 8746 8746 23
Width: 684
Flags: W
LayerCount: 2
Fore
SplineSet
342 0 m 0,0,1
 199 0 199 0 125 87.5 c 128,-1,2
 51 175 51 175 51 343 c 2,3,-1
 51 664 l 1,4,-1
 122 664 l 1,5,-1
 122 343 l 2,6,7
 122 206 122 206 176.5 139 c 128,-1,8
 231 72 231 72 342 72 c 0,9,10
 562 72 562 72 562 343 c 2,11,-1
 562 664 l 1,12,-1
 633 664 l 1,13,-1
 633 343 l 2,14,15
 633 175 633 175 559.5 87.5 c 128,-1,16
 486 0 486 0 342 0 c 0,0,1
EndSplineSet
Validated: 1
EndChar

StartChar: integral
Encoding: 8747 8747 24
Width: 387
Flags: W
LayerCount: 2
Fore
SplineSet
73 -240 m 0,0,1
 34 -240 34 -240 5 -230 c 1,2,-1
 5 -158 l 1,3,4
 35 -170 35 -170 65 -170 c 0,5,6
 151 -170 151 -170 151 -56 c 2,7,-1
 151 707 l 2,8,9
 151 885 151 885 312 885 c 0,10,11
 353 885 353 885 375 876 c 1,12,-1
 375 803 l 1,13,14
 347 815 347 815 319 815 c 0,15,16
 236 815 236 815 236 701 c 2,17,-1
 236 -62 l 2,18,19
 236 -240 236 -240 73 -240 c 0,0,1
EndSplineSet
Validated: 1
EndChar

StartChar: therefore
Encoding: 8756 8756 25
Width: 571
Flags: W
LayerCount: 2
Fore
SplineSet
286 463 m 256,0,1
 261 463 261 463 243.5 480.5 c 128,-1,2
 226 498 226 498 226 523 c 256,3,4
 226 548 226 548 243.5 565.5 c 128,-1,5
 261 583 261 583 286 583 c 256,6,7
 311 583 311 583 328.5 565.5 c 128,-1,8
 346 548 346 548 346 523 c 256,9,10
 346 498 346 498 328.5 480.5 c 128,-1,11
 311 463 311 463 286 463 c 256,0,1
111 122 m 256,12,13
 86 122 86 122 68.5 139.5 c 128,-1,14
 51 157 51 157 51 182 c 256,15,16
 51 207 51 207 68.5 224.5 c 128,-1,17
 86 242 86 242 111 242 c 256,18,19
 136 242 136 242 153.5 224.5 c 128,-1,20
 171 207 171 207 171 182 c 256,21,22
 171 157 171 157 153.5 139.5 c 128,-1,23
 136 122 136 122 111 122 c 256,12,13
461 122 m 256,24,25
 436 122 436 122 418.5 139.5 c 128,-1,26
 401 157 401 157 401 182 c 256,27,28
 401 207 401 207 418.5 224.5 c 128,-1,29
 436 242 436 242 461 242 c 256,30,31
 486 242 486 242 503.5 224.5 c 128,-1,32
 521 207 521 207 521 182 c 256,33,34
 521 157 521 157 503.5 139.5 c 128,-1,35
 486 122 486 122 461 122 c 256,24,25
EndSplineSet
Validated: 1
EndChar

StartChar: similar
Encoding: 8764 8764 26
Width: 572
Flags: W
LayerCount: 2
Fore
SplineSet
51 287 m 1,0,-1
 51 365 l 1,1,2
 99 418 99 418 170 418 c 0,3,4
 229 418 229 418 296 389 c 0,5,6
 329 375 329 375 356.5 367 c 128,-1,7
 384 359 384 359 406 359 c 0,8,9
 432 359 432 359 463.5 374.5 c 128,-1,10
 495 390 495 390 521 418 c 1,11,-1
 521 341 l 1,12,13
 472 287 472 287 401 287 c 0,14,15
 339 287 339 287 274 317 c 0,16,17
 210 346 210 346 164 346 c 0,18,19
 138 346 138 346 108 330.5 c 128,-1,20
 78 315 78 315 51 287 c 1,0,-1
EndSplineSet
Validated: 1
EndChar

StartChar: congruent
Encoding: 8773 8773 27
Width: 572
Flags: W
LayerCount: 2
Fore
SplineSet
51 451 m 1,0,-1
 51 529 l 1,1,2
 101 582 101 582 170 582 c 0,3,4
 232 582 232 582 296 552 c 0,5,6
 360 523 360 523 406 523 c 0,7,8
 432 523 432 523 462.5 538.5 c 128,-1,9
 493 554 493 554 521 582 c 1,10,-1
 521 505 l 1,11,12
 472 451 472 451 401 451 c 0,13,14
 340 451 340 451 275 481 c 0,15,16
 211 510 211 510 164 510 c 0,17,18
 140 510 140 510 110 495 c 128,-1,19
 80 480 80 480 51 451 c 1,0,-1
51 318 m 1,20,-1
 51 389 l 1,21,-1
 521 389 l 1,22,-1
 521 318 l 1,23,-1
 51 318 l 1,20,-1
51 158 m 1,24,-1
 51 229 l 1,25,-1
 521 229 l 1,26,-1
 521 158 l 1,27,-1
 51 158 l 1,24,-1
EndSplineSet
Validated: 1
EndChar

StartChar: approxequal
Encoding: 8776 8776 28
Width: 572
Flags: W
LayerCount: 2
Fore
SplineSet
51 386 m 1,0,-1
 51 464 l 1,1,2
 101 517 101 517 170 517 c 0,3,4
 232 517 232 517 296 487 c 0,5,6
 360 458 360 458 406 458 c 0,7,8
 432 458 432 458 462.5 473.5 c 128,-1,9
 493 489 493 489 521 517 c 1,10,-1
 521 440 l 1,11,12
 472 386 472 386 401 386 c 0,13,14
 340 386 340 386 275 416 c 0,15,16
 211 445 211 445 164 445 c 0,17,18
 140 445 140 445 110 430 c 128,-1,19
 80 415 80 415 51 386 c 1,0,-1
51 189 m 1,20,-1
 51 267 l 1,21,22
 101 320 101 320 170 320 c 0,23,24
 232 320 232 320 296 290 c 0,25,26
 360 261 360 261 406 261 c 0,27,28
 432 261 432 261 462.5 276.5 c 128,-1,29
 493 292 493 292 521 320 c 1,30,-1
 521 243 l 1,31,32
 472 189 472 189 401 189 c 0,33,34
 340 189 340 189 275 219 c 0,35,36
 211 248 211 248 164 248 c 0,37,38
 140 248 140 248 110 233 c 128,-1,39
 80 218 80 218 51 189 c 1,20,-1
EndSplineSet
Validated: 1
EndChar

StartChar: notequal
Encoding: 8800 8800 29
Width: 572
Flags: W
LayerCount: 2
Fore
SplineSet
51 217 m 1,0,-1
 51 288 l 1,1,-1
 226 288 l 1,2,-1
 276 416 l 1,3,-1
 51 416 l 1,4,-1
 51 487 l 1,5,-1
 303 487 l 1,6,-1
 356 622 l 1,7,-1
 417 598 l 1,8,-1
 374 487 l 1,9,-1
 521 487 l 1,10,-1
 521 416 l 1,11,-1
 346 416 l 1,12,-1
 296 288 l 1,13,-1
 521 288 l 1,14,-1
 521 217 l 1,15,-1
 269 217 l 1,16,-1
 216 82 l 1,17,-1
 155 106 l 1,18,-1
 198 217 l 1,19,-1
 51 217 l 1,0,-1
EndSplineSet
Validated: 1
EndChar

StartChar: equivalence
Encoding: 8801 8801 30
Width: 572
Flags: W
LayerCount: 2
Fore
SplineSet
51 491 m 1,0,-1
 51 562 l 1,1,-1
 521 562 l 1,2,-1
 521 491 l 1,3,-1
 51 491 l 1,0,-1
51 317 m 1,4,-1
 51 388 l 1,5,-1
 521 388 l 1,6,-1
 521 317 l 1,7,-1
 51 317 l 1,4,-1
51 143 m 1,8,-1
 51 214 l 1,9,-1
 521 214 l 1,10,-1
 521 143 l 1,11,-1
 51 143 l 1,8,-1
EndSplineSet
Validated: 1
EndChar

StartChar: lessequal
Encoding: 8804 8804 31
Width: 572
Flags: W
LayerCount: 2
Fore
SplineSet
521 166 m 1,0,-1
 51 387 l 1,1,-1
 51 437 l 1,2,-1
 521 658 l 1,3,-1
 521 580 l 1,4,-1
 155 412 l 1,5,-1
 521 244 l 1,6,-1
 521 166 l 1,0,-1
51 47 m 1,7,-1
 51 118 l 1,8,-1
 521 118 l 1,9,-1
 521 47 l 1,10,-1
 51 47 l 1,7,-1
EndSplineSet
Validated: 1
EndChar

StartChar: greaterequal
Encoding: 8805 8805 32
Width: 572
Flags: W
LayerCount: 2
Fore
SplineSet
51 166 m 1,0,-1
 51 244 l 1,1,-1
 417 412 l 1,2,-1
 51 580 l 1,3,-1
 51 658 l 1,4,-1
 521 437 l 1,5,-1
 521 387 l 1,6,-1
 51 166 l 1,0,-1
51 47 m 1,7,-1
 51 118 l 1,8,-1
 521 118 l 1,9,-1
 521 47 l 1,10,-1
 51 47 l 1,7,-1
EndSplineSet
Validated: 1
EndChar

StartChar: notsubset
Encoding: 8836 8836 33
Width: 699
Flags: W
LayerCount: 2
Fore
SplineSet
311 -57 m 1,0,-1
 249 -34 l 1,1,-1
 288 69 l 1,2,3
 171 88 171 88 111 160.5 c 128,-1,4
 51 233 51 233 51 353 c 0,5,6
 51 496 51 496 133.5 570 c 128,-1,7
 216 644 216 644 379 644 c 2,8,-1
 509 644 l 1,9,-1
 555 763 l 1,10,-1
 617 740 l 1,11,-1
 580 644 l 1,12,-1
 648 644 l 1,13,-1
 648 573 l 1,14,-1
 553 573 l 1,15,-1
 384 132 l 1,16,-1
 648 132 l 1,17,-1
 648 62 l 1,18,-1
 379 62 l 2,19,20
 368 62 368 62 357 62 c 1,21,-1
 311 -57 l 1,0,-1
123 353 m 0,22,23
 123 253 123 253 170 200.5 c 128,-1,24
 217 148 217 148 314 136 c 1,25,-1
 482 573 l 1,26,-1
 379 573 l 2,27,28
 249 573 249 573 186 521 c 128,-1,29
 123 469 123 469 123 353 c 0,22,23
EndSplineSet
Validated: 1
EndChar

StartChar: reflexsubset
Encoding: 8838 8838 34
Width: 699
Flags: W
LayerCount: 2
Fore
SplineSet
379 140 m 2,0,1
 216 140 216 140 133.5 214.5 c 128,-1,2
 51 289 51 289 51 431 c 0,3,4
 51 574 51 574 133.5 648 c 128,-1,5
 216 722 216 722 379 722 c 2,6,-1
 648 722 l 1,7,-1
 648 651 l 1,8,-1
 379 651 l 2,9,10
 249 651 249 651 186 599 c 128,-1,11
 123 547 123 547 123 431 c 0,12,13
 123 316 123 316 186 263 c 128,-1,14
 249 210 249 210 379 210 c 2,15,-1
 648 210 l 1,16,-1
 648 140 l 1,17,-1
 379 140 l 2,0,1
91 0 m 1,18,-1
 91 71 l 1,19,-1
 648 71 l 1,20,-1
 648 0 l 1,21,-1
 91 0 l 1,18,-1
EndSplineSet
Validated: 1
EndChar

StartChar: reflexsuperset
Encoding: 8839 8839 35
Width: 699
Flags: W
LayerCount: 2
Fore
SplineSet
51 140 m 1,0,-1
 51 210 l 1,1,-1
 320 210 l 2,2,3
 451 210 451 210 513.5 263 c 128,-1,4
 576 316 576 316 576 431 c 0,5,6
 576 547 576 547 513 599 c 128,-1,7
 450 651 450 651 320 651 c 2,8,-1
 51 651 l 1,9,-1
 51 722 l 1,10,-1
 320 722 l 2,11,12
 483 722 483 722 565.5 648 c 128,-1,13
 648 574 648 574 648 431 c 0,14,15
 648 289 648 289 565.5 214.5 c 128,-1,16
 483 140 483 140 320 140 c 2,17,-1
 51 140 l 1,0,-1
51 0 m 1,18,-1
 51 71 l 1,19,-1
 608 71 l 1,20,-1
 608 0 l 1,21,-1
 51 0 l 1,18,-1
EndSplineSet
Validated: 1
EndChar

StartChar: dotmath
Encoding: 8901 8901 36
Width: 222
Flags: W
LayerCount: 2
Fore
SplineSet
111 292 m 256,0,1
 86 292 86 292 68.5 310 c 128,-1,2
 51 328 51 328 51 352 c 0,3,4
 51 377 51 377 68.5 394.5 c 128,-1,5
 86 412 86 412 111 412 c 0,6,7
 134 412 134 412 152.5 395 c 128,-1,8
 171 378 171 378 171 352 c 0,9,10
 171 327 171 327 153.5 309.5 c 128,-1,11
 136 292 136 292 111 292 c 256,0,1
EndSplineSet
Validated: 1
EndChar

StartChar: lozenge
Encoding: 9674 9674 37
Width: 580
Flags: W
LayerCount: 2
Fore
SplineSet
271 0 m 1,0,-1
 51 360 l 1,1,-1
 271 720 l 1,2,-1
 309 720 l 1,3,-1
 529 360 l 1,4,-1
 309 0 l 1,5,-1
 271 0 l 1,0,-1
290 104 m 1,6,-1
 444 360 l 1,7,-1
 290 616 l 1,8,-1
 136 360 l 1,9,-1
 290 104 l 1,6,-1
EndSplineSet
Validated: 1
EndChar

StartChar: A
Encoding: 65 65 38
Width: 639
GlyphClass: 2
Flags: W
LayerCount: 2
Fore
SplineSet
0 0 m 5,0,-1
 279 717 l 5,1,-1
 360 717 l 5,2,-1
 638 0 l 5,3,-1
 545 0 l 5,4,-1
 459 221 l 5,5,-1
 176 221 l 5,6,-1
 91 0 l 5,7,-1
 0 0 l 5,0,-1
206 301 m 5,8,-1
 432 301 l 5,9,-1
 352 517 l 6,10,11
 349 525 349 525 342 546 c 132,-1,12
 335 567 335 567 328.5 589.5 c 132,-1,13
 322 612 322 612 318 624 c 5,14,15
 311 593 311 593 302 563.5 c 132,-1,16
 293 534 293 534 287 517 c 6,17,-1
 206 301 l 5,8,-1
EndSplineSet
Validated: 1
EndChar

StartChar: B
Encoding: 66 66 39
Width: 650
GlyphClass: 2
Flags: W
LayerCount: 2
Fore
SplineSet
97 0 m 1,0,-1
 97 714 l 1,1,-1
 301 714 l 2,2,3
 435 714 435 714 503.5 674.5 c 128,-1,4
 572 635 572 635 572 537 c 0,5,6
 572 474 572 474 537 432.5 c 128,-1,7
 502 391 502 391 436 379 c 1,8,-1
 436 374 l 1,9,10
 481 367 481 367 517.5 348 c 128,-1,11
 554 329 554 329 575 294 c 128,-1,12
 596 259 596 259 596 203 c 0,13,14
 596 106 596 106 529.5 53 c 128,-1,15
 463 0 463 0 348 0 c 2,16,-1
 97 0 l 1,0,-1
187 410 m 1,17,-1
 319 410 l 2,18,19
 411 410 411 410 445 439.5 c 128,-1,20
 479 469 479 469 479 527 c 0,21,22
 479 586 479 586 437.5 611.5 c 128,-1,23
 396 637 396 637 305 637 c 2,24,-1
 187 637 l 1,25,-1
 187 410 l 1,17,-1
187 76 m 1,26,-1
 331 76 l 2,27,28
 426 76 426 76 463 113 c 128,-1,29
 500 150 500 150 500 210 c 0,30,31
 500 266 500 266 461.5 300.5 c 128,-1,32
 423 335 423 335 324 335 c 2,33,-1
 187 335 l 1,34,-1
 187 76 l 1,26,-1
EndSplineSet
Validated: 1
EndChar

StartChar: C
Encoding: 67 67 40
Width: 632
GlyphClass: 2
Flags: W
LayerCount: 2
Fore
SplineSet
389 -10 m 4,0,1
 280 -10 280 -10 207 35 c 132,-1,2
 134 80 134 80 97.5 163 c 132,-1,3
 61 246 61 246 61 358 c 4,4,5
 61 466 61 466 100.5 548.5 c 132,-1,6
 140 631 140 631 217 677.5 c 132,-1,7
 294 724 294 724 404 724 c 4,8,9
 517 724 517 724 601 682 c 5,10,-1
 565 606 l 5,11,12
 532 621 532 621 491.5 633 c 132,-1,13
 451 645 451 645 403 645 c 4,14,15
 288 645 288 645 222 568 c 132,-1,16
 156 491 156 491 156 357 c 4,17,18
 156 224 156 224 217.5 146.5 c 132,-1,19
 279 69 279 69 402 69 c 4,20,21
 449 69 449 69 491 77 c 132,-1,22
 533 85 533 85 573 97 c 5,23,-1
 573 19 l 5,24,25
 533 4 533 4 490.5 -3 c 132,-1,26
 448 -10 448 -10 389 -10 c 4,0,1
EndSplineSet
Validated: 1
EndChar

StartChar: D
Encoding: 68 68 41
Width: 730
GlyphClass: 2
Flags: W
LayerCount: 2
Fore
SplineSet
97 0 m 5,0,-1
 97 714 l 5,1,-1
 317 714 l 6,2,3
 425 714 425 714 504 674 c 132,-1,4
 583 634 583 634 626 556.5 c 132,-1,5
 669 479 669 479 669 364 c 4,6,7
 669 183 669 183 570.5 91.5 c 132,-1,8
 472 0 472 0 296 0 c 6,9,-1
 97 0 l 5,0,-1
187 77 m 5,10,-1
 284 77 l 6,11,12
 574 77 574 77 574 361 c 4,13,14
 574 504 574 504 503.5 570.5 c 132,-1,15
 433 637 433 637 304 637 c 6,16,-1
 187 637 l 5,17,-1
 187 77 l 5,10,-1
EndSplineSet
Validated: 1
EndChar

StartChar: E
Encoding: 69 69 42
Width: 556
GlyphClass: 2
Flags: W
LayerCount: 2
Fore
SplineSet
97 0 m 5,0,-1
 97 714 l 5,1,-1
 496 714 l 5,2,-1
 496 635 l 5,3,-1
 187 635 l 5,4,-1
 187 412 l 5,5,-1
 478 412 l 5,6,-1
 478 334 l 5,7,-1
 187 334 l 5,8,-1
 187 79 l 5,9,-1
 496 79 l 5,10,-1
 496 0 l 5,11,-1
 97 0 l 5,0,-1
EndSplineSet
Validated: 1
EndChar

StartChar: F
Encoding: 70 70 43
Width: 519
GlyphClass: 2
Flags: W
LayerCount: 2
Fore
SplineSet
97 0 m 1,0,-1
 97 714 l 1,1,-1
 496 714 l 1,2,-1
 496 635 l 1,3,-1
 187 635 l 1,4,-1
 187 382 l 1,5,-1
 477 382 l 1,6,-1
 477 303 l 1,7,-1
 187 303 l 1,8,-1
 187 0 l 1,9,-1
 97 0 l 1,0,-1
EndSplineSet
Validated: 1
EndChar

StartChar: G
Encoding: 71 71 44
Width: 728
GlyphClass: 2
Flags: W
LayerCount: 2
Fore
SplineSet
403 -10 m 4,0,1
 292 -10 292 -10 216 34.5 c 132,-1,2
 140 79 140 79 100.5 161.5 c 132,-1,3
 61 244 61 244 61 357 c 4,4,5
 61 469 61 469 105 551 c 132,-1,6
 149 633 149 633 231.5 678.5 c 132,-1,7
 314 724 314 724 431 724 c 4,8,9
 491 724 491 724 544.5 713 c 132,-1,10
 598 702 598 702 644 682 c 5,11,-1
 610 604 l 5,12,13
 572 621 572 621 524.5 633 c 132,-1,14
 477 645 477 645 426 645 c 4,15,16
 298 645 298 645 226.5 568 c 132,-1,17
 155 491 155 491 155 357 c 4,18,19
 155 272 155 272 182.5 206.5 c 132,-1,20
 210 141 210 141 269 104.5 c 132,-1,21
 328 68 328 68 424 68 c 4,22,23
 471 68 471 68 504 73 c 132,-1,24
 537 78 537 78 564 85 c 5,25,-1
 564 297 l 5,26,-1
 407 297 l 5,27,-1
 407 377 l 5,28,-1
 654 377 l 5,29,-1
 654 27 l 5,30,31
 596 8 596 8 537 -1 c 132,-1,32
 478 -10 478 -10 403 -10 c 4,0,1
EndSplineSet
Validated: 1
EndChar

StartChar: H
Encoding: 72 72 45
Width: 741
GlyphClass: 2
Flags: W
LayerCount: 2
Fore
SplineSet
97 0 m 5,0,-1
 97 714 l 5,1,-1
 187 714 l 5,2,-1
 187 412 l 5,3,-1
 553 412 l 5,4,-1
 553 714 l 5,5,-1
 643 714 l 5,6,-1
 643 0 l 5,7,-1
 553 0 l 5,8,-1
 553 333 l 5,9,-1
 187 333 l 5,10,-1
 187 0 l 5,11,-1
 97 0 l 5,0,-1
EndSplineSet
Validated: 1
EndChar

StartChar: I
Encoding: 73 73 46
Width: 339
GlyphClass: 2
Flags: W
LayerCount: 2
Fore
SplineSet
40 0 m 1,0,-1
 40 52 l 1,1,-1
 124 71 l 1,2,-1
 124 642 l 1,3,-1
 40 662 l 1,4,-1
 40 714 l 1,5,-1
 298 714 l 1,6,-1
 298 662 l 1,7,-1
 214 642 l 1,8,-1
 214 71 l 1,9,-1
 298 52 l 1,10,-1
 298 0 l 1,11,-1
 40 0 l 1,0,-1
EndSplineSet
Validated: 1
EndChar

StartChar: J
Encoding: 74 74 47
Width: 273
GlyphClass: 2
Flags: W
LayerCount: 2
Fore
SplineSet
-4 -190 m 4,0,1
 -28 -190 -28 -190 -46 -186.5 c 132,-1,2
 -64 -183 -64 -183 -78 -177 c 5,3,-1
 -78 -101 l 5,4,5
 -62 -105 -62 -105 -44 -108 c 132,-1,6
 -26 -111 -26 -111 -6 -111 c 4,7,8
 19 -111 19 -111 41.5 -101 c 132,-1,9
 64 -91 64 -91 78 -66 c 132,-1,10
 92 -41 92 -41 92 4 c 6,11,-1
 92 714 l 5,12,-1
 182 714 l 5,13,-1
 182 11 l 6,14,15
 182 -92 182 -92 131 -141 c 132,-1,16
 80 -190 80 -190 -4 -190 c 4,0,1
EndSplineSet
Validated: 1
EndChar

StartChar: K
Encoding: 75 75 48
Width: 619
GlyphClass: 2
Flags: W
LayerCount: 2
Fore
SplineSet
97 0 m 5,0,-1
 97 714 l 5,1,-1
 187 714 l 5,2,-1
 187 362 l 5,3,4
 218 396 218 396 248.5 430 c 132,-1,5
 279 464 279 464 310 498 c 6,6,-1
 503 714 l 5,7,-1
 608 714 l 5,8,-1
 325 403 l 5,9,-1
 619 0 l 5,10,-1
 513 0 l 5,11,-1
 260 341 l 5,12,-1
 187 277 l 5,13,-1
 187 0 l 5,14,-1
 97 0 l 5,0,-1
EndSplineSet
Validated: 1
EndChar

StartChar: L
Encoding: 76 76 49
Width: 524
GlyphClass: 2
Flags: W
LayerCount: 2
Fore
SplineSet
97 0 m 5,0,-1
 97 714 l 5,1,-1
 187 714 l 5,2,-1
 187 80 l 5,3,-1
 499 80 l 5,4,-1
 499 0 l 5,5,-1
 97 0 l 5,0,-1
EndSplineSet
Validated: 1
EndChar

StartChar: M
Encoding: 77 77 50
Width: 907
GlyphClass: 2
Flags: W
LayerCount: 2
Fore
SplineSet
97 0 m 5,0,-1
 97 714 l 5,1,-1
 230 714 l 5,2,-1
 450 129 l 5,3,-1
 454 129 l 5,4,-1
 678 714 l 5,5,-1
 810 714 l 5,6,-1
 810 0 l 5,7,-1
 721 0 l 5,8,-1
 721 439 l 6,9,10
 721 491 721 491 723.5 542 c 132,-1,11
 726 593 726 593 728 625 c 5,12,-1
 724 625 l 5,13,-1
 486 0 l 5,14,-1
 412 0 l 5,15,-1
 177 626 l 5,16,-1
 173 626 l 5,17,18
 176 595 176 595 178 542.5 c 132,-1,19
 180 490 180 490 180 433 c 6,20,-1
 180 0 l 5,21,-1
 97 0 l 5,0,-1
EndSplineSet
Validated: 1
EndChar

StartChar: N
Encoding: 78 78 51
Width: 760
GlyphClass: 2
Flags: W
LayerCount: 2
Fore
SplineSet
97 0 m 5,0,-1
 97 714 l 5,1,-1
 201 714 l 5,2,-1
 582 123 l 5,3,-1
 586 123 l 5,4,5
 585 139 585 139 583.5 171 c 132,-1,6
 582 203 582 203 580.5 241 c 132,-1,7
 579 279 579 279 579 311 c 6,8,-1
 579 714 l 5,9,-1
 663 714 l 5,10,-1
 663 0 l 5,11,-1
 558 0 l 5,12,-1
 176 593 l 5,13,-1
 172 593 l 5,14,15
 175 558 175 558 177.5 506 c 132,-1,16
 180 454 180 454 180 399 c 6,17,-1
 180 0 l 5,18,-1
 97 0 l 5,0,-1
EndSplineSet
Validated: 1
EndChar

StartChar: O
Encoding: 79 79 52
Width: 781
GlyphClass: 2
Flags: W
LayerCount: 2
Fore
SplineSet
391 -10 m 4,0,1
 280 -10 280 -10 206.5 36 c 132,-1,2
 133 82 133 82 97 165 c 132,-1,3
 61 248 61 248 61 359 c 4,4,5
 61 469 61 469 97 551 c 132,-1,6
 133 633 133 633 206.5 679 c 132,-1,7
 280 725 280 725 392 725 c 4,8,9
 499 725 499 725 572 679.5 c 132,-1,10
 645 634 645 634 682.5 551.5 c 132,-1,11
 720 469 720 469 720 358 c 260,12,13
 720 247 720 247 682.5 164.5 c 132,-1,14
 645 82 645 82 572 36 c 132,-1,15
 499 -10 499 -10 391 -10 c 4,0,1
391 68 m 4,16,17
 513 68 513 68 569 145.5 c 132,-1,18
 625 223 625 223 625 358 c 260,19,20
 625 493 625 493 569 569.5 c 132,-1,21
 513 646 513 646 392 646 c 260,22,23
 271 646 271 646 213.5 569.5 c 132,-1,24
 156 493 156 493 156 358 c 260,25,26
 156 223 156 223 213 145.5 c 132,-1,27
 270 68 270 68 391 68 c 4,16,17
EndSplineSet
Validated: 1
EndChar

StartChar: P
Encoding: 80 80 53
Width: 605
GlyphClass: 2
Flags: W
LayerCount: 2
Fore
SplineSet
97 0 m 1,0,-1
 97 714 l 1,1,-1
 286 714 l 2,2,3
 426 714 426 714 490 659 c 128,-1,4
 554 604 554 604 554 504 c 0,5,6
 554 445 554 445 527.5 393.5 c 128,-1,7
 501 342 501 342 438.5 310 c 128,-1,8
 376 278 376 278 269 278 c 2,9,-1
 187 278 l 1,10,-1
 187 0 l 1,11,-1
 97 0 l 1,0,-1
187 355 m 1,12,-1
 259 355 l 2,13,14
 361 355 361 355 411 388 c 128,-1,15
 461 421 461 421 461 500 c 0,16,17
 461 569 461 569 417 603 c 128,-1,18
 373 637 373 637 278 637 c 2,19,-1
 187 637 l 1,20,-1
 187 355 l 1,12,-1
EndSplineSet
Validated: 1
EndChar

StartChar: Q
Encoding: 81 81 54
Width: 781
GlyphClass: 2
Flags: W
LayerCount: 2
Fore
SplineSet
554 -170 m 1,0,-1
 416 -9 l 1,1,2
 406 -10 406 -10 401.5 -10 c 128,-1,3
 397 -10 397 -10 391 -10 c 0,4,5
 280 -10 280 -10 206.5 36 c 128,-1,6
 133 82 133 82 97 165 c 128,-1,7
 61 248 61 248 61 359 c 0,8,9
 61 469 61 469 97 551 c 128,-1,10
 133 633 133 633 206.5 679 c 128,-1,11
 280 725 280 725 392 725 c 0,12,13
 499 725 499 725 572 679.5 c 128,-1,14
 645 634 645 634 682.5 551.5 c 128,-1,15
 720 469 720 469 720 358 c 0,16,17
 720 227 720 227 667.5 135 c 128,-1,18
 615 43 615 43 512 8 c 1,19,-1
 683 -170 l 1,20,-1
 554 -170 l 1,0,-1
391 68 m 0,21,22
 513 68 513 68 569 145.5 c 128,-1,23
 625 223 625 223 625 358 c 256,24,25
 625 493 625 493 569 569.5 c 128,-1,26
 513 646 513 646 392 646 c 256,27,28
 271 646 271 646 213.5 569.5 c 128,-1,29
 156 493 156 493 156 358 c 256,30,31
 156 223 156 223 213 145.5 c 128,-1,32
 270 68 270 68 391 68 c 0,21,22
EndSplineSet
Validated: 1
EndChar

StartChar: R
Encoding: 82 82 55
Width: 622
GlyphClass: 2
Flags: W
LayerCount: 2
Fore
SplineSet
97 0 m 5,0,-1
 97 714 l 5,1,-1
 294 714 l 6,2,3
 427 714 427 714 490.5 663.5 c 132,-1,4
 554 613 554 613 554 511 c 4,5,6
 554 454 554 454 533 416 c 132,-1,7
 512 378 512 378 479.5 355.5 c 132,-1,8
 447 333 447 333 411 320 c 5,9,-1
 607 0 l 5,10,-1
 502 0 l 5,11,-1
 329 295 l 5,12,-1
 187 295 l 5,13,-1
 187 0 l 5,14,-1
 97 0 l 5,0,-1
187 371 m 5,15,-1
 294 371 l 6,16,17
 381 371 381 371 421 405.5 c 132,-1,18
 461 440 461 440 461 507 c 4,19,20
 461 577 461 577 419 606.5 c 132,-1,21
 377 636 377 636 289 636 c 6,22,-1
 187 636 l 5,23,-1
 187 371 l 5,15,-1
EndSplineSet
Validated: 1
EndChar

StartChar: S
Encoding: 83 83 56
Width: 549
GlyphClass: 2
Flags: W
LayerCount: 2
Fore
SplineSet
247 -10 m 4,0,1
 187 -10 187 -10 136 -1 c 132,-1,2
 85 8 85 8 51 24 c 5,3,-1
 51 110 l 5,4,5
 87 94 87 94 140.5 81 c 132,-1,6
 194 68 194 68 251 68 c 4,7,8
 331 68 331 68 371.5 99 c 132,-1,9
 412 130 412 130 412 183 c 4,10,11
 412 218 412 218 397 242 c 132,-1,12
 382 266 382 266 345.5 286.5 c 132,-1,13
 309 307 309 307 244 330 c 4,14,15
 153 363 153 363 106.5 411 c 132,-1,16
 60 459 60 459 60 542 c 4,17,18
 60 599 60 599 89 639.5 c 132,-1,19
 118 680 118 680 169.5 702 c 132,-1,20
 221 724 221 724 288 724 c 4,21,22
 347 724 347 724 396 713 c 132,-1,23
 445 702 445 702 485 684 c 5,24,-1
 457 607 l 5,25,26
 420 623 420 623 376.5 634 c 132,-1,27
 333 645 333 645 286 645 c 4,28,29
 219 645 219 645 185 616.5 c 132,-1,30
 151 588 151 588 151 541 c 4,31,32
 151 505 151 505 166 481 c 132,-1,33
 181 457 181 457 215 438 c 132,-1,34
 249 419 249 419 307 397 c 4,35,36
 370 374 370 374 413.5 347.5 c 132,-1,37
 457 321 457 321 479.5 284 c 132,-1,38
 502 247 502 247 502 191 c 4,39,40
 502 96 502 96 433 43 c 132,-1,41
 364 -10 364 -10 247 -10 c 4,0,1
EndSplineSet
Validated: 1
EndChar

StartChar: T
Encoding: 84 84 57
Width: 556
GlyphClass: 2
Flags: W
LayerCount: 2
Fore
SplineSet
233 0 m 5,0,-1
 233 635 l 5,1,-1
 10 635 l 5,2,-1
 10 714 l 5,3,-1
 545 714 l 5,4,-1
 545 635 l 5,5,-1
 323 635 l 5,6,-1
 323 0 l 5,7,-1
 233 0 l 5,0,-1
EndSplineSet
Validated: 1
EndChar

StartChar: U
Encoding: 85 85 58
Width: 731
GlyphClass: 2
Flags: W
LayerCount: 2
Fore
SplineSet
362 -10 m 4,0,1
 229 -10 229 -10 159.5 62.5 c 132,-1,2
 90 135 90 135 90 254 c 6,3,-1
 90 714 l 5,4,-1
 180 714 l 5,5,-1
 180 251 l 6,6,7
 180 164 180 164 226.5 116 c 132,-1,8
 273 68 273 68 367 68 c 4,9,10
 464 68 464 68 507.5 119.5 c 132,-1,11
 551 171 551 171 551 252 c 6,12,-1
 551 714 l 5,13,-1
 640 714 l 5,14,-1
 640 252 l 6,15,16
 640 178 640 178 610 118.5 c 132,-1,17
 580 59 580 59 518.5 24.5 c 132,-1,18
 457 -10 457 -10 362 -10 c 4,0,1
EndSplineSet
Validated: 1
EndChar

StartChar: V
Encoding: 86 86 59
Width: 600
GlyphClass: 2
Flags: W
LayerCount: 2
Fore
SplineSet
255 0 m 1,0,-1
 0 714 l 1,1,-1
 94 714 l 1,2,-1
 255 256 l 2,3,4
 271 212 271 212 282 173.5 c 128,-1,5
 293 135 293 135 300 100 c 1,6,7
 307 135 307 135 318 174 c 128,-1,8
 329 213 329 213 345 258 c 2,9,-1
 505 714 l 1,10,-1
 600 714 l 1,11,-1
 345 0 l 1,12,-1
 255 0 l 1,0,-1
EndSplineSet
Validated: 1
EndChar

StartChar: W
Encoding: 87 87 60
Width: 930
GlyphClass: 2
Flags: W
LayerCount: 2
Fore
SplineSet
201 0 m 5,0,-1
 12 714 l 5,1,-1
 106 714 l 5,2,-1
 217 278 l 6,3,4
 229 232 229 232 237.5 189 c 132,-1,5
 246 146 246 146 251 108 c 5,6,7
 256 147 256 147 266 193 c 132,-1,8
 276 239 276 239 289 283 c 6,9,-1
 415 714 l 5,10,-1
 508 714 l 5,11,-1
 639 280 l 6,12,13
 653 234 653 234 663 188.5 c 132,-1,14
 673 143 673 143 678 108 c 5,15,16
 683 145 683 145 692 188.5 c 132,-1,17
 701 232 701 232 713 279 c 6,18,-1
 823 714 l 5,19,-1
 917 714 l 5,20,-1
 727 0 l 5,21,-1
 636 0 l 5,22,-1
 497 468 l 6,23,24
 489 497 489 497 481 526 c 132,-1,25
 473 555 473 555 468 577.5 c 132,-1,26
 463 600 463 600 461 609 c 5,27,28
 460 596 460 596 450.5 553.5 c 132,-1,29
 441 511 441 511 427 465 c 6,30,-1
 292 0 l 5,31,-1
 201 0 l 5,0,-1
EndSplineSet
Validated: 1
EndChar

StartChar: X
Encoding: 88 88 61
Width: 586
GlyphClass: 2
Flags: W
LayerCount: 2
Fore
SplineSet
4 0 m 1,0,-1
 241 372 l 1,1,-1
 19 714 l 1,2,-1
 119 714 l 1,3,-1
 294 434 l 1,4,-1
 470 714 l 1,5,-1
 565 714 l 1,6,-1
 344 374 l 1,7,-1
 582 0 l 1,8,-1
 480 0 l 1,9,-1
 291 310 l 1,10,-1
 99 0 l 1,11,-1
 4 0 l 1,0,-1
EndSplineSet
Validated: 1
EndChar

StartChar: Y
Encoding: 89 89 62
Width: 566
GlyphClass: 2
Flags: W
LayerCount: 2
Fore
SplineSet
238 0 m 5,0,-1
 238 273 l 5,1,-1
 0 714 l 5,2,-1
 98 714 l 5,3,-1
 283 363 l 5,4,-1
 469 714 l 5,5,-1
 566 714 l 5,6,-1
 328 277 l 5,7,-1
 328 0 l 5,8,-1
 238 0 l 5,0,-1
EndSplineSet
Validated: 1
EndChar

StartChar: Z
Encoding: 90 90 63
Width: 572
GlyphClass: 2
Flags: W
LayerCount: 2
Fore
SplineSet
38 0 m 5,0,-1
 38 68 l 5,1,-1
 414 634 l 5,2,-1
 50 634 l 5,3,-1
 50 714 l 5,4,-1
 523 714 l 5,5,-1
 523 646 l 5,6,-1
 147 80 l 5,7,-1
 533 80 l 5,8,-1
 533 0 l 5,9,-1
 38 0 l 5,0,-1
EndSplineSet
Validated: 1
EndChar

StartChar: a
Encoding: 97 97 64
Width: 561
GlyphClass: 2
Flags: W
LayerCount: 2
Fore
SplineSet
215 -10 m 4,0,1
 142 -10 142 -10 94 28.5 c 132,-1,2
 46 67 46 67 46 149 c 4,3,4
 46 229 46 229 109 272.5 c 132,-1,5
 172 316 172 316 303 320 c 6,6,-1
 394 323 l 5,7,-1
 394 355 l 6,8,9
 394 422 394 422 365 448 c 132,-1,10
 336 474 336 474 283 474 c 4,11,12
 241 474 241 474 203 461.5 c 132,-1,13
 165 449 165 449 132 433 c 5,14,-1
 105 499 l 5,15,16
 140 518 140 518 188 531.5 c 132,-1,17
 236 545 236 545 288 545 c 4,18,19
 386 545 386 545 433 502 c 132,-1,20
 480 459 480 459 480 365 c 6,21,-1
 480 0 l 5,22,-1
 416 0 l 5,23,-1
 399 76 l 5,24,-1
 395 76 l 5,25,26
 360 32 360 32 321.5 11 c 132,-1,27
 283 -10 283 -10 215 -10 c 4,0,1
235 61 m 4,28,29
 303 61 303 61 348 98.5 c 132,-1,30
 393 136 393 136 393 214 c 6,31,-1
 393 262 l 5,32,-1
 314 259 l 6,33,34
 214 255 214 255 175.5 227 c 132,-1,35
 137 199 137 199 137 148 c 4,36,37
 137 103 137 103 164.5 82 c 132,-1,38
 192 61 192 61 235 61 c 4,28,29
EndSplineSet
Validated: 1
EndChar

StartChar: b
Encoding: 98 98 65
Width: 615
GlyphClass: 2
Flags: W
LayerCount: 2
Fore
SplineSet
339 -10 m 0,0,1
 276 -10 276 -10 236 13 c 128,-1,2
 196 36 196 36 173 68 c 1,3,-1
 166 68 l 1,4,-1
 148 0 l 1,5,-1
 85 0 l 1,6,-1
 85 760 l 1,7,-1
 173 760 l 1,8,-1
 173 575 l 2,9,10
 173 541 173 541 171.5 511.5 c 128,-1,11
 170 482 170 482 168 465 c 1,12,-1
 173 465 l 1,13,14
 196 499 196 499 236 522 c 128,-1,15
 276 545 276 545 339 545 c 0,16,17
 439 545 439 545 499.5 475.5 c 128,-1,18
 560 406 560 406 560 268 c 256,19,20
 560 130 560 130 499 60 c 128,-1,21
 438 -10 438 -10 339 -10 c 0,0,1
326 63 m 0,22,23
 398 63 398 63 433.5 116 c 128,-1,24
 469 169 469 169 469 269 c 0,25,26
 469 472 469 472 324 472 c 0,27,28
 239 472 239 472 206 423 c 128,-1,29
 173 374 173 374 173 271 c 2,30,-1
 173 267 l 2,31,32
 173 168 173 168 205.5 115.5 c 128,-1,33
 238 63 238 63 326 63 c 0,22,23
EndSplineSet
Validated: 1
EndChar

StartChar: c
Encoding: 99 99 66
Width: 480
GlyphClass: 2
Flags: W
LayerCount: 2
Fore
SplineSet
300 -10 m 4,0,1
 229 -10 229 -10 173.5 19 c 132,-1,2
 118 48 118 48 86.5 109 c 132,-1,3
 55 170 55 170 55 265 c 4,4,5
 55 364 55 364 88 426 c 132,-1,6
 121 488 121 488 177.5 517 c 132,-1,7
 234 546 234 546 306 546 c 4,8,9
 347 546 347 546 385 537.5 c 132,-1,10
 423 529 423 529 447 517 c 5,11,-1
 420 444 l 5,12,13
 396 453 396 453 364 461 c 132,-1,14
 332 469 332 469 304 469 c 4,15,16
 146 469 146 469 146 266 c 4,17,18
 146 169 146 169 184.5 117.5 c 132,-1,19
 223 66 223 66 299 66 c 4,20,21
 343 66 343 66 376.5 75 c 132,-1,22
 410 84 410 84 438 97 c 5,23,-1
 438 19 l 5,24,25
 411 5 411 5 378.5 -2.5 c 132,-1,26
 346 -10 346 -10 300 -10 c 4,0,1
EndSplineSet
Validated: 1
EndChar

StartChar: d
Encoding: 100 100 67
Width: 615
GlyphClass: 2
Flags: W
LayerCount: 2
Fore
SplineSet
275 -10 m 4,0,1
 175 -10 175 -10 115 59.5 c 132,-1,2
 55 129 55 129 55 267 c 260,3,4
 55 405 55 405 115.5 475.5 c 132,-1,5
 176 546 176 546 276 546 c 4,6,7
 338 546 338 546 377.5 523 c 132,-1,8
 417 500 417 500 442 467 c 5,9,-1
 448 467 l 5,10,11
 447 480 447 480 444.5 505.5 c 132,-1,12
 442 531 442 531 442 546 c 6,13,-1
 442 760 l 5,14,-1
 530 760 l 5,15,-1
 530 0 l 5,16,-1
 459 0 l 5,17,-1
 446 72 l 5,18,-1
 442 72 l 5,19,20
 418 38 418 38 378 14 c 132,-1,21
 338 -10 338 -10 275 -10 c 4,0,1
289 63 m 4,22,23
 374 63 374 63 408.5 109.5 c 132,-1,24
 443 156 443 156 443 250 c 6,25,-1
 443 266 l 6,26,27
 443 366 443 366 410 419.5 c 132,-1,28
 377 473 377 473 288 473 c 4,29,30
 217 473 217 473 181.5 416.5 c 132,-1,31
 146 360 146 360 146 265 c 4,32,33
 146 169 146 169 181.5 116 c 132,-1,34
 217 63 217 63 289 63 c 4,22,23
EndSplineSet
Validated: 1
EndChar

StartChar: e
Encoding: 101 101 68
Width: 564
GlyphClass: 2
Flags: W
LayerCount: 2
Fore
SplineSet
313 -10 m 4,0,1
 237 -10 237 -10 178.5 21 c 132,-1,2
 120 52 120 52 87.5 113.5 c 132,-1,3
 55 175 55 175 55 264 c 4,4,5
 55 352 55 352 84.5 415 c 132,-1,6
 114 478 114 478 167.5 512 c 132,-1,7
 221 546 221 546 292 546 c 4,8,9
 361 546 361 546 410.5 516 c 132,-1,10
 460 486 460 486 486.5 431.5 c 132,-1,11
 513 377 513 377 513 304 c 6,12,-1
 513 251 l 5,13,-1
 146 251 l 5,14,15
 148 160 148 160 192.5 112.5 c 132,-1,16
 237 65 237 65 317 65 c 4,17,18
 368 65 368 65 407.5 74.5 c 132,-1,19
 447 84 447 84 489 102 c 5,20,-1
 489 25 l 5,21,22
 448 7 448 7 408 -1.5 c 132,-1,23
 368 -10 368 -10 313 -10 c 4,0,1
148 321 m 5,24,-1
 421 321 l 5,25,26
 421 389 421 389 389.5 431.5 c 132,-1,27
 358 474 358 474 291 474 c 4,28,29
 228 474 228 474 191.5 433.5 c 132,-1,30
 155 393 155 393 148 321 c 5,24,-1
EndSplineSet
Validated: 1
EndChar

StartChar: f
Encoding: 102 102 69
Width: 344
GlyphClass: 2
Flags: W
LayerCount: 2
Fore
SplineSet
109 0 m 1,0,-1
 109 468 l 1,1,-1
 15 468 l 1,2,-1
 15 509 l 1,3,-1
 109 539 l 1,4,-1
 109 570 l 2,5,6
 109 674 109 674 155 719.5 c 128,-1,7
 201 765 201 765 283 765 c 0,8,9
 315 765 315 765 341.5 759.5 c 128,-1,10
 368 754 368 754 387 747 c 1,11,-1
 364 678 l 1,12,13
 348 683 348 683 327 688 c 128,-1,14
 306 693 306 693 284 693 c 0,15,16
 240 693 240 693 218.5 663.5 c 128,-1,17
 197 634 197 634 197 571 c 2,18,-1
 197 536 l 1,19,-1
 332 536 l 1,20,-1
 332 468 l 1,21,-1
 197 468 l 1,22,-1
 197 0 l 1,23,-1
 109 0 l 1,0,-1
EndSplineSet
Validated: 1
EndChar

StartChar: g
Encoding: 103 103 70
Width: 615
GlyphClass: 2
Flags: W
LayerCount: 2
Fore
SplineSet
290 -240 m 4,0,1
 172 -240 172 -240 97 -206 c 5,2,-1
 97 -125 l 5,3,4
 176 -167 176 -167 295 -167 c 4,5,6
 364 -167 364 -167 403.5 -126.5 c 132,-1,7
 443 -86 443 -86 443 -16 c 6,8,-1
 443 5 l 6,9,10
 443 17 443 17 444 39.5 c 132,-1,11
 445 62 445 62 446 71 c 5,12,-1
 442 71 l 5,13,14
 388 -10 388 -10 276 -10 c 4,15,16
 172 -10 172 -10 113.5 63 c 132,-1,17
 55 136 55 136 55 267 c 4,18,19
 55 395 55 395 113.5 470.5 c 132,-1,20
 172 546 172 546 275 546 c 4,21,22
 328 546 328 546 370.5 526 c 132,-1,23
 413 506 413 506 443 465 c 5,24,-1
 448 465 l 5,25,-1
 460 536 l 5,26,-1
 530 536 l 5,27,-1
 530 -9 l 6,28,29
 530 -124 530 -124 471.5 -182 c 132,-1,30
 413 -240 413 -240 290 -240 c 4,0,1
289 62 m 4,31,32
 370 62 370 62 407 105.5 c 132,-1,33
 444 149 444 149 444 246 c 6,34,-1
 444 267 l 6,35,36
 444 377 444 377 406 424.5 c 132,-1,37
 368 472 368 472 287 472 c 4,38,39
 220 472 220 472 183 418.5 c 132,-1,40
 146 365 146 365 146 266 c 260,41,42
 146 167 146 167 182.5 114.5 c 132,-1,43
 219 62 219 62 289 62 c 4,31,32
EndSplineSet
Validated: 1
EndChar

StartChar: h
Encoding: 104 104 71
Width: 618
GlyphClass: 2
Flags: W
LayerCount: 2
Fore
SplineSet
85 0 m 5,0,-1
 85 760 l 5,1,-1
 173 760 l 5,2,-1
 173 537 l 6,3,4
 173 497 173 497 168 462 c 5,5,-1
 174 462 l 5,6,7
 200 503 200 503 244.5 524 c 132,-1,8
 289 545 289 545 341 545 c 4,9,10
 439 545 439 545 488 498.5 c 132,-1,11
 537 452 537 452 537 349 c 6,12,-1
 537 0 l 5,13,-1
 450 0 l 5,14,-1
 450 343 l 6,15,16
 450 472 450 472 330 472 c 4,17,18
 240 472 240 472 206.5 421.5 c 132,-1,19
 173 371 173 371 173 277 c 6,20,-1
 173 0 l 5,21,-1
 85 0 l 5,0,-1
EndSplineSet
Validated: 1
EndChar

StartChar: i
Encoding: 105 105 72
Width: 258
GlyphClass: 2
Flags: W
LayerCount: 2
Fore
SplineSet
130 625 m 4,0,1
 108 625 108 625 93 639 c 132,-1,2
 78 653 78 653 78 681 c 4,3,4
 78 710 78 710 93 723.5 c 132,-1,5
 108 737 108 737 130 737 c 4,6,7
 150 737 150 737 165.5 723.5 c 132,-1,8
 181 710 181 710 181 681 c 4,9,10
 181 653 181 653 165.5 639 c 132,-1,11
 150 625 150 625 130 625 c 4,0,1
85 0 m 5,12,-1
 85 536 l 5,13,-1
 173 536 l 5,14,-1
 173 0 l 5,15,-1
 85 0 l 5,12,-1
EndSplineSet
Validated: 1
EndChar

StartChar: j
Encoding: 106 106 73
Width: 258
GlyphClass: 2
Flags: W
LayerCount: 2
Fore
SplineSet
130 625 m 4,0,1
 108 625 108 625 93 639 c 132,-1,2
 78 653 78 653 78 681 c 4,3,4
 78 710 78 710 93 723.5 c 132,-1,5
 108 737 108 737 130 737 c 4,6,7
 150 737 150 737 165.5 723.5 c 132,-1,8
 181 710 181 710 181 681 c 4,9,10
 181 653 181 653 165.5 639 c 132,-1,11
 150 625 150 625 130 625 c 4,0,1
22 -240 m 4,12,13
 -3 -240 -3 -240 -22 -236.5 c 132,-1,14
 -41 -233 -41 -233 -55 -228 c 5,15,-1
 -55 -157 l 5,16,17
 -40 -161 -40 -161 -24 -164 c 132,-1,18
 -8 -167 -8 -167 11 -167 c 4,19,20
 43 -167 43 -167 64 -149.5 c 132,-1,21
 85 -132 85 -132 85 -83 c 6,22,-1
 85 536 l 5,23,-1
 173 536 l 5,24,-1
 173 -80 l 6,25,26
 173 -155 173 -155 137 -197.5 c 132,-1,27
 101 -240 101 -240 22 -240 c 4,12,13
EndSplineSet
Validated: 1
EndChar

StartChar: k
Encoding: 107 107 74
Width: 534
GlyphClass: 2
Flags: W
LayerCount: 2
Fore
SplineSet
85 0 m 5,0,-1
 85 760 l 5,1,-1
 172 760 l 5,2,-1
 172 363 l 6,3,4
 172 347 172 347 171 321 c 132,-1,5
 170 295 170 295 168 276 c 5,6,-1
 172 276 l 5,7,8
 178 284 178 284 190 299 c 132,-1,9
 202 314 202 314 214.5 329.5 c 132,-1,10
 227 345 227 345 236 355 c 6,11,-1
 407 536 l 5,12,-1
 510 536 l 5,13,-1
 293 307 l 5,14,-1
 525 0 l 5,15,-1
 419 0 l 5,16,-1
 233 250 l 5,17,-1
 172 197 l 5,18,-1
 172 0 l 5,19,-1
 85 0 l 5,0,-1
EndSplineSet
Validated: 1
EndChar

StartChar: l
Encoding: 108 108 75
Width: 258
GlyphClass: 2
Flags: W
LayerCount: 2
Fore
SplineSet
85 0 m 5,0,-1
 85 760 l 5,1,-1
 173 760 l 5,2,-1
 173 0 l 5,3,-1
 85 0 l 5,0,-1
EndSplineSet
Validated: 1
EndChar

StartChar: m
Encoding: 109 109 76
Width: 935
GlyphClass: 2
Flags: W
LayerCount: 2
Fore
SplineSet
85 0 m 1,0,-1
 85 536 l 1,1,-1
 156 536 l 1,2,-1
 169 463 l 1,3,-1
 174 463 l 1,4,5
 199 505 199 505 241.5 525.5 c 128,-1,6
 284 546 284 546 332 546 c 0,7,8
 458 546 458 546 496 456 c 1,9,-1
 501 456 l 1,10,11
 528 502 528 502 574.5 524 c 128,-1,12
 621 546 621 546 673 546 c 0,13,14
 764 546 764 546 809 499.5 c 128,-1,15
 854 453 854 453 854 349 c 2,16,-1
 854 0 l 1,17,-1
 767 0 l 1,18,-1
 767 345 l 2,19,20
 767 472 767 472 658 472 c 0,21,22
 580 472 580 472 546.5 427 c 128,-1,23
 513 382 513 382 513 296 c 2,24,-1
 513 0 l 1,25,-1
 426 0 l 1,26,-1
 426 345 l 2,27,28
 426 472 426 472 316 472 c 0,29,30
 235 472 235 472 204 422 c 128,-1,31
 173 372 173 372 173 278 c 2,32,-1
 173 0 l 1,33,-1
 85 0 l 1,0,-1
EndSplineSet
Validated: 1
EndChar

StartChar: n
Encoding: 110 110 77
Width: 618
GlyphClass: 2
Flags: W
LayerCount: 2
Fore
SplineSet
85 0 m 5,0,-1
 85 536 l 5,1,-1
 156 536 l 5,2,-1
 169 463 l 5,3,-1
 174 463 l 5,4,5
 200 505 200 505 246 525.5 c 132,-1,6
 292 546 292 546 343 546 c 4,7,8
 439 546 439 546 488 499.5 c 132,-1,9
 537 453 537 453 537 349 c 6,10,-1
 537 0 l 5,11,-1
 450 0 l 5,12,-1
 450 343 l 6,13,14
 450 472 450 472 330 472 c 4,15,16
 241 472 241 472 207 422 c 132,-1,17
 173 372 173 372 173 278 c 6,18,-1
 173 0 l 5,19,-1
 85 0 l 5,0,-1
EndSplineSet
Validated: 1
EndChar

StartChar: o
Encoding: 111 111 78
Width: 605
GlyphClass: 2
Flags: W
LayerCount: 2
Fore
SplineSet
301 -10 m 4,0,1
 230 -10 230 -10 174.5 22.5 c 132,-1,2
 119 55 119 55 87 117.5 c 132,-1,3
 55 180 55 180 55 269 c 4,4,5
 55 402 55 402 122 474 c 132,-1,6
 189 546 189 546 304 546 c 4,7,8
 377 546 377 546 432.5 513.5 c 132,-1,9
 488 481 488 481 519.5 419.5 c 132,-1,10
 551 358 551 358 551 269 c 4,11,12
 551 136 551 136 483.5 63 c 132,-1,13
 416 -10 416 -10 301 -10 c 4,0,1
303 63 m 4,14,15
 384 63 384 63 422 118.5 c 132,-1,16
 460 174 460 174 460 269 c 260,17,18
 460 364 460 364 422 418 c 132,-1,19
 384 472 384 472 302 472 c 260,20,21
 220 472 220 472 183 418 c 132,-1,22
 146 364 146 364 146 269 c 260,23,24
 146 174 146 174 183.5 118.5 c 132,-1,25
 221 63 221 63 303 63 c 4,14,15
EndSplineSet
Validated: 1
EndChar

StartChar: p
Encoding: 112 112 79
Width: 615
GlyphClass: 2
Flags: W
LayerCount: 2
Fore
SplineSet
85 -240 m 1,0,-1
 85 536 l 1,1,-1
 157 536 l 1,2,-1
 169 463 l 1,3,-1
 173 463 l 1,4,5
 197 498 197 498 236 522 c 128,-1,6
 275 546 275 546 340 546 c 0,7,8
 439 546 439 546 499.5 477 c 128,-1,9
 560 408 560 408 560 269 c 0,10,11
 560 132 560 132 499.5 61 c 128,-1,12
 439 -10 439 -10 339 -10 c 0,13,14
 277 -10 277 -10 236.5 13.5 c 128,-1,15
 196 37 196 37 173 68 c 1,16,-1
 167 68 l 1,17,18
 169 51 169 51 171 25 c 128,-1,19
 173 -1 173 -1 173 -20 c 2,20,-1
 173 -240 l 1,21,-1
 85 -240 l 1,0,-1
326 63 m 0,22,23
 375 63 375 63 406.5 90 c 128,-1,24
 438 117 438 117 453.5 163.5 c 128,-1,25
 469 210 469 210 469 270 c 0,26,27
 469 362 469 362 433.5 417 c 128,-1,28
 398 472 398 472 324 472 c 0,29,30
 242 472 242 472 208.5 426 c 128,-1,31
 175 380 175 380 173 286 c 2,32,-1
 173 269 l 2,33,34
 173 170 173 170 205.5 116.5 c 128,-1,35
 238 63 238 63 326 63 c 0,22,23
EndSplineSet
Validated: 1
EndChar

StartChar: q
Encoding: 113 113 80
Width: 615
GlyphClass: 2
Flags: W
LayerCount: 2
Fore
SplineSet
442 -240 m 1,0,-1
 442 -11 l 2,1,2
 442 7 442 7 443 31 c 128,-1,3
 444 55 444 55 447 72 c 1,4,-1
 441 72 l 1,5,6
 418 38 418 38 377.5 14 c 128,-1,7
 337 -10 337 -10 273 -10 c 0,8,9
 176 -10 176 -10 115.5 59.5 c 128,-1,10
 55 129 55 129 55 267 c 256,11,12
 55 405 55 405 116.5 475.5 c 128,-1,13
 178 546 178 546 276 546 c 0,14,15
 339 546 339 546 379 522 c 128,-1,16
 419 498 419 498 443 463 c 1,17,-1
 447 463 l 1,18,-1
 460 536 l 1,19,-1
 530 536 l 1,20,-1
 530 -240 l 1,21,-1
 442 -240 l 1,0,-1
290 63 m 0,22,23
 373 63 373 63 407.5 108.5 c 128,-1,24
 442 154 442 154 443 248 c 2,25,-1
 443 266 l 2,26,27
 443 368 443 368 409 420.5 c 128,-1,28
 375 473 375 473 288 473 c 0,29,30
 216 473 216 473 181 416.5 c 128,-1,31
 146 360 146 360 146 265 c 256,32,33
 146 170 146 170 181.5 116.5 c 128,-1,34
 217 63 217 63 290 63 c 0,22,23
EndSplineSet
Validated: 1
EndChar

StartChar: r
Encoding: 114 114 81
Width: 413
GlyphClass: 2
Flags: W
LayerCount: 2
Fore
SplineSet
85 0 m 5,0,-1
 85 536 l 5,1,-1
 157 536 l 5,2,-1
 167 438 l 5,3,-1
 171 438 l 5,4,5
 197 482 197 482 238 514 c 132,-1,6
 279 546 279 546 335 546 c 4,7,8
 350 546 350 546 367.5 544.5 c 132,-1,9
 385 543 385 543 398 540 c 5,10,-1
 387 459 l 5,11,12
 374 462 374 462 358.5 464 c 132,-1,13
 343 466 343 466 329 466 c 4,14,15
 288 466 288 466 252 443.5 c 132,-1,16
 216 421 216 421 194.5 380.5 c 132,-1,17
 173 340 173 340 173 286 c 6,18,-1
 173 0 l 5,19,-1
 85 0 l 5,0,-1
EndSplineSet
Validated: 1
EndChar

StartChar: s
Encoding: 115 115 82
Width: 479
GlyphClass: 2
Flags: W
LayerCount: 2
Fore
SplineSet
220 -10 m 4,0,1
 164 -10 164 -10 123.5 -1 c 132,-1,2
 83 8 83 8 52 24 c 5,3,-1
 52 104 l 5,4,5
 84 88 84 88 129.5 74.5 c 132,-1,6
 175 61 175 61 222 61 c 4,7,8
 289 61 289 61 319 82.5 c 132,-1,9
 349 104 349 104 349 140 c 4,10,11
 349 160 349 160 338 176 c 132,-1,12
 327 192 327 192 298.5 208 c 132,-1,13
 270 224 270 224 217 244 c 4,14,15
 165 264 165 264 128 284 c 132,-1,16
 91 304 91 304 71 332 c 132,-1,17
 51 360 51 360 51 404 c 4,18,19
 51 472 51 472 106.5 509 c 132,-1,20
 162 546 162 546 252 546 c 4,21,22
 301 546 301 546 343.5 536.5 c 132,-1,23
 386 527 386 527 423 510 c 5,24,-1
 393 440 l 5,25,26
 359 454 359 454 322 464 c 132,-1,27
 285 474 285 474 246 474 c 4,28,29
 192 474 192 474 163.5 456.5 c 132,-1,30
 135 439 135 439 135 409 c 4,31,32
 135 387 135 387 148 371.5 c 132,-1,33
 161 356 161 356 191.5 341.5 c 132,-1,34
 222 327 222 327 273 307 c 4,35,36
 324 288 324 288 360 267.5 c 132,-1,37
 396 247 396 247 415 219 c 132,-1,38
 434 191 434 191 434 148 c 4,39,40
 434 70 434 70 376 30 c 132,-1,41
 318 -10 318 -10 220 -10 c 4,0,1
EndSplineSet
Validated: 1
EndChar

StartChar: t
Encoding: 116 116 83
Width: 361
GlyphClass: 2
Flags: W
LayerCount: 2
Fore
SplineSet
249 -10 m 4,0,1
 207 -10 207 -10 171.5 4.5 c 132,-1,2
 136 19 136 19 114 55 c 132,-1,3
 92 91 92 91 92 156 c 6,4,-1
 92 468 l 5,5,-1
 16 468 l 5,6,-1
 16 510 l 5,7,-1
 93 545 l 5,8,-1
 128 659 l 5,9,-1
 180 659 l 5,10,-1
 180 536 l 5,11,-1
 335 536 l 5,12,-1
 335 468 l 5,13,-1
 180 468 l 5,14,-1
 180 158 l 6,15,16
 180 109 180 109 203.5 85.5 c 132,-1,17
 227 62 227 62 264 62 c 4,18,19
 284 62 284 62 305 65.5 c 132,-1,20
 326 69 326 69 339 73 c 5,21,-1
 339 6 l 5,22,23
 325 -1 325 -1 299 -5.5 c 132,-1,24
 273 -10 273 -10 249 -10 c 4,0,1
EndSplineSet
Validated: 1
EndChar

StartChar: u
Encoding: 117 117 84
Width: 618
GlyphClass: 2
Flags: W
LayerCount: 2
Fore
SplineSet
274 -10 m 4,0,1
 177 -10 177 -10 128 36.5 c 132,-1,2
 79 83 79 83 79 185 c 6,3,-1
 79 536 l 5,4,-1
 168 536 l 5,5,-1
 168 191 l 6,6,7
 168 63 168 63 287 63 c 4,8,9
 376 63 376 63 410.5 113 c 132,-1,10
 445 163 445 163 445 257 c 6,11,-1
 445 536 l 5,12,-1
 533 536 l 5,13,-1
 533 0 l 5,14,-1
 461 0 l 5,15,-1
 448 71 l 5,16,-1
 444 71 l 5,17,18
 418 29 418 29 372 9.5 c 132,-1,19
 326 -10 326 -10 274 -10 c 4,0,1
EndSplineSet
Validated: 1
EndChar

StartChar: v
Encoding: 118 118 85
Width: 508
GlyphClass: 2
Flags: W
LayerCount: 2
Fore
SplineSet
203 0 m 1,0,-1
 0 536 l 1,1,-1
 94 536 l 1,2,-1
 208 220 l 2,3,4
 216 198 216 198 225 171 c 128,-1,5
 234 144 234 144 241 119.5 c 128,-1,6
 248 95 248 95 251 78 c 1,7,-1
 255 78 l 1,8,9
 259 95 259 95 266.5 120 c 128,-1,10
 274 145 274 145 283.5 172 c 128,-1,11
 293 199 293 199 300 220 c 2,12,-1
 414 536 l 1,13,-1
 508 536 l 1,14,-1
 304 0 l 1,15,-1
 203 0 l 1,0,-1
EndSplineSet
Validated: 1
EndChar

StartChar: w
Encoding: 119 119 86
Width: 786
GlyphClass: 2
Flags: W
LayerCount: 2
Fore
SplineSet
158 1 m 5,0,-1
 11 537 l 5,1,-1
 102 537 l 5,2,-1
 176 251 l 6,3,4
 187 208 187 208 197 164 c 132,-1,5
 207 120 207 120 211 91 c 5,6,-1
 215 91 l 5,7,8
 219 108 219 108 224.5 133 c 132,-1,9
 230 158 230 158 237 185.5 c 132,-1,10
 244 213 244 213 251 235 c 6,11,-1
 346 537 l 5,12,-1
 442 537 l 5,13,-1
 534 235 l 6,14,15
 545 201 545 201 555.5 161 c 132,-1,16
 566 121 566 121 570 92 c 5,17,-1
 574 92 l 5,18,19
 577 117 577 117 587.5 161 c 132,-1,20
 598 205 598 205 610 251 c 6,21,-1
 685 537 l 5,22,-1
 775 537 l 5,23,-1
 626 1 l 5,24,-1
 523 1 l 5,25,-1
 431 303 l 6,26,27
 418 344 418 344 408.5 383.5 c 132,-1,28
 399 423 399 423 394 445 c 5,29,-1
 390 445 l 5,30,31
 386 423 386 423 377 383.5 c 132,-1,32
 368 344 368 344 354 302 c 6,33,-1
 258 1 l 5,34,-1
 158 1 l 5,0,-1
EndSplineSet
Validated: 1
EndChar

StartChar: x
Encoding: 120 120 87
Width: 529
GlyphClass: 2
Flags: W
LayerCount: 2
Fore
SplineSet
18 0 m 1,0,-1
 212 274 l 1,1,-1
 27 536 l 1,2,-1
 127 536 l 1,3,-1
 265 334 l 1,4,-1
 402 536 l 1,5,-1
 501 536 l 1,6,-1
 316 274 l 1,7,-1
 511 0 l 1,8,-1
 411 0 l 1,9,-1
 265 214 l 1,10,-1
 117 0 l 1,11,-1
 18 0 l 1,0,-1
EndSplineSet
Validated: 1
EndChar

StartChar: y
Encoding: 121 121 88
Width: 510
GlyphClass: 2
Flags: W
LayerCount: 2
Fore
SplineSet
84 -240 m 4,0,1
 60 -240 60 -240 42 -237.5 c 132,-1,2
 24 -235 24 -235 11 -232 c 5,3,-1
 11 -162 l 5,4,5
 22 -164 22 -164 37.5 -166 c 132,-1,6
 53 -168 53 -168 70 -168 c 4,7,8
 116 -168 116 -168 144 -142 c 132,-1,9
 172 -116 172 -116 189 -73 c 6,10,-1
 217 -2 l 5,11,-1
 1 536 l 5,12,-1
 95 536 l 5,13,-1
 211 231 l 6,14,15
 226 191 226 191 238 154.5 c 132,-1,16
 250 118 250 118 256 85 c 5,17,-1
 260 85 l 5,18,19
 266 110 266 110 278.5 150.5 c 132,-1,20
 291 191 291 191 306 232 c 6,21,-1
 415 536 l 5,22,-1
 510 536 l 5,23,-1
 279 -74 l 6,24,25
 251 -150 251 -150 206.5 -195 c 132,-1,26
 162 -240 162 -240 84 -240 c 4,0,1
EndSplineSet
Validated: 1
EndChar

StartChar: z
Encoding: 122 122 89
Width: 470
GlyphClass: 2
Flags: W
LayerCount: 2
Fore
SplineSet
39 0 m 5,0,-1
 39 58 l 5,1,-1
 327 468 l 5,2,-1
 56 468 l 5,3,-1
 56 536 l 5,4,-1
 424 536 l 5,5,-1
 424 470 l 5,6,-1
 140 68 l 5,7,-1
 431 68 l 5,8,-1
 431 0 l 5,9,-1
 39 0 l 5,0,-1
EndSplineSet
Validated: 1
EndChar

StartChar: Gamma
Encoding: 915 915 92
Width: 524
GlyphClass: 2
Flags: W
LayerCount: 2
Fore
SplineSet
97 0 m 1,0,-1
 97 714 l 1,1,-1
 500 714 l 1,2,-1
 500 634 l 1,3,-1
 187 634 l 1,4,-1
 187 0 l 1,5,-1
 97 0 l 1,0,-1
EndSplineSet
Validated: 1
EndChar

StartChar: Theta
Encoding: 920 920 96
Width: 781
GlyphClass: 2
Flags: W
LayerCount: 2
Fore
SplineSet
391 -10 m 0,0,1
 280 -10 280 -10 206.5 36 c 128,-1,2
 133 82 133 82 97 165 c 128,-1,3
 61 248 61 248 61 359 c 0,4,5
 61 469 61 469 97 551 c 128,-1,6
 133 633 133 633 206.5 679 c 128,-1,7
 280 725 280 725 392 725 c 0,8,9
 499 725 499 725 572 679.5 c 128,-1,10
 645 634 645 634 682.5 551.5 c 128,-1,11
 720 469 720 469 720 358 c 256,12,13
 720 247 720 247 682.5 164.5 c 128,-1,14
 645 82 645 82 572 36 c 128,-1,15
 499 -10 499 -10 391 -10 c 0,0,1
391 68 m 0,16,17
 513 68 513 68 569 145.5 c 128,-1,18
 625 223 625 223 625 358 c 256,19,20
 625 493 625 493 569 569.5 c 128,-1,21
 513 646 513 646 392 646 c 256,22,23
 271 646 271 646 213.5 569.5 c 128,-1,24
 156 493 156 493 156 358 c 256,25,26
 156 223 156 223 213 145.5 c 128,-1,27
 270 68 270 68 391 68 c 0,16,17
239 324 m 1,28,-1
 239 402 l 1,29,-1
 541 402 l 1,30,-1
 541 324 l 1,31,-1
 239 324 l 1,28,-1
EndSplineSet
Validated: 1
EndChar

StartChar: Lambda
Encoding: 923 923 99
Width: 608
GlyphClass: 2
Flags: W
LayerCount: 2
Fore
SplineSet
0 0 m 1,0,-1
 256 714 l 1,1,-1
 350 714 l 1,2,-1
 607 0 l 1,3,-1
 512 0 l 1,4,-1
 354 450 l 2,5,6
 338 497 338 497 324.5 538.5 c 128,-1,7
 311 580 311 580 302 616 c 1,8,9
 295 580 295 580 281.5 538 c 128,-1,10
 268 496 268 496 252 451 c 2,11,-1
 95 0 l 1,12,-1
 0 0 l 1,0,-1
EndSplineSet
Validated: 1
EndChar

StartChar: Xi
Encoding: 926 926 102
Width: 555
GlyphClass: 2
Flags: W
LayerCount: 2
Fore
SplineSet
55 635 m 1,0,-1
 55 714 l 1,1,-1
 499 714 l 1,2,-1
 499 635 l 1,3,-1
 55 635 l 1,0,-1
95 334 m 1,4,-1
 95 412 l 1,5,-1
 459 412 l 1,6,-1
 459 334 l 1,7,-1
 95 334 l 1,4,-1
35 0 m 1,8,-1
 35 79 l 1,9,-1
 519 79 l 1,10,-1
 519 0 l 1,11,-1
 35 0 l 1,8,-1
EndSplineSet
Validated: 1
EndChar

StartChar: Pi
Encoding: 928 928 104
Width: 731
GlyphClass: 2
Flags: W
LayerCount: 2
Fore
SplineSet
97 0 m 1,0,-1
 97 714 l 1,1,-1
 633 714 l 1,2,-1
 633 0 l 1,3,-1
 544 0 l 1,4,-1
 544 635 l 1,5,-1
 187 635 l 1,6,-1
 187 0 l 1,7,-1
 97 0 l 1,0,-1
EndSplineSet
Validated: 1
EndChar

StartChar: Sigma
Encoding: 931 931 106
Width: 570
GlyphClass: 2
Flags: W
LayerCount: 2
Fore
SplineSet
36 0 m 1,0,-1
 36 74 l 1,1,-1
 270 373 l 1,2,-1
 42 639 l 1,3,-1
 42 714 l 1,4,-1
 517 714 l 1,5,-1
 517 634 l 1,6,-1
 262 634 l 2,7,8
 248 634 248 634 224 634 c 128,-1,9
 200 634 200 634 178 634.5 c 128,-1,10
 156 635 156 635 145 635 c 1,11,-1
 370 374 l 1,12,-1
 135 78 l 1,13,14
 173 79 173 79 210.5 79 c 128,-1,15
 248 79 248 79 288 79 c 2,16,-1
 546 79 l 1,17,-1
 546 0 l 1,18,-1
 36 0 l 1,0,-1
EndSplineSet
Validated: 1
EndChar

StartChar: Phi
Encoding: 934 934 109
Width: 804
GlyphClass: 2
Flags: W
LayerCount: 2
Fore
SplineSet
357 -10 m 1,0,-1
 357 100 l 1,1,2
 266 102 266 102 206.5 126.5 c 128,-1,3
 147 151 147 151 113 190.5 c 128,-1,4
 79 230 79 230 65 277 c 128,-1,5
 51 324 51 324 51 370 c 0,6,7
 51 441 51 441 79.5 500.5 c 128,-1,8
 108 560 108 560 175 597 c 128,-1,9
 242 634 242 634 357 636 c 1,10,-1
 357 724 l 1,11,-1
 446 724 l 1,12,-1
 446 636 l 1,13,14
 562 634 562 634 629 598 c 128,-1,15
 696 562 696 562 724 502.5 c 128,-1,16
 752 443 752 443 752 370 c 0,17,18
 752 322 752 322 737.5 274.5 c 128,-1,19
 723 227 723 227 688 188.5 c 128,-1,20
 653 150 653 150 594 126 c 128,-1,21
 535 102 535 102 446 100 c 1,22,-1
 446 -10 l 1,23,-1
 357 -10 l 1,0,-1
357 174 m 1,24,-1
 357 560 l 1,25,26
 277 558 277 558 229.5 534 c 128,-1,27
 182 510 182 510 162 468.5 c 128,-1,28
 142 427 142 427 142 371 c 0,29,30
 142 283 142 283 193.5 230.5 c 128,-1,31
 245 178 245 178 357 174 c 1,24,-1
446 174 m 1,32,33
 562 178 562 178 611.5 231.5 c 128,-1,34
 661 285 661 285 661 371 c 0,35,36
 661 428 661 428 641 469.5 c 128,-1,37
 621 511 621 511 574 534.5 c 128,-1,38
 527 558 527 558 446 560 c 1,39,-1
 446 174 l 1,32,33
EndSplineSet
Validated: 1
EndChar

StartChar: Psi
Encoding: 936 936 111
Width: 804
GlyphClass: 2
Flags: W
LayerCount: 2
Fore
SplineSet
357 0 m 1,0,-1
 357 217 l 1,1,2
 267 217 267 217 207.5 239 c 128,-1,3
 148 261 148 261 114.5 298 c 128,-1,4
 81 335 81 335 67 382 c 128,-1,5
 53 429 53 429 53 478 c 2,6,-1
 53 714 l 1,7,-1
 143 714 l 1,8,-1
 143 480 l 2,9,10
 143 387 143 387 194 340.5 c 128,-1,11
 245 294 245 294 357 294 c 1,12,-1
 357 714 l 1,13,-1
 445 714 l 1,14,-1
 445 294 l 1,15,16
 559 294 559 294 609 340.5 c 128,-1,17
 659 387 659 387 659 478 c 2,18,-1
 659 714 l 1,19,-1
 751 714 l 1,20,-1
 751 479 l 2,21,22
 751 428 751 428 736.5 381 c 128,-1,23
 722 334 722 334 688 297 c 128,-1,24
 654 260 654 260 594.5 238.5 c 128,-1,25
 535 217 535 217 445 217 c 1,26,-1
 445 0 l 1,27,-1
 357 0 l 1,0,-1
EndSplineSet
Validated: 1
EndChar

StartChar: alpha
Encoding: 945 945 112
Width: 615
GlyphClass: 2
Flags: W
LayerCount: 2
Fore
SplineSet
275 -10 m 0,0,1
 177 -10 177 -10 116 59.5 c 128,-1,2
 55 129 55 129 55 266 c 0,3,4
 55 402 55 402 115 474 c 128,-1,5
 175 546 175 546 283 546 c 0,6,7
 342 546 342 546 381.5 525.5 c 128,-1,8
 421 505 421 505 447 464 c 1,9,-1
 453 464 l 1,10,11
 458 481 458 481 466 501 c 128,-1,12
 474 521 474 521 485 536 c 1,13,-1
 554 536 l 1,14,15
 547 514 547 514 541 478 c 128,-1,16
 535 442 535 442 532 402 c 128,-1,17
 529 362 529 362 529 326 c 2,18,-1
 529 118 l 2,19,20
 529 87 529 87 541 74.5 c 128,-1,21
 553 62 553 62 570 62 c 0,22,23
 578 62 578 62 587 64 c 128,-1,24
 596 66 596 66 600 67 c 1,25,-1
 600 3 l 1,26,27
 593 -1 593 -1 577 -5.5 c 128,-1,28
 561 -10 561 -10 544 -10 c 0,29,30
 507 -10 507 -10 483.5 8 c 128,-1,31
 460 26 460 26 449 72 c 1,32,-1
 442 72 l 1,33,34
 419 38 419 38 381 14 c 128,-1,35
 343 -10 343 -10 275 -10 c 0,0,1
290 63 m 0,36,37
 373 63 373 63 407.5 110.5 c 128,-1,38
 442 158 442 158 442 261 c 2,39,-1
 442 267 l 2,40,41
 442 367 442 367 409.5 419.5 c 128,-1,42
 377 472 377 472 289 472 c 0,43,44
 216 472 216 472 181 419 c 128,-1,45
 146 366 146 366 146 265 c 0,46,47
 146 165 146 165 180.5 114 c 128,-1,48
 215 63 215 63 290 63 c 0,36,37
EndSplineSet
Validated: 1
EndChar

StartChar: beta
Encoding: 946 946 113
Width: 631
GlyphClass: 2
Flags: W
LayerCount: 2
Fore
SplineSet
85 -240 m 1,0,-1
 85 535 l 2,1,2
 85 616 85 616 116 666.5 c 128,-1,3
 147 717 147 717 201 741 c 128,-1,4
 255 765 255 765 324 765 c 0,5,6
 391 765 391 765 443 743.5 c 128,-1,7
 495 722 495 722 524.5 680 c 128,-1,8
 554 638 554 638 554 574 c 0,9,10
 554 502 554 502 515 460 c 128,-1,11
 476 418 476 418 402 406 c 1,12,-1
 402 402 l 1,13,14
 493 392 493 392 539.5 343 c 128,-1,15
 586 294 586 294 586 203 c 0,16,17
 586 100 586 100 521.5 45 c 128,-1,18
 457 -10 457 -10 342 -10 c 0,19,20
 284 -10 284 -10 244.5 -1 c 128,-1,21
 205 8 205 8 173 24 c 1,22,-1
 173 -240 l 1,23,-1
 85 -240 l 1,0,-1
334 62 m 0,24,25
 420 62 420 62 459 100.5 c 128,-1,26
 498 139 498 139 498 209 c 0,27,28
 498 288 498 288 450 324.5 c 128,-1,29
 402 361 402 361 324 361 c 2,30,-1
 271 361 l 1,31,-1
 271 435 l 1,32,-1
 314 435 l 2,33,34
 392 435 392 435 428 472 c 128,-1,35
 464 509 464 509 464 570 c 0,36,37
 464 632 464 632 425.5 662 c 128,-1,38
 387 692 387 692 322 692 c 0,39,40
 282 692 282 692 248 678 c 128,-1,41
 214 664 214 664 193.5 629 c 128,-1,42
 173 594 173 594 173 531 c 2,43,-1
 173 103 l 1,44,45
 208 85 208 85 245.5 73.5 c 128,-1,46
 283 62 283 62 334 62 c 0,24,25
EndSplineSet
Validated: 1
EndChar

StartChar: gamma
Encoding: 947 947 114
Width: 518
GlyphClass: 2
Flags: W
LayerCount: 2
Fore
SplineSet
171 -240 m 1,0,1
 171 -212 171 -212 177.5 -170 c 128,-1,2
 184 -128 184 -128 195.5 -81.5 c 128,-1,3
 207 -35 207 -35 222 6 c 1,4,-1
 5 536 l 1,5,-1
 96 536 l 1,6,-1
 209 255 l 2,7,8
 220 229 220 229 231 197 c 128,-1,9
 242 165 242 165 251 136 c 128,-1,10
 260 107 260 107 263 89 c 1,11,-1
 267 89 l 1,12,13
 270 105 270 105 278.5 135 c 128,-1,14
 287 165 287 165 297.5 197 c 128,-1,15
 308 229 308 229 316 251 c 2,16,-1
 422 536 l 1,17,-1
 513 536 l 1,18,-1
 315 13 l 2,19,20
 300 -27 300 -27 289 -73 c 128,-1,21
 278 -119 278 -119 272 -162.5 c 128,-1,22
 266 -206 266 -206 266 -240 c 1,23,-1
 171 -240 l 1,0,1
EndSplineSet
Validated: 1
EndChar

StartChar: delta
Encoding: 948 948 115
Width: 604
GlyphClass: 2
Flags: W
LayerCount: 2
Fore
SplineSet
300 -10 m 0,0,1
 229 -10 229 -10 173 16 c 128,-1,2
 117 42 117 42 85.5 92.5 c 128,-1,3
 54 143 54 143 54 214 c 0,4,5
 54 278 54 278 81.5 326 c 128,-1,6
 109 374 109 374 156.5 406.5 c 128,-1,7
 204 439 204 439 263 456 c 1,8,9
 207 488 207 488 173 526.5 c 128,-1,10
 139 565 139 565 139 620 c 0,11,12
 139 689 139 689 190.5 724.5 c 128,-1,13
 242 760 242 760 319 760 c 0,14,15
 388 760 388 760 437 743 c 128,-1,16
 486 726 486 726 525 706 c 1,17,-1
 487 637 l 1,18,19
 450 658 450 658 408 673 c 128,-1,20
 366 688 366 688 315 688 c 0,21,22
 270 688 270 688 249 667.5 c 128,-1,23
 228 647 228 647 228 619 c 0,24,25
 228 595 228 595 241 576 c 128,-1,26
 254 557 254 557 283.5 536.5 c 128,-1,27
 313 516 313 516 362 489 c 0,28,29
 453 440 453 440 501.5 381.5 c 128,-1,30
 550 323 550 323 550 236 c 0,31,32
 550 116 550 116 481.5 53 c 128,-1,33
 413 -10 413 -10 300 -10 c 0,0,1
300 63 m 0,34,35
 377 63 377 63 418 107.5 c 128,-1,36
 459 152 459 152 459 235 c 0,37,38
 459 303 459 303 425.5 345 c 128,-1,39
 392 387 392 387 333 418 c 1,40,41
 302 411 302 411 269.5 396.5 c 128,-1,42
 237 382 237 382 209 358.5 c 128,-1,43
 181 335 181 335 163.5 299.5 c 128,-1,44
 146 264 146 264 146 213 c 0,45,46
 146 147 146 147 186.5 105 c 128,-1,47
 227 63 227 63 300 63 c 0,34,35
EndSplineSet
Validated: 1
EndChar

StartChar: epsilon
Encoding: 949 949 116
Width: 483
GlyphClass: 2
Flags: W
LayerCount: 2
Fore
SplineSet
268 -10 m 0,0,1
 153 -10 153 -10 98 34.5 c 128,-1,2
 43 79 43 79 43 146 c 0,3,4
 43 186 43 186 59.5 211.5 c 128,-1,5
 76 237 76 237 103 252.5 c 128,-1,6
 130 268 130 268 162 277 c 1,7,-1
 162 282 l 1,8,9
 117 296 117 296 89.5 325.5 c 128,-1,10
 62 355 62 355 62 404 c 0,11,12
 62 472 62 472 119.5 509 c 128,-1,13
 177 546 177 546 268 546 c 0,14,15
 326 546 326 546 367.5 536 c 128,-1,16
 409 526 409 526 449 508 c 1,17,-1
 416 438 l 1,18,19
 383 453 383 453 348.5 463 c 128,-1,20
 314 473 314 473 267 473 c 0,21,22
 146 473 146 473 146 397 c 0,23,24
 146 353 146 353 187.5 334 c 128,-1,25
 229 315 229 315 299 315 c 2,26,-1
 355 315 l 1,27,-1
 355 243 l 1,28,-1
 282 243 l 2,29,30
 131 243 131 243 131 151 c 0,31,32
 131 102 131 102 172 82 c 128,-1,33
 213 62 213 62 273 62 c 0,34,35
 329 62 329 62 371.5 75 c 128,-1,36
 414 88 414 88 447 104 c 1,37,-1
 447 27 l 1,38,39
 416 11 416 11 373 0.5 c 128,-1,40
 330 -10 330 -10 268 -10 c 0,0,1
EndSplineSet
Validated: 1
EndChar

StartChar: zeta
Encoding: 950 950 117
Width: 484
GlyphClass: 2
Flags: W
LayerCount: 2
Fore
SplineSet
307 -195 m 1,0,1
 331 -163 331 -163 350 -126.5 c 128,-1,2
 369 -90 369 -90 369 -63 c 0,3,4
 369 -49 369 -49 361 -37 c 128,-1,5
 353 -25 353 -25 327.5 -14.5 c 128,-1,6
 302 -4 302 -4 248 5 c 0,7,8
 153 22 153 22 104 73.5 c 128,-1,9
 55 125 55 125 55 224 c 0,10,11
 55 299 55 299 79 361.5 c 128,-1,12
 103 424 103 424 144.5 479 c 128,-1,13
 186 534 186 534 240 586 c 128,-1,14
 294 638 294 638 353 691 c 1,15,16
 349 691 349 691 326.5 690 c 128,-1,17
 304 689 304 689 271.5 688 c 128,-1,18
 239 687 239 687 205 687 c 2,19,-1
 85 687 l 1,20,-1
 85 760 l 1,21,-1
 457 760 l 1,22,-1
 457 694 l 1,23,24
 354 607 354 607 291.5 538.5 c 128,-1,25
 229 470 229 470 198 415 c 128,-1,26
 167 360 167 360 156.5 315 c 128,-1,27
 146 270 146 270 146 230 c 0,28,29
 146 173 146 173 166 143.5 c 128,-1,30
 186 114 186 114 224 99.5 c 128,-1,31
 262 85 262 85 316 74 c 0,32,33
 393 58 393 58 425 30.5 c 128,-1,34
 457 3 457 3 457 -40 c 0,35,36
 457 -84 457 -84 437.5 -123.5 c 128,-1,37
 418 -163 418 -163 394 -195 c 1,38,-1
 307 -195 l 1,0,1
EndSplineSet
Validated: 1
EndChar

StartChar: eta
Encoding: 951 951 118
Width: 618
GlyphClass: 2
Flags: W
LayerCount: 2
Fore
SplineSet
450 -240 m 1,0,-1
 450 343 l 2,1,2
 450 407 450 407 421 439.5 c 128,-1,3
 392 472 392 472 330 472 c 0,4,5
 242 472 242 472 207.5 422 c 128,-1,6
 173 372 173 372 173 278 c 2,7,-1
 173 0 l 1,8,-1
 85 0 l 1,9,-1
 85 536 l 1,10,-1
 156 536 l 1,11,-1
 169 463 l 1,12,-1
 174 463 l 1,13,14
 200 505 200 505 246 525.5 c 128,-1,15
 292 546 292 546 343 546 c 0,16,17
 439 546 439 546 488 499.5 c 128,-1,18
 537 453 537 453 537 349 c 2,19,-1
 537 -240 l 1,20,-1
 450 -240 l 1,0,-1
EndSplineSet
Validated: 1
EndChar

StartChar: theta
Encoding: 952 952 119
Width: 595
GlyphClass: 2
Flags: W
LayerCount: 2
Fore
SplineSet
296 -10 m 0,0,1
 172 -10 172 -10 113.5 93 c 128,-1,2
 55 196 55 196 55 377 c 0,3,4
 55 499 55 499 79 586 c 128,-1,5
 103 673 103 673 156.5 719 c 128,-1,6
 210 765 210 765 296 765 c 0,7,8
 421 765 421 765 480.5 663.5 c 128,-1,9
 540 562 540 562 540 377 c 0,10,11
 540 256 540 256 515.5 169.5 c 128,-1,12
 491 83 491 83 437.5 36.5 c 128,-1,13
 384 -10 384 -10 296 -10 c 0,0,1
144 424 m 1,14,-1
 450 424 l 1,15,16
 445 558 445 558 409 625.5 c 128,-1,17
 373 693 373 693 296 693 c 0,18,19
 220 693 220 693 184.5 625.5 c 128,-1,20
 149 558 149 558 144 424 c 1,14,-1
296 62 m 0,21,22
 374 62 374 62 411 134 c 128,-1,23
 448 206 448 206 451 351 c 1,24,-1
 144 351 l 1,25,26
 146 208 146 208 181.5 135 c 128,-1,27
 217 62 217 62 296 62 c 0,21,22
EndSplineSet
Validated: 1
EndChar

StartChar: iota
Encoding: 953 953 120
Width: 346
GlyphClass: 2
Flags: W
LayerCount: 2
Fore
SplineSet
234 -10 m 4,0,1
 190 -10 190 -10 155.5 4.5 c 132,-1,2
 121 19 121 19 101.5 55.5 c 132,-1,3
 82 92 82 92 82 157 c 6,4,-1
 82 536 l 5,5,-1
 169 536 l 5,6,-1
 169 158 l 6,7,8
 169 110 169 110 187.5 86 c 132,-1,9
 206 62 206 62 246 62 c 4,10,11
 268 62 268 62 291.5 65.5 c 132,-1,12
 315 69 315 69 328 73 c 5,13,-1
 328 6 l 5,14,15
 314 -1 314 -1 287 -5.5 c 132,-1,16
 260 -10 260 -10 234 -10 c 4,0,1
EndSplineSet
Validated: 1
EndChar

StartChar: kappa
Encoding: 954 954 121
Width: 534
GlyphClass: 2
Flags: W
LayerCount: 2
Fore
SplineSet
85 0 m 1,0,-1
 85 536 l 1,1,-1
 178 536 l 1,2,-1
 178 397 l 2,3,4
 178 357 178 357 176 319 c 128,-1,5
 174 281 174 281 172 261 c 1,6,-1
 174 261 l 1,7,8
 183 274 183 274 193.5 287.5 c 128,-1,9
 204 301 204 301 213 312 c 2,10,-1
 403 536 l 1,11,-1
 509 536 l 1,12,-1
 306 299 l 1,13,-1
 525 0 l 1,14,-1
 420 0 l 1,15,-1
 244 242 l 1,16,-1
 178 188 l 1,17,-1
 178 0 l 1,18,-1
 85 0 l 1,0,-1
EndSplineSet
Validated: 1
EndChar

StartChar: lambda
Encoding: 955 955 122
Width: 542
GlyphClass: 2
Flags: W
LayerCount: 2
Fore
SplineSet
485 -10 m 0,0,1
 448 -10 448 -10 426.5 8.5 c 128,-1,2
 405 27 405 27 389 71 c 2,3,-1
 316 276 l 2,4,5
 308 300 308 300 297.5 329.5 c 128,-1,6
 287 359 287 359 278.5 387.5 c 128,-1,7
 270 416 270 416 266 435 c 1,8,-1
 262 435 l 1,9,10
 253 400 253 400 238.5 360 c 128,-1,11
 224 320 224 320 207 281 c 2,12,-1
 85 0 l 1,13,-1
 -6 0 l 1,14,-1
 225 526 l 1,15,-1
 198 601 l 2,16,17
 182 644 182 644 163 668.5 c 128,-1,18
 144 693 144 693 101 693 c 0,19,20
 83 693 83 693 69.5 691 c 128,-1,21
 56 689 56 689 45 687 c 1,22,-1
 45 758 l 1,23,24
 59 761 59 761 76 763.5 c 128,-1,25
 93 766 93 766 111 766 c 0,26,27
 163 766 163 766 194.5 748 c 128,-1,28
 226 730 226 730 247.5 693 c 128,-1,29
 269 656 269 656 289 598 c 2,30,-1
 462 116 l 2,31,32
 481 62 481 62 512 62 c 0,33,34
 520 62 520 62 528.5 64 c 128,-1,35
 537 66 537 66 542 67 c 1,36,-1
 542 2 l 1,37,38
 531 -3 531 -3 516.5 -6.5 c 128,-1,39
 502 -10 502 -10 485 -10 c 0,0,1
EndSplineSet
Validated: 1
EndChar

StartChar: uni03BC
Encoding: 956 956 123
Width: 623
GlyphClass: 2
Flags: W
LayerCount: 2
Fore
SplineSet
85 -240 m 1,0,-1
 85 536 l 1,1,-1
 173 536 l 1,2,-1
 173 190 l 2,3,4
 173 63 173 63 293 63 c 0,5,6
 382 63 382 63 416 113 c 128,-1,7
 450 163 450 163 450 257 c 2,8,-1
 450 536 l 1,9,-1
 538 536 l 1,10,-1
 538 0 l 1,11,-1
 467 0 l 1,12,-1
 453 72 l 1,13,-1
 448 72 l 1,14,15
 423 32 423 32 383 11 c 128,-1,16
 343 -10 343 -10 287 -10 c 0,17,18
 248 -10 248 -10 220 2.5 c 128,-1,19
 192 15 192 15 172 35 c 1,20,-1
 168 35 l 1,21,22
 170 17 170 17 171.5 -13 c 128,-1,23
 173 -43 173 -43 173 -84 c 2,24,-1
 173 -240 l 1,25,-1
 85 -240 l 1,0,-1
EndSplineSet
Validated: 1
EndChar

StartChar: nu
Encoding: 957 957 124
Width: 547
GlyphClass: 2
Flags: W
LayerCount: 2
Fore
SplineSet
200 0 m 1,0,-1
 0 536 l 1,1,-1
 91 536 l 1,2,-1
 198 247 l 2,3,4
 207 223 207 223 218.5 190 c 128,-1,5
 230 157 230 157 240.5 125.5 c 128,-1,6
 251 94 251 94 256 74 c 1,7,-1
 260 74 l 1,8,9
 322 137 322 137 356.5 206.5 c 128,-1,10
 391 276 391 276 405 357.5 c 128,-1,11
 419 439 419 439 419 536 c 1,12,-1
 506 536 l 1,13,14
 506 431 506 431 487.5 340.5 c 128,-1,15
 469 250 469 250 423.5 166.5 c 128,-1,16
 378 83 378 83 295 0 c 1,17,-1
 200 0 l 1,0,-1
EndSplineSet
Validated: 1
EndChar

StartChar: xi
Encoding: 958 958 125
Width: 477
GlyphClass: 2
Flags: W
LayerCount: 2
Fore
SplineSet
314 -195 m 1,0,1
 337 -163 337 -163 355 -126.5 c 128,-1,2
 373 -90 373 -90 373 -62 c 0,3,4
 373 -48 373 -48 365 -36.5 c 128,-1,5
 357 -25 357 -25 331 -14.5 c 128,-1,6
 305 -4 305 -4 251 5 c 0,7,8
 154 22 154 22 104 71 c 128,-1,9
 54 120 54 120 54 206 c 0,10,11
 54 256 54 256 73.5 294.5 c 128,-1,12
 93 333 93 333 125 358.5 c 128,-1,13
 157 384 157 384 194 395 c 1,14,-1
 194 401 l 1,15,16
 145 415 145 415 116.5 447.5 c 128,-1,17
 88 480 88 480 88 537 c 0,18,19
 88 584 88 584 108.5 614.5 c 128,-1,20
 129 645 129 645 162.5 663.5 c 128,-1,21
 196 682 196 682 236 693 c 1,22,23
 217 691 217 691 183 689 c 128,-1,24
 149 687 149 687 115 687 c 2,25,-1
 85 687 l 1,26,-1
 85 760 l 1,27,-1
 431 760 l 1,28,-1
 431 692 l 1,29,-1
 405 692 l 2,30,31
 348 692 348 692 294.5 675 c 128,-1,32
 241 658 241 658 207 624 c 128,-1,33
 173 590 173 590 173 539 c 256,34,35
 173 488 173 488 210 460.5 c 128,-1,36
 247 433 247 433 336 433 c 2,37,-1
 419 433 l 1,38,-1
 419 366 l 1,39,-1
 333 366 l 2,40,41
 242 366 242 366 194 322 c 128,-1,42
 146 278 146 278 146 213 c 0,43,44
 146 162 146 162 167 136 c 128,-1,45
 188 110 188 110 227.5 97 c 128,-1,46
 267 84 267 84 320 73 c 0,47,48
 397 57 397 57 427 29 c 128,-1,49
 457 1 457 1 457 -40 c 0,50,51
 457 -84 457 -84 438 -123.5 c 128,-1,52
 419 -163 419 -163 397 -195 c 1,53,-1
 314 -195 l 1,0,1
EndSplineSet
Validated: 1
EndChar

StartChar: pi
Encoding: 960 960 127
Width: 659
GlyphClass: 2
Flags: W
LayerCount: 2
Fore
SplineSet
546 -10 m 0,0,1
 435 -10 435 -10 435 118 c 2,2,-1
 435 463 l 1,3,-1
 208 463 l 1,4,-1
 208 0 l 1,5,-1
 121 0 l 1,6,-1
 121 463 l 1,7,-1
 12 463 l 1,8,-1
 12 501 l 1,9,-1
 84 536 l 1,10,-1
 627 536 l 1,11,-1
 627 463 l 1,12,-1
 522 463 l 1,13,-1
 522 124 l 2,14,15
 522 89 522 89 535 75.5 c 128,-1,16
 548 62 548 62 568 62 c 0,17,18
 582 62 582 62 593.5 65 c 128,-1,19
 605 68 605 68 612 72 c 1,20,-1
 612 3 l 1,21,22
 604 -1 604 -1 586.5 -5.5 c 128,-1,23
 569 -10 569 -10 546 -10 c 0,0,1
EndSplineSet
Validated: 1
EndChar

StartChar: rho
Encoding: 961 961 128
Width: 605
GlyphClass: 2
Flags: W
LayerCount: 2
Fore
SplineSet
79 -240 m 1,0,-1
 79 275 l 2,1,2
 79 412 79 412 144 479 c 128,-1,3
 209 546 209 546 318 546 c 0,4,5
 386 546 386 546 438.5 514 c 128,-1,6
 491 482 491 482 520.5 420 c 128,-1,7
 550 358 550 358 550 268 c 0,8,9
 550 132 550 132 486.5 61 c 128,-1,10
 423 -10 423 -10 313 -10 c 0,11,12
 273 -10 273 -10 235 1.5 c 128,-1,13
 197 13 197 13 168 35 c 1,14,-1
 163 35 l 1,15,16
 165 19 165 19 166.5 -17 c 128,-1,17
 168 -53 168 -53 168 -98 c 2,18,-1
 168 -240 l 1,19,-1
 79 -240 l 1,0,-1
312 63 m 0,20,21
 391 63 391 63 425.5 115 c 128,-1,22
 460 167 460 167 460 268 c 0,23,24
 460 371 460 371 425.5 421.5 c 128,-1,25
 391 472 391 472 314 472 c 0,26,27
 168 472 168 472 168 274 c 2,28,-1
 168 112 l 1,29,30
 197 87 197 87 234.5 75 c 128,-1,31
 272 63 272 63 312 63 c 0,20,21
EndSplineSet
Validated: 1
EndChar

StartChar: uni03C2
Encoding: 962 962 129
Width: 484
GlyphClass: 2
Flags: W
LayerCount: 2
Fore
SplineSet
314 -195 m 1,0,1
 337 -163 337 -163 355.5 -126.5 c 128,-1,2
 374 -90 374 -90 374 -62 c 0,3,4
 374 -48 374 -48 366 -36.5 c 128,-1,5
 358 -25 358 -25 332 -14.5 c 128,-1,6
 306 -4 306 -4 252 6 c 0,7,8
 197 17 197 17 152.5 43 c 128,-1,9
 108 69 108 69 81.5 119.5 c 128,-1,10
 55 170 55 170 55 253 c 0,11,12
 55 354 55 354 88 419 c 128,-1,13
 121 484 121 484 179 515 c 128,-1,14
 237 546 237 546 313 546 c 0,15,16
 353 546 353 546 391.5 537.5 c 128,-1,17
 430 529 430 529 458 517 c 1,18,-1
 430 444 l 1,19,20
 404 454 404 454 373 461.5 c 128,-1,21
 342 469 342 469 309 469 c 0,22,23
 222 469 222 469 184 414 c 128,-1,24
 146 359 146 359 146 254 c 0,25,26
 146 195 146 195 160 161 c 128,-1,27
 174 127 174 127 211.5 108 c 128,-1,28
 249 89 249 89 319 74 c 0,29,30
 396 58 396 58 426.5 29.5 c 128,-1,31
 457 1 457 1 457 -40 c 0,32,33
 457 -84 457 -84 438 -124.5 c 128,-1,34
 419 -165 419 -165 397 -195 c 1,35,-1
 314 -195 l 1,0,1
EndSplineSet
Validated: 1
EndChar

StartChar: sigma
Encoding: 963 963 130
Width: 617
GlyphClass: 2
Flags: W
LayerCount: 2
Fore
SplineSet
301 -10 m 0,0,1
 190 -10 190 -10 122.5 58 c 128,-1,2
 55 126 55 126 55 256 c 0,3,4
 55 357 55 357 90.5 418.5 c 128,-1,5
 126 480 126 480 191.5 508 c 128,-1,6
 257 536 257 536 346 536 c 2,7,-1
 593 536 l 1,8,-1
 593 463 l 1,9,-1
 463 463 l 1,10,11
 502 426 502 426 526 372 c 128,-1,12
 550 318 550 318 550 246 c 256,13,14
 550 174 550 174 522 116 c 128,-1,15
 494 58 494 58 438.5 24 c 128,-1,16
 383 -10 383 -10 301 -10 c 0,0,1
303 63 m 256,17,18
 386 63 386 63 423 114 c 128,-1,19
 460 165 460 165 460 244 c 0,20,21
 460 309 460 309 438.5 364.5 c 128,-1,22
 417 420 417 420 377 463 c 1,23,-1
 346 463 l 2,24,25
 246 463 246 463 196 416 c 128,-1,26
 146 369 146 369 146 256 c 0,27,28
 146 171 146 171 183 117 c 128,-1,29
 220 63 220 63 303 63 c 256,17,18
EndSplineSet
Validated: 1
EndChar

StartChar: tau
Encoding: 964 964 131
Width: 479
GlyphClass: 2
Flags: W
LayerCount: 2
Fore
SplineSet
326 -11 m 0,0,1
 280 -11 280 -11 241 2.5 c 128,-1,2
 202 16 202 16 178 52 c 128,-1,3
 154 88 154 88 154 155 c 2,4,-1
 154 462 l 1,5,-1
 10 462 l 1,6,-1
 10 501 l 1,7,-1
 83 536 l 1,8,-1
 452 536 l 1,9,-1
 452 462 l 1,10,-1
 243 462 l 1,11,-1
 243 164 l 2,12,13
 243 106 243 106 269.5 83 c 128,-1,14
 296 60 296 60 339 60 c 0,15,16
 361 60 361 60 384.5 63.5 c 128,-1,17
 408 67 408 67 424 71 c 1,18,-1
 424 5 l 1,19,20
 410 -1 410 -1 382.5 -6 c 128,-1,21
 355 -11 355 -11 326 -11 c 0,0,1
EndSplineSet
Validated: 1
EndChar

StartChar: upsilon
Encoding: 965 965 132
Width: 613
GlyphClass: 2
Flags: W
LayerCount: 2
Fore
SplineSet
307 -10 m 0,0,1
 218 -10 218 -10 168.5 23.5 c 128,-1,2
 119 57 119 57 99 114.5 c 128,-1,3
 79 172 79 172 79 243 c 2,4,-1
 79 536 l 1,5,-1
 167 536 l 1,6,-1
 167 246 l 2,7,8
 167 161 167 161 202 111.5 c 128,-1,9
 237 62 237 62 314 62 c 0,10,11
 394 62 394 62 432 119 c 128,-1,12
 470 176 470 176 470 296 c 0,13,14
 470 366 470 366 462 421 c 128,-1,15
 454 476 454 476 439 536 c 1,16,-1
 527 536 l 1,17,18
 543 477 543 477 551 421.5 c 128,-1,19
 559 366 559 366 559 292 c 0,20,21
 559 137 559 137 495.5 63.5 c 128,-1,22
 432 -10 432 -10 307 -10 c 0,0,1
EndSplineSet
Validated: 1
EndChar

StartChar: phi
Encoding: 966 966 133
Width: 725
GlyphClass: 2
Flags: W
LayerCount: 2
Fore
SplineSet
314 -240 m 1,0,-1
 314 -9 l 1,1,2
 240 -5 240 -5 181.5 24 c 128,-1,3
 123 53 123 53 89 113 c 128,-1,4
 55 173 55 173 55 271 c 0,5,6
 55 352 55 352 84 419.5 c 128,-1,7
 113 487 113 487 157 541 c 1,8,-1
 225 494 l 1,9,10
 188 445 188 445 165.5 391.5 c 128,-1,11
 143 338 143 338 143 268 c 0,12,13
 143 195 143 195 166.5 151.5 c 128,-1,14
 190 108 190 108 229 88 c 128,-1,15
 268 68 268 68 314 63 c 1,16,-1
 314 361 l 2,17,18
 314 452 314 452 356.5 499 c 128,-1,19
 399 546 399 546 472 546 c 0,20,21
 534 546 534 546 578 512.5 c 128,-1,22
 622 479 622 479 646 419.5 c 128,-1,23
 670 360 670 360 670 281 c 0,24,25
 670 184 670 184 632.5 121.5 c 128,-1,26
 595 59 595 59 533.5 27 c 128,-1,27
 472 -5 472 -5 400 -9 c 1,28,-1
 400 -240 l 1,29,-1
 314 -240 l 1,0,-1
400 63 m 1,30,31
 451 68 451 68 492 92.5 c 128,-1,32
 533 117 533 117 557 163.5 c 128,-1,33
 581 210 581 210 581 280 c 0,34,35
 581 374 581 374 550.5 423.5 c 128,-1,36
 520 473 520 473 473 473 c 0,37,38
 444 473 444 473 422 449 c 128,-1,39
 400 425 400 425 400 362 c 2,40,-1
 400 63 l 1,30,31
EndSplineSet
Validated: 1
EndChar

StartChar: chi
Encoding: 967 967 134
Width: 551
GlyphClass: 2
Flags: W
LayerCount: 2
Fore
SplineSet
-11 -240 m 1,0,-1
 217 170 l 1,1,-1
 135 383 l 2,2,3
 120 423 120 423 103.5 445.5 c 128,-1,4
 87 468 87 468 61 468 c 0,5,6
 42 468 42 468 28 462 c 1,7,-1
 28 531 l 1,8,9
 39 534 39 534 54 536.5 c 128,-1,10
 69 539 69 539 90 539 c 0,11,12
 140 539 140 539 163.5 507.5 c 128,-1,13
 187 476 187 476 210 417 c 2,14,-1
 278 245 l 1,15,-1
 431 536 l 1,16,-1
 525 536 l 1,17,-1
 315 160 l 1,18,-1
 408 -76 l 2,19,20
 426 -122 426 -122 444.5 -145 c 128,-1,21
 463 -168 463 -168 500 -168 c 0,22,23
 513 -168 513 -168 524.5 -166.5 c 128,-1,24
 536 -165 536 -165 545 -164 c 1,25,-1
 545 -232 l 1,26,27
 534 -235 534 -235 519 -237.5 c 128,-1,28
 504 -240 504 -240 483 -240 c 0,29,30
 438 -240 438 -240 409.5 -223.5 c 128,-1,31
 381 -207 381 -207 362.5 -176.5 c 128,-1,32
 344 -146 344 -146 328 -104 c 2,33,-1
 257 82 l 1,34,-1
 83 -240 l 1,35,-1
 -11 -240 l 1,0,-1
EndSplineSet
Validated: 1
EndChar

StartChar: psi
Encoding: 968 968 135
Width: 761
GlyphClass: 2
Flags: W
LayerCount: 2
Fore
SplineSet
340 -240 m 1,0,-1
 340 -9 l 1,1,2
 264 -6 264 -6 205 22 c 128,-1,3
 146 50 146 50 112.5 110.5 c 128,-1,4
 79 171 79 171 79 270 c 2,5,-1
 79 536 l 1,6,-1
 166 536 l 1,7,-1
 166 267 l 2,8,9
 166 192 166 192 190 149 c 128,-1,10
 214 106 214 106 254 87 c 128,-1,11
 294 68 294 68 340 64 c 1,12,-1
 340 759 l 1,13,-1
 426 759 l 1,14,-1
 426 65 l 1,15,16
 511 73 511 73 562.5 123.5 c 128,-1,17
 614 174 614 174 614 280 c 0,18,19
 614 349 614 349 606 407.5 c 128,-1,20
 598 466 598 466 582 536 c 1,21,-1
 669 536 l 1,22,23
 685 469 685 469 692.5 409 c 128,-1,24
 700 349 700 349 700 283 c 0,25,26
 700 180 700 180 663 117.5 c 128,-1,27
 626 55 626 55 564 25.5 c 128,-1,28
 502 -4 502 -4 426 -9 c 1,29,-1
 426 -240 l 1,30,-1
 340 -240 l 1,0,-1
EndSplineSet
Validated: 1
EndChar

StartChar: omega
Encoding: 969 969 136
Width: 782
GlyphClass: 2
Flags: W
LayerCount: 2
Fore
SplineSet
247 -10 m 0,0,1
 185 -10 185 -10 142.5 24 c 128,-1,2
 100 58 100 58 78 119 c 128,-1,3
 56 180 56 180 56 260 c 0,4,5
 56 338 56 338 70 402 c 128,-1,6
 84 466 84 466 115 536 c 1,7,-1
 205 536 l 1,8,9
 174 466 174 466 159 402.5 c 128,-1,10
 144 339 144 339 144 259 c 0,11,12
 144 162 144 162 174 112.5 c 128,-1,13
 204 63 204 63 253 63 c 0,14,15
 303 63 303 63 326 100 c 128,-1,16
 349 137 349 137 349 193 c 2,17,-1
 349 344 l 1,18,-1
 433 344 l 1,19,-1
 433 193 l 2,20,21
 433 131 433 131 458 97 c 128,-1,22
 483 63 483 63 528 63 c 0,23,24
 578 63 578 63 608 112.5 c 128,-1,25
 638 162 638 162 638 259 c 0,26,27
 638 339 638 339 623.5 402.5 c 128,-1,28
 609 466 609 466 577 536 c 1,29,-1
 667 536 l 1,30,31
 698 466 698 466 712 402 c 128,-1,32
 726 338 726 338 726 260 c 0,33,34
 726 180 726 180 704 119 c 128,-1,35
 682 58 682 58 639.5 24 c 128,-1,36
 597 -10 597 -10 535 -10 c 0,37,38
 427 -10 427 -10 393 80 c 1,39,-1
 388 80 l 1,40,41
 356 -10 356 -10 247 -10 c 0,0,1
EndSplineSet
Validated: 1
EndChar

StartChar: uni03D1
Encoding: 977 977 137
Width: 623
Flags: W
LayerCount: 2
Fore
SplineSet
273 -10 m 0,0,1
 202 -10 202 -10 161.5 15.5 c 128,-1,2
 121 41 121 41 105 81.5 c 128,-1,3
 89 122 89 122 89 167 c 256,4,5
 89 212 89 212 97 255 c 0,6,7
 103 288 103 288 103 310 c 0,8,9
 103 333 103 333 94.5 341.5 c 128,-1,10
 86 350 86 350 70 350 c 0,11,12
 58 350 58 350 45.5 346 c 128,-1,13
 33 342 33 342 25 337 c 1,14,-1
 6 399 l 1,15,16
 24 407 24 407 48.5 413.5 c 128,-1,17
 73 420 73 420 99 420 c 0,18,19
 149 420 149 420 168.5 394 c 128,-1,20
 188 368 188 368 188 329 c 0,21,22
 188 312 188 312 186 292.5 c 128,-1,23
 184 273 184 273 181 252 c 0,24,25
 178 233 178 233 176 212 c 128,-1,26
 174 191 174 191 174 169 c 0,27,28
 174 127 174 127 197.5 94 c 128,-1,29
 221 61 221 61 276 61 c 0,30,31
 365 61 365 61 411 134.5 c 128,-1,32
 457 208 457 208 457 356 c 0,33,34
 457 367 457 367 456.5 381.5 c 128,-1,35
 456 396 456 396 455 406 c 1,36,37
 331 408 331 408 256 436 c 128,-1,38
 181 464 181 464 147.5 511 c 128,-1,39
 114 558 114 558 114 616 c 0,40,41
 114 679 114 679 155.5 722 c 128,-1,42
 197 765 197 765 288 765 c 0,43,44
 398 765 398 765 459 688 c 128,-1,45
 520 611 520 611 538 479 c 1,46,-1
 608 479 l 1,47,-1
 608 406 l 1,48,-1
 544 406 l 1,49,50
 545 395 545 395 545.5 381.5 c 128,-1,51
 546 368 546 368 546 353 c 0,52,53
 546 248 546 248 516.5 166 c 128,-1,54
 487 84 487 84 426.5 37 c 128,-1,55
 366 -10 366 -10 273 -10 c 0,0,1
449 479 m 1,56,57
 436 582 436 582 392 637.5 c 128,-1,58
 348 693 348 693 285 693 c 0,59,60
 242 693 242 693 220.5 671 c 128,-1,61
 199 649 199 649 199 611 c 0,62,63
 199 574 199 574 223 544.5 c 128,-1,64
 247 515 247 515 302 497.5 c 128,-1,65
 357 480 357 480 449 479 c 1,56,57
EndSplineSet
Validated: 1
EndChar

StartChar: uni03D6
Encoding: 982 982 139
Width: 856
Flags: W
LayerCount: 2
Fore
SplineSet
277 -10 m 0,0,1
 185 -10 185 -10 135.5 47.5 c 128,-1,2
 86 105 86 105 86 222 c 0,3,4
 86 281 86 281 103 343 c 128,-1,5
 120 405 120 405 148 463 c 1,6,-1
 11 463 l 1,7,-1
 11 501 l 1,8,-1
 81 536 l 1,9,-1
 825 536 l 1,10,-1
 825 463 l 1,11,-1
 702 463 l 1,12,13
 728 405 728 405 742.5 343 c 128,-1,14
 757 281 757 281 757 222 c 0,15,16
 757 105 757 105 707.5 47.5 c 128,-1,17
 658 -10 658 -10 565 -10 c 0,18,19
 457 -10 457 -10 423 80 c 1,20,-1
 419 80 l 1,21,22
 384 -10 384 -10 277 -10 c 0,0,1
283 63 m 0,23,24
 331 63 331 63 355 100 c 128,-1,25
 379 137 379 137 379 193 c 2,26,-1
 379 282 l 1,27,-1
 464 282 l 1,28,-1
 464 193 l 2,29,30
 464 131 464 131 490 97 c 128,-1,31
 516 63 516 63 560 63 c 0,32,33
 610 63 610 63 639 99 c 128,-1,34
 668 135 668 135 668 227 c 0,35,36
 668 286 668 286 654.5 347 c 128,-1,37
 641 408 641 408 616 463 c 1,38,-1
 234 463 l 1,39,40
 210 411 210 411 192 348.5 c 128,-1,41
 174 286 174 286 174 227 c 0,42,43
 174 134 174 134 203.5 98.5 c 128,-1,44
 233 63 233 63 283 63 c 0,23,24
EndSplineSet
Validated: 1
EndChar

StartChar: uni03F0
Encoding: 1008 1008 140
Width: 650
GlyphClass: 2
Flags: W
LayerCount: 2
Fore
SplineSet
576 -10 m 0,0,1
 501 -10 501 -10 460 46 c 128,-1,2
 419 102 419 102 419 220 c 0,3,4
 419 251 419 251 423 285 c 128,-1,5
 427 319 427 319 437 350 c 1,6,-1
 163 0 l 1,7,-1
 73 0 l 1,8,9
 91 37 91 37 108 87.5 c 128,-1,10
 125 138 125 138 135.5 197.5 c 128,-1,11
 146 257 146 257 146 320 c 0,12,13
 146 404 146 404 119.5 438.5 c 128,-1,14
 93 473 93 473 58 473 c 0,15,16
 45 473 45 473 35.5 470.5 c 128,-1,17
 26 468 26 468 19 465 c 1,18,-1
 -5 534 l 1,19,20
 9 539 9 539 27.5 542.5 c 128,-1,21
 46 546 46 546 71 546 c 0,22,23
 149 546 149 546 191.5 490.5 c 128,-1,24
 234 435 234 435 234 316 c 0,25,26
 234 285 234 285 230 251.5 c 128,-1,27
 226 218 226 218 216 186 c 1,28,-1
 493 536 l 1,29,-1
 581 536 l 1,30,31
 563 499 563 499 546 448.5 c 128,-1,32
 529 398 529 398 518 338.5 c 128,-1,33
 507 279 507 279 507 216 c 0,34,35
 507 128 507 128 531.5 95.5 c 128,-1,36
 556 63 556 63 596 63 c 0,37,38
 608 63 608 63 620.5 65.5 c 128,-1,39
 633 68 633 68 640 71 c 1,40,-1
 640 2 l 1,41,42
 627 -3 627 -3 611.5 -6.5 c 128,-1,43
 596 -10 596 -10 576 -10 c 0,0,1
EndSplineSet
Validated: 1
EndChar

StartChar: uni03F1
Encoding: 1009 1009 141
Width: 605
GlyphClass: 2
Flags: W
LayerCount: 2
Fore
SplineSet
370 -240 m 1,0,1
 374 -228 374 -228 374 -217 c 0,2,3
 374 -207 374 -207 368.5 -201.5 c 128,-1,4
 363 -196 363 -196 343.5 -193.5 c 128,-1,5
 324 -191 324 -191 283 -191 c 0,6,7
 204 -191 204 -191 153.5 -158 c 128,-1,8
 103 -125 103 -125 79 -44.5 c 128,-1,9
 55 36 55 36 55 178 c 0,10,11
 55 351 55 351 120 448.5 c 128,-1,12
 185 546 185 546 318 546 c 0,13,14
 386 546 386 546 438.5 514 c 128,-1,15
 491 482 491 482 520.5 420 c 128,-1,16
 550 358 550 358 550 268 c 0,17,18
 550 132 550 132 486.5 61 c 128,-1,19
 423 -10 423 -10 313 -10 c 0,20,21
 274 -10 274 -10 247.5 -3.5 c 128,-1,22
 221 3 221 3 199.5 16.5 c 128,-1,23
 178 30 178 30 154 52 c 1,24,-1
 149 52 l 1,25,26
 157 -18 157 -18 173.5 -55 c 128,-1,27
 190 -92 190 -92 220 -105 c 128,-1,28
 250 -118 250 -118 296 -118 c 0,29,30
 363 -118 363 -118 397.5 -125 c 128,-1,31
 432 -132 432 -132 444.5 -147.5 c 128,-1,32
 457 -163 457 -163 457 -191 c 0,33,34
 457 -205 457 -205 454.5 -215.5 c 128,-1,35
 452 -226 452 -226 447 -240 c 1,36,-1
 370 -240 l 1,0,1
312 63 m 0,37,38
 391 63 391 63 425.5 115 c 128,-1,39
 460 167 460 167 460 268 c 0,40,41
 460 371 460 371 425.5 422 c 128,-1,42
 391 473 391 473 314 473 c 0,43,44
 238 473 238 473 192 404.5 c 128,-1,45
 146 336 146 336 144 179 c 0,46,47
 144 163 144 163 144.5 152.5 c 128,-1,48
 145 142 145 142 146 125 c 1,49,50
 187 91 187 91 223.5 77 c 128,-1,51
 260 63 260 63 312 63 c 0,37,38
EndSplineSet
Validated: 1
EndChar

StartChar: uni2111
Encoding: 8465 8465 142
Width: 559
Flags: W
LayerCount: 2
Fore
SplineSet
51 498 m 1,0,-1
 32 506 l 1,1,2
 34 515 34 515 43.5 539.5 c 128,-1,3
 53 564 53 564 68.5 594.5 c 128,-1,4
 84 625 84 625 105 653.5 c 128,-1,5
 126 682 126 682 151.5 701 c 128,-1,6
 177 720 177 720 206 720 c 0,7,8
 230 720 230 720 258 710.5 c 128,-1,9
 286 701 286 701 314 687 c 0,10,11
 346 671 346 671 375.5 659 c 128,-1,12
 405 647 405 647 425 647 c 0,13,14
 443 647 443 647 464.5 659 c 128,-1,15
 486 671 486 671 504 684.5 c 128,-1,16
 522 698 522 698 527 703 c 1,17,-1
 540 685 l 1,18,19
 468 630 468 630 429 602.5 c 128,-1,20
 390 575 390 575 376 575 c 0,21,22
 365 575 365 575 341.5 584 c 128,-1,23
 318 593 318 593 289 605 c 0,24,25
 264 616 264 616 240 622 c 128,-1,26
 216 628 216 628 196 628 c 0,27,28
 160 628 160 628 130 605.5 c 128,-1,29
 100 583 100 583 79.5 552.5 c 128,-1,30
 59 522 59 522 51 498 c 1,0,-1
209 -8 m 0,31,32
 193 -8 193 -8 170 2.5 c 128,-1,33
 147 13 147 13 126.5 26.5 c 128,-1,34
 106 40 106 40 97 48 c 1,35,-1
 48 5 l 1,36,-1
 32 21 l 1,37,-1
 136 145 l 2,38,39
 140 150 140 150 145.5 155.5 c 128,-1,40
 151 161 151 161 153 162 c 0,41,42
 157 161 157 161 166 131 c 0,43,44
 170 119 170 119 181 99 c 128,-1,45
 192 79 192 79 211 63.5 c 128,-1,46
 230 48 230 48 256 48 c 0,47,48
 306 48 306 48 332 73.5 c 128,-1,49
 358 99 358 99 367 140.5 c 128,-1,50
 376 182 376 182 376 229 c 0,51,52
 376 262 376 262 373.5 296 c 128,-1,53
 371 330 371 330 366 362 c 0,54,55
 362 396 362 396 358.5 425 c 128,-1,56
 355 454 355 454 355 474 c 0,57,58
 355 485 355 485 373 504 c 128,-1,59
 391 523 391 523 416.5 544 c 128,-1,60
 442 565 442 565 466 582.5 c 128,-1,61
 490 600 490 600 502 608 c 1,62,-1
 514 591 l 1,63,64
 480 565 480 565 463 545.5 c 128,-1,65
 446 526 446 526 446 509 c 0,66,67
 446 499 446 499 450.5 462.5 c 128,-1,68
 455 426 455 426 461 382 c 0,69,70
 466 348 466 348 468.5 313.5 c 128,-1,71
 471 279 471 279 471 254 c 0,72,73
 471 216 471 216 460 182 c 128,-1,74
 449 148 449 148 420 115 c 128,-1,75
 391 82 391 82 337 45 c 0,76,77
 301 21 301 21 278 9.5 c 128,-1,78
 255 -2 255 -2 239.5 -5 c 128,-1,79
 224 -8 224 -8 209 -8 c 0,31,32
EndSplineSet
Validated: 1
EndChar

StartChar: uni211C
Encoding: 8476 8476 143
Width: 849
Flags: W
LayerCount: 2
Fore
SplineSet
200 -9 m 1,0,1
 194 -1 194 -1 180 12.5 c 128,-1,2
 166 26 166 26 150 37 c 128,-1,3
 134 48 134 48 119 48 c 0,4,5
 95 48 95 48 79 36 c 128,-1,6
 63 24 63 24 40 0 c 1,7,-1
 24 15 l 1,8,9
 46 43 46 43 72 70 c 128,-1,10
 98 97 98 97 122 115.5 c 128,-1,11
 146 134 146 134 162 134 c 0,12,13
 177 134 177 134 193 122 c 128,-1,14
 209 110 209 110 223 95 c 128,-1,15
 237 80 237 80 244 71 c 1,16,17
 267 85 267 85 289 104 c 0,18,19
 299 113 299 113 311 129.5 c 128,-1,20
 323 146 323 146 334 177 c 128,-1,21
 345 208 345 208 352 259 c 128,-1,22
 359 310 359 310 359 388 c 0,23,24
 359 463 359 463 342.5 514.5 c 128,-1,25
 326 566 326 566 300 598 c 128,-1,26
 274 630 274 630 245.5 644 c 128,-1,27
 217 658 217 658 193 658 c 0,28,29
 172 658 172 658 149.5 646 c 128,-1,30
 127 634 127 634 112 614 c 128,-1,31
 97 594 97 594 97 569 c 0,32,33
 97 553 97 553 108.5 534 c 128,-1,34
 120 515 120 515 138 497 c 0,35,36
 159 475 159 475 177 450.5 c 128,-1,37
 195 426 195 426 195 401 c 0,38,39
 195 384 195 384 181.5 364 c 128,-1,40
 168 344 168 344 148.5 324.5 c 128,-1,41
 129 305 129 305 110.5 289.5 c 128,-1,42
 92 274 92 274 81 266 c 1,43,-1
 65 284 l 1,44,45
 75 291 75 291 88 303 c 128,-1,46
 101 315 101 315 110.5 329.5 c 128,-1,47
 120 344 120 344 120 357 c 0,48,49
 120 381 120 381 105.5 400.5 c 128,-1,50
 91 420 91 420 73 438 c 256,51,52
 55 456 55 456 41 476 c 128,-1,53
 27 496 27 496 27 524 c 0,54,55
 27 544 27 544 40 567 c 128,-1,56
 53 590 53 590 69.5 610 c 128,-1,57
 86 630 86 630 96 641 c 0,58,59
 110 656 110 656 132.5 675.5 c 128,-1,60
 155 695 155 695 185.5 710 c 128,-1,61
 216 725 216 725 252 725 c 0,62,63
 293 725 293 725 329.5 703.5 c 128,-1,64
 366 682 366 682 392 647.5 c 128,-1,65
 418 613 418 613 429 572 c 1,66,67
 448 601 448 601 476 635.5 c 128,-1,68
 504 670 504 670 542 695 c 128,-1,69
 580 720 580 720 629 720 c 0,70,71
 664 720 664 720 683 707.5 c 128,-1,72
 702 695 702 695 710.5 676.5 c 128,-1,73
 719 658 719 658 721 639 c 128,-1,74
 723 620 723 620 723 606 c 2,75,-1
 723 576 l 2,76,77
 723 560 723 560 728.5 547.5 c 128,-1,78
 734 535 734 535 747 535 c 0,79,80
 758 535 758 535 775.5 540.5 c 128,-1,81
 793 546 793 546 803 550 c 1,82,-1
 812 526 l 1,83,84
 760 503 760 503 714.5 480 c 128,-1,85
 669 457 669 457 619 419 c 1,86,87
 636 418 636 418 658 410 c 128,-1,88
 680 402 680 402 696.5 392 c 128,-1,89
 713 382 713 382 713 373 c 0,90,91
 713 243 713 243 725.5 169.5 c 128,-1,92
 738 96 738 96 775 96 c 0,93,94
 790 96 790 96 806 106.5 c 128,-1,95
 822 117 822 117 829 124 c 1,96,-1
 843 107 l 1,97,-1
 701 -9 l 1,98,-1
 633 113 l 1,99,100
 635 121 635 121 638.5 149.5 c 128,-1,101
 642 178 642 178 642 221 c 0,102,103
 642 288 642 288 627 318 c 128,-1,104
 612 348 612 348 588.5 356 c 128,-1,105
 565 364 565 364 539 364 c 0,106,107
 502 364 502 364 472 357.5 c 128,-1,108
 442 351 442 351 436 349 c 1,109,110
 433 324 433 324 424.5 286 c 128,-1,111
 416 248 416 248 402.5 208 c 128,-1,112
 389 168 389 168 369 136 c 1,113,114
 345 112 345 112 314 84.5 c 128,-1,115
 283 57 283 57 253 32.5 c 128,-1,116
 223 8 223 8 200 -9 c 1,0,1
441 380 m 1,117,118
 455 388 455 388 485 400.5 c 128,-1,119
 515 413 515 413 558 423 c 1,120,-1
 695 492 l 1,121,122
 667 492 667 492 653 504 c 128,-1,123
 639 516 639 516 634.5 533.5 c 128,-1,124
 630 551 630 551 630 565 c 2,125,-1
 630 588 l 2,126,127
 630 617 630 617 619.5 638 c 128,-1,128
 609 659 609 659 580 659 c 0,129,130
 560 659 560 659 537 645.5 c 128,-1,131
 514 632 514 632 493 610 c 0,132,133
 473 589 473 589 459 562 c 0,134,135
 447 539 447 539 447 517 c 0,136,137
 447 514 447 514 447 514 c 0,138,139
 448 496 448 496 448 480 c 0,140,141
 447 451 447 451 446 434 c 0,142,143
 445 419 445 419 441 380 c 1,117,118
EndSplineSet
Validated: 1
EndChar

StartChar: uni212C
Encoding: 8492 8492 144
Width: 838
Flags: W
LayerCount: 2
Fore
SplineSet
153 -9 m 0,0,1
 102 -9 102 -9 72 6 c 128,-1,2
 42 21 42 21 27 44 c 128,-1,3
 12 67 12 67 7 92 c 128,-1,4
 2 117 2 117 2 137 c 0,5,6
 2 177 2 177 26.5 204.5 c 128,-1,7
 51 232 51 232 85 232 c 0,8,9
 121 232 121 232 134.5 212.5 c 128,-1,10
 148 193 148 193 148 178 c 0,11,12
 148 146 148 146 132 132 c 128,-1,13
 116 118 116 118 94 115 c 256,14,15
 72 112 72 112 55.5 110.5 c 128,-1,16
 39 109 39 109 39 86 c 0,17,18
 39 82 39 82 42 69.5 c 128,-1,19
 45 57 45 57 55 43 c 128,-1,20
 65 29 65 29 86.5 19 c 128,-1,21
 108 9 108 9 144 9 c 0,22,23
 206 9 206 9 251 49.5 c 128,-1,24
 296 90 296 90 334 160 c 128,-1,25
 372 230 372 230 412 317 c 0,26,27
 443 384 443 384 478.5 446.5 c 128,-1,28
 514 509 514 509 557 564 c 0,29,30
 571 581 571 581 592.5 605.5 c 128,-1,31
 614 630 614 630 633 647 c 0,32,33
 646 659 646 659 661.5 670.5 c 128,-1,34
 677 682 677 682 695 692 c 1,35,36
 674 700 674 700 647 703 c 128,-1,37
 620 706 620 706 585 706 c 0,38,39
 524 706 524 706 467.5 694 c 128,-1,40
 411 682 411 682 365.5 664.5 c 128,-1,41
 320 647 320 647 292 630 c 0,42,43
 277 621 277 621 250.5 603 c 128,-1,44
 224 585 224 585 195.5 558.5 c 128,-1,45
 167 532 167 532 147.5 497 c 128,-1,46
 128 462 128 462 128 420 c 0,47,48
 128 379 128 379 146 359 c 128,-1,49
 164 339 164 339 191 339 c 0,50,51
 226 339 226 339 263.5 362 c 128,-1,52
 301 385 301 385 333 426 c 128,-1,53
 365 467 365 467 385.5 521.5 c 128,-1,54
 406 576 406 576 406 639 c 1,55,-1
 421 639 l 1,56,57
 426 623 426 623 430 598.5 c 128,-1,58
 434 574 434 574 434 546 c 0,59,60
 434 509 434 509 418.5 469 c 128,-1,61
 403 429 403 429 374.5 394 c 128,-1,62
 346 359 346 359 306.5 337.5 c 128,-1,63
 267 316 267 316 219 316 c 0,64,65
 167 316 167 316 138 342 c 128,-1,66
 109 368 109 368 109 420 c 0,67,68
 109 463 109 463 128.5 499.5 c 128,-1,69
 148 536 148 536 177 565 c 128,-1,70
 206 594 206 594 234.5 614 c 128,-1,71
 263 634 263 634 282 645 c 0,72,73
 338 678 338 678 416 701 c 128,-1,74
 494 724 494 724 585 724 c 0,75,76
 625 724 625 724 658.5 718.5 c 128,-1,77
 692 713 692 713 720 704 c 1,78,79
 746 716 746 716 772 722 c 1,80,-1
 780 705 l 1,81,82
 772 703 772 703 764.5 700 c 128,-1,83
 757 697 757 697 749 694 c 1,84,85
 796 674 796 674 815.5 641.5 c 128,-1,86
 835 609 835 609 835 568 c 0,87,88
 835 521 835 521 807.5 485 c 128,-1,89
 780 449 780 449 739.5 423 c 128,-1,90
 699 397 699 397 659 379 c 1,91,92
 669 376 669 376 687.5 366 c 128,-1,93
 706 356 706 356 725 338 c 128,-1,94
 744 320 744 320 757 291.5 c 128,-1,95
 770 263 770 263 770 222 c 0,96,97
 770 183 770 183 748 142.5 c 128,-1,98
 726 102 726 102 690 67.5 c 128,-1,99
 654 33 654 33 613 12 c 128,-1,100
 572 -9 572 -9 533 -9 c 0,101,102
 504 -9 504 -9 488 3.5 c 128,-1,103
 472 16 472 16 466 34 c 128,-1,104
 460 52 460 52 460 68 c 0,105,106
 460 78 460 78 465.5 100 c 128,-1,107
 471 122 471 122 493.5 152.5 c 128,-1,108
 516 183 516 183 565 216 c 1,109,-1
 577 199 l 1,110,111
 557 187 557 187 535 166 c 128,-1,112
 513 145 513 145 497.5 119.5 c 128,-1,113
 482 94 482 94 482 67 c 0,114,115
 482 39 482 39 495.5 26.5 c 128,-1,116
 509 14 509 14 522 14 c 0,117,118
 548 14 548 14 575.5 42.5 c 128,-1,119
 603 71 603 71 630 124 c 0,120,121
 648 160 648 160 659.5 200.5 c 128,-1,122
 671 241 671 241 671 296 c 0,123,124
 671 326 671 326 665 341 c 128,-1,125
 659 356 659 356 651 362 c 128,-1,126
 643 368 643 368 638 370 c 1,127,128
 625 363 625 363 608.5 360 c 128,-1,129
 592 357 592 357 586 357 c 0,130,131
 578 357 578 357 568 359.5 c 128,-1,132
 558 362 558 362 558 371 c 0,133,134
 558 386 558 386 574.5 389.5 c 128,-1,135
 591 393 591 393 599 393 c 0,136,137
 615 393 615 393 626.5 391 c 128,-1,138
 638 389 638 389 643 387 c 0,139,140
 663 396 663 396 687.5 425 c 128,-1,141
 712 454 712 454 729.5 497 c 128,-1,142
 747 540 747 540 747 590 c 0,143,144
 747 611 747 611 742.5 636.5 c 128,-1,145
 738 662 738 662 718 680 c 1,146,147
 683 661 683 661 658 635 c 128,-1,148
 633 609 633 609 614 577 c 256,149,150
 595 545 595 545 581 507.5 c 128,-1,151
 567 470 567 470 555 428 c 0,152,153
 546 397 546 397 536 363.5 c 128,-1,154
 526 330 526 330 514 295 c 0,155,156
 509 279 509 279 501.5 258.5 c 128,-1,157
 494 238 494 238 486 221 c 0,158,159
 456 157 456 157 410.5 105 c 128,-1,160
 365 53 365 53 301.5 22 c 128,-1,161
 238 -9 238 -9 153 -9 c 0,0,1
EndSplineSet
Validated: 1
EndChar

StartChar: uni210B
Encoding: 8459 8459 145
Width: 1058
Flags: W
LayerCount: 2
Fore
SplineSet
153 -10 m 0,0,1
 96 -10 96 -10 63.5 9.5 c 128,-1,2
 31 29 31 29 17 56 c 128,-1,3
 3 83 3 83 -0.5 106.5 c 128,-1,4
 -4 130 -4 130 -4 139 c 0,5,6
 -4 179 -4 179 20.5 206.5 c 128,-1,7
 45 234 45 234 79 234 c 0,8,9
 115 234 115 234 128.5 214.5 c 128,-1,10
 142 195 142 195 142 180 c 0,11,12
 142 148 142 148 126 134 c 128,-1,13
 110 120 110 120 88 117 c 0,14,15
 77 116 77 116 64 115.5 c 128,-1,16
 51 115 51 115 42 110 c 128,-1,17
 33 105 33 105 33 89 c 0,18,19
 33 85 33 85 36.5 72 c 128,-1,20
 40 59 40 59 51.5 44.5 c 128,-1,21
 63 30 63 30 87.5 19 c 128,-1,22
 112 8 112 8 155 8 c 0,23,24
 199 8 199 8 230 28.5 c 128,-1,25
 261 49 261 49 286.5 86.5 c 128,-1,26
 312 124 312 124 337 174 c 0,27,28
 348 197 348 197 359.5 221 c 128,-1,29
 371 245 371 245 383 271 c 1,30,31
 320 248 320 248 280 215.5 c 128,-1,32
 240 183 240 183 215 155 c 1,33,-1
 201 169 l 1,34,35
 217 188 217 188 245 211 c 128,-1,36
 273 234 273 234 308.5 256 c 128,-1,37
 344 278 344 278 384 291 c 2,38,-1
 395 295 l 1,39,40
 427 362 427 362 466.5 433 c 128,-1,41
 506 504 506 504 569 581 c 1,42,43
 545 559 545 559 515.5 535 c 128,-1,44
 486 511 486 511 456.5 490 c 128,-1,45
 427 469 427 469 401.5 456 c 128,-1,46
 376 443 376 443 360 443 c 0,47,48
 339 443 339 443 326.5 456.5 c 128,-1,49
 314 470 314 470 314 490 c 0,50,51
 314 504 314 504 326.5 525.5 c 128,-1,52
 339 547 339 547 353 568 c 0,53,54
 366 587 366 587 376 603 c 128,-1,55
 386 619 386 619 386 623 c 0,56,57
 386 625 386 625 384 627.5 c 128,-1,58
 382 630 382 630 373 630 c 0,59,60
 353 630 353 630 320 607 c 128,-1,61
 287 584 287 584 249 544.5 c 128,-1,62
 211 505 211 505 174 454 c 1,63,-1
 160 465 l 1,64,65
 182 495 182 495 210 527 c 128,-1,66
 238 559 238 559 268.5 586.5 c 128,-1,67
 299 614 299 614 328 631 c 128,-1,68
 357 648 357 648 381 648 c 0,69,70
 406 648 406 648 416 638 c 128,-1,71
 426 628 426 628 428 616.5 c 128,-1,72
 430 605 430 605 430 600 c 0,73,74
 430 590 430 590 428 579 c 128,-1,75
 426 568 426 568 420 556 c 256,76,77
 414 544 414 544 400 525.5 c 128,-1,78
 386 507 386 507 380 499 c 0,79,80
 366 480 366 480 366 474 c 0,81,82
 366 464 366 464 376 464 c 256,83,84
 386 464 386 464 410.5 479 c 128,-1,85
 435 494 435 494 468.5 519 c 128,-1,86
 502 544 502 544 539.5 574 c 128,-1,87
 577 604 577 604 613 635.5 c 128,-1,88
 649 667 649 667 679 695 c 1,89,-1
 689 682 l 1,90,91
 657 648 657 648 634.5 614 c 128,-1,92
 612 580 612 580 595 540 c 128,-1,93
 578 500 578 500 562 450.5 c 128,-1,94
 546 401 546 401 526 336 c 1,95,96
 555 344 555 344 584 353 c 128,-1,97
 613 362 613 362 641 372 c 1,98,99
 678 440 678 440 724 505.5 c 128,-1,100
 770 571 770 571 820 624.5 c 128,-1,101
 870 678 870 678 919 710 c 128,-1,102
 968 742 968 742 1011 742 c 0,103,104
 1045 742 1045 742 1063.5 724.5 c 128,-1,105
 1082 707 1082 707 1082 674 c 0,106,107
 1082 647 1082 647 1056 601 c 128,-1,108
 1030 555 1030 555 975.5 506 c 128,-1,109
 921 457 921 457 833 420 c 0,110,111
 814 412 814 412 790.5 403.5 c 128,-1,112
 767 395 767 395 741 386 c 1,113,114
 713 325 713 325 690.5 265.5 c 128,-1,115
 668 206 668 206 652 156.5 c 128,-1,116
 636 107 636 107 627.5 73 c 128,-1,117
 619 39 619 39 619 28 c 0,118,119
 619 22 619 22 624 15.5 c 128,-1,120
 629 9 629 9 643 9 c 0,121,122
 658 9 658 9 679.5 22.5 c 128,-1,123
 701 36 701 36 725 56 c 128,-1,124
 749 76 749 76 771 98 c 128,-1,125
 793 120 793 120 809.5 138 c 128,-1,126
 826 156 826 156 833 164 c 1,127,-1
 853 164 l 1,128,129
 846 154 846 154 828.5 134 c 128,-1,130
 811 114 811 114 787.5 89.5 c 128,-1,131
 764 65 764 65 738 42.5 c 128,-1,132
 712 20 712 20 686.5 5.5 c 128,-1,133
 661 -9 661 -9 640 -9 c 0,134,135
 607 -9 607 -9 578 20.5 c 128,-1,136
 549 50 549 50 549 116 c 0,137,138
 549 157 549 157 570.5 218.5 c 128,-1,139
 592 280 592 280 628 349 c 1,140,-1
 519 315 l 1,141,-1
 514 298 l 2,142,143
 499 247 499 247 469 193.5 c 128,-1,144
 439 140 439 140 394.5 93.5 c 128,-1,145
 350 47 350 47 289.5 18.5 c 128,-1,146
 229 -10 229 -10 153 -10 c 0,0,1
752 408 m 1,147,148
 766 413 766 413 780.5 418.5 c 128,-1,149
 795 424 795 424 823 436 c 0,150,151
 858 451 858 451 897 483 c 128,-1,152
 936 515 936 515 970.5 553.5 c 128,-1,153
 1005 592 1005 592 1027 628.5 c 128,-1,154
 1049 665 1049 665 1049 690 c 0,155,156
 1049 707 1049 707 1037.5 715 c 128,-1,157
 1026 723 1026 723 1011 723 c 0,158,159
 1001 723 1001 723 977.5 713.5 c 128,-1,160
 954 704 954 704 918.5 670.5 c 128,-1,161
 883 637 883 637 837 566 c 0,162,163
 814 530 814 530 793 490 c 128,-1,164
 772 450 772 450 752 408 c 1,147,148
EndSplineSet
Validated: 1
EndChar

StartChar: uni2112
Encoding: 8466 8466 146
Width: 833
Flags: W
LayerCount: 2
Fore
SplineSet
141 -10 m 0,0,1
 107 -10 107 -10 77.5 -0.5 c 128,-1,2
 48 9 48 9 29.5 27.5 c 128,-1,3
 11 46 11 46 11 72 c 0,4,5
 11 107 11 107 41.5 123 c 128,-1,6
 72 139 72 139 109 139 c 0,7,8
 147 139 147 139 189 123 c 128,-1,9
 231 107 231 107 272 86 c 1,10,11
 289 112 289 112 306.5 148 c 128,-1,12
 324 184 324 184 340 227 c 0,13,14
 344 237 344 237 348 246.5 c 128,-1,15
 352 256 352 256 356 266 c 1,16,17
 290 269 290 269 249 290 c 128,-1,18
 208 311 208 311 186.5 340.5 c 128,-1,19
 165 370 165 370 157.5 401 c 128,-1,20
 150 432 150 432 150 457 c 0,21,22
 150 510 150 510 176 558 c 128,-1,23
 202 606 202 606 247.5 643.5 c 128,-1,24
 293 681 293 681 351.5 702.5 c 128,-1,25
 410 724 410 724 474 724 c 0,26,27
 519 724 519 724 564 715 c 1,28,-1
 560 697 l 1,29,30
 515 706 515 706 474 706 c 0,31,32
 416 706 416 706 366.5 683 c 128,-1,33
 317 660 317 660 280.5 621 c 128,-1,34
 244 582 244 582 224 533 c 128,-1,35
 204 484 204 484 204 431 c 0,36,37
 204 387 204 387 220 359 c 128,-1,38
 236 331 236 331 261 315 c 128,-1,39
 286 299 286 299 313.5 292.5 c 128,-1,40
 341 286 341 286 364 284 c 1,41,42
 391 344 391 344 421.5 406.5 c 128,-1,43
 452 469 452 469 486 525.5 c 128,-1,44
 520 582 520 582 558 627 c 128,-1,45
 596 672 596 672 638 698 c 128,-1,46
 680 724 680 724 725 724 c 0,47,48
 768 724 768 724 787 703 c 128,-1,49
 806 682 806 682 806 651 c 0,50,51
 806 615 806 615 782.5 563.5 c 128,-1,52
 759 512 759 512 716.5 458 c 128,-1,53
 674 404 674 404 617.5 358 c 128,-1,54
 561 312 561 312 494 287 c 1,55,-1
 475 236 l 2,56,57
 450 169 450 169 414.5 124.5 c 128,-1,58
 379 80 379 80 339 51 c 1,59,60
 372 34 372 34 402 22 c 128,-1,61
 432 10 432 10 456 10 c 0,62,63
 489 10 489 10 525 29 c 128,-1,64
 561 48 561 48 594 82 c 128,-1,65
 627 116 627 116 651 161 c 1,66,-1
 668 154 l 1,67,68
 650 119 650 119 617.5 80.5 c 128,-1,69
 585 42 585 42 542.5 16 c 128,-1,70
 500 -10 500 -10 450 -10 c 0,71,72
 412 -10 412 -10 377.5 2.5 c 128,-1,73
 343 15 343 15 311 33 c 1,74,75
 268 9 268 9 224.5 -0.5 c 128,-1,76
 181 -10 181 -10 141 -10 c 0,0,1
503 312 m 1,77,78
 569 340 569 340 629 393 c 0,79,80
 660 420 660 420 691.5 463.5 c 128,-1,81
 723 507 723 507 745 557.5 c 128,-1,82
 767 608 767 608 767 656 c 0,83,84
 767 679 767 679 754.5 692.5 c 128,-1,85
 742 706 742 706 723 706 c 0,86,87
 686 706 686 706 655 670 c 0,88,89
 634 646 634 646 615.5 610.5 c 128,-1,90
 597 575 597 575 580 532 c 0,91,92
 561 483 561 483 541.5 426 c 128,-1,93
 522 369 522 369 503 312 c 1,77,78
136 8 m 0,94,95
 180 8 180 8 208.5 22.5 c 128,-1,96
 237 37 237 37 258 65 c 1,97,98
 222 87 222 87 185.5 104 c 128,-1,99
 149 121 149 121 108 121 c 0,100,101
 81 121 81 121 55 110 c 128,-1,102
 29 99 29 99 29 72 c 0,103,104
 29 50 29 50 47 36 c 128,-1,105
 65 22 65 22 90.5 15 c 128,-1,106
 116 8 116 8 136 8 c 0,94,95
EndSplineSet
Validated: 1
EndChar

StartChar: uni2133
Encoding: 8499 8499 147
Width: 1155
Flags: W
LayerCount: 2
Fore
SplineSet
130 -10 m 0,0,1
 69 -10 69 -10 32.5 27 c 128,-1,2
 -4 64 -4 64 -4 122 c 0,3,4
 -4 164 -4 164 21.5 193.5 c 128,-1,5
 47 223 47 223 87 223 c 0,6,7
 120 223 120 223 131.5 205.5 c 128,-1,8
 143 188 143 188 143 168 c 0,9,10
 143 145 143 145 122.5 125 c 128,-1,11
 102 105 102 105 56 99 c 0,12,13
 43 98 43 98 39 92.5 c 128,-1,14
 35 87 35 87 35 78 c 0,15,16
 35 72 35 72 44 55 c 128,-1,17
 53 38 53 38 74 23 c 128,-1,18
 95 8 95 8 131 8 c 0,19,20
 185 8 185 8 231 37.5 c 128,-1,21
 277 67 277 67 320 115 c 0,22,23
 343 141 343 141 366.5 171.5 c 128,-1,24
 390 202 390 202 412 235 c 0,25,26
 433 266 433 266 455.5 297.5 c 128,-1,27
 478 329 478 329 501 360 c 0,28,29
 564 446 564 446 626 520 c 128,-1,30
 688 594 688 594 740.5 647.5 c 128,-1,31
 793 701 793 701 828 725 c 1,32,-1
 844 715 l 1,33,34
 840 705 840 705 828 678.5 c 128,-1,35
 816 652 816 652 800 616 c 128,-1,36
 784 580 784 580 767 541 c 128,-1,37
 750 502 750 502 734.5 466.5 c 128,-1,38
 719 431 719 431 708 406 c 128,-1,39
 697 381 697 381 693 373 c 0,40,41
 689 363 689 363 677 335 c 128,-1,42
 665 307 665 307 650 268 c 128,-1,43
 635 229 635 229 619.5 186.5 c 128,-1,44
 604 144 604 144 592.5 104.5 c 128,-1,45
 581 65 581 65 576 36 c 1,46,47
 606 66 606 66 645 126 c 0,48,49
 655 141 655 141 666 159 c 128,-1,50
 677 177 677 177 687 193 c 0,51,52
 717 243 717 243 749.5 294.5 c 128,-1,53
 782 346 782 346 810 386 c 0,54,55
 854 446 854 446 884.5 485.5 c 128,-1,56
 915 525 915 525 949 561 c 0,57,58
 1005 621 1005 621 1056 662.5 c 128,-1,59
 1107 704 1107 704 1137 722 c 1,60,-1
 1154 706 l 1,61,62
 1137 682 1137 682 1113 640.5 c 128,-1,63
 1089 599 1089 599 1062 549.5 c 128,-1,64
 1035 500 1035 500 1010 452 c 128,-1,65
 985 404 985 404 967 366 c 0,66,67
 955 341 955 341 938 304 c 128,-1,68
 921 267 921 267 903 225 c 128,-1,69
 885 183 885 183 869.5 143 c 128,-1,70
 854 103 854 103 844 71 c 128,-1,71
 834 39 834 39 834 22 c 0,72,73
 834 8 834 8 842 8 c 0,74,75
 860 8 860 8 888 31 c 128,-1,76
 916 54 916 54 947.5 89 c 128,-1,77
 979 124 979 124 1005 158 c 1,78,-1
 1017 148 l 1,79,80
 992 113 992 113 960 76.5 c 128,-1,81
 928 40 928 40 896 15 c 128,-1,82
 864 -10 864 -10 838 -10 c 0,83,84
 804 -10 804 -10 784 17.5 c 128,-1,85
 764 45 764 45 764 117 c 0,86,87
 764 146 764 146 776.5 183.5 c 128,-1,88
 789 221 789 221 808 261 c 128,-1,89
 827 301 827 301 849 338.5 c 128,-1,90
 871 376 871 376 890.5 406 c 128,-1,91
 910 436 910 436 922 452 c 0,92,93
 937 473 937 473 960.5 501.5 c 128,-1,94
 984 530 984 530 1010 561 c 128,-1,95
 1036 592 1036 592 1060 620 c 128,-1,96
 1084 648 1084 648 1101.5 668 c 128,-1,97
 1119 688 1119 688 1125 694 c 1,98,99
 1109 683 1109 683 1066.5 648.5 c 128,-1,100
 1024 614 1024 614 963.5 550 c 128,-1,101
 903 486 903 486 832 386 c 0,102,103
 799 339 799 339 771 295 c 128,-1,104
 743 251 743 251 719 211 c 0,105,106
 699 178 699 178 681 149 c 128,-1,107
 663 120 663 120 647 96 c 0,108,109
 617 51 617 51 591.5 20.5 c 128,-1,110
 566 -10 566 -10 546 -10 c 0,111,112
 524 -10 524 -10 514 9 c 128,-1,113
 504 28 504 28 501 54 c 128,-1,114
 498 80 498 80 498 99 c 0,115,116
 498 121 498 121 510 167.5 c 128,-1,117
 522 214 522 214 557.5 290 c 128,-1,118
 593 366 593 366 663 474 c 0,119,120
 681 502 681 502 705 537 c 128,-1,121
 729 572 729 572 753 605.5 c 128,-1,122
 777 639 777 639 795 664 c 128,-1,123
 813 689 813 689 819 697 c 1,124,125
 786 673 786 673 744.5 628 c 128,-1,126
 703 583 703 583 658.5 529.5 c 128,-1,127
 614 476 614 476 574 423.5 c 128,-1,128
 534 371 534 371 504 332 c 0,129,130
 485 307 485 307 465.5 279 c 128,-1,131
 446 251 446 251 427 223 c 0,132,133
 404 189 404 189 380 157 c 128,-1,134
 356 125 356 125 330 96 c 0,135,136
 288 49 288 49 238.5 19.5 c 128,-1,137
 189 -10 189 -10 130 -10 c 0,0,1
EndSplineSet
Validated: 1
EndChar

StartChar: uni2134
Encoding: 8500 8500 148
Width: 480
Flags: W
LayerCount: 2
Fore
SplineSet
187 -10 m 0,0,1
 150 -10 150 -10 126 3.5 c 128,-1,2
 102 17 102 17 88 37.5 c 128,-1,3
 74 58 74 58 68.5 80 c 128,-1,4
 63 102 63 102 63 118 c 0,5,6
 63 146 63 146 68.5 164 c 128,-1,7
 74 182 74 182 83 203 c 1,8,-1
 39 150 l 1,9,-1
 24 163 l 1,10,-1
 104 258 l 2,11,12
 134 294 134 294 172 327 c 128,-1,13
 210 360 210 360 251.5 380.5 c 128,-1,14
 293 401 293 401 331 401 c 0,15,16
 374 401 374 401 397 386.5 c 128,-1,17
 420 372 420 372 429.5 350.5 c 128,-1,18
 439 329 439 329 439 308 c 0,19,20
 439 279 439 279 424.5 236.5 c 128,-1,21
 410 194 410 194 384.5 149 c 128,-1,22
 359 104 359 104 325 67 c 1,23,24
 341 71 341 71 364.5 82.5 c 128,-1,25
 388 94 388 94 412.5 117 c 128,-1,26
 437 140 437 140 456 178 c 1,27,-1
 475 178 l 1,28,29
 475 176 475 176 464 156.5 c 128,-1,30
 453 137 453 137 432 112.5 c 128,-1,31
 411 88 411 88 379 68.5 c 128,-1,32
 347 49 347 49 305 46 c 1,33,34
 278 21 278 21 248.5 5.5 c 128,-1,35
 219 -10 219 -10 187 -10 c 0,0,1
189 8 m 0,36,37
 208 8 208 8 228.5 19 c 128,-1,38
 249 30 249 30 269 49 c 1,39,40
 263 52 263 52 259 58 c 128,-1,41
 255 64 255 64 255 74 c 0,42,43
 255 94 255 94 272 107.5 c 128,-1,44
 289 121 289 121 307 121 c 0,45,46
 320 121 320 121 327 118 c 1,47,48
 359 167 359 167 380.5 222.5 c 128,-1,49
 402 278 402 278 402 321 c 0,50,51
 402 358 402 358 389 367 c 128,-1,52
 376 376 376 376 362 376 c 0,53,54
 333 376 333 376 294.5 329.5 c 128,-1,55
 256 283 256 283 201 176 c 0,56,57
 158 93 158 93 158 47 c 0,58,59
 158 8 158 8 189 8 c 0,36,37
EndSplineSet
Validated: 1
EndChar

StartChar: zero
Encoding: 48 48 149
Width: 572
Flags: W
LayerCount: 2
Fore
SplineSet
285 -10 m 0,0,1
 164 -10 164 -10 106.5 87.5 c 128,-1,2
 49 185 49 185 49 358 c 0,3,4
 49 474 49 474 72.5 556 c 128,-1,5
 96 638 96 638 148 681.5 c 128,-1,6
 200 725 200 725 285 725 c 0,7,8
 405 725 405 725 464 628.5 c 128,-1,9
 523 532 523 532 523 358 c 0,10,11
 523 243 523 243 499 160.5 c 128,-1,12
 475 78 475 78 423 34 c 128,-1,13
 371 -10 371 -10 285 -10 c 0,0,1
285 65 m 0,14,15
 365 65 365 65 399.5 137.5 c 128,-1,16
 434 210 434 210 434 358 c 0,17,18
 434 504 434 504 399.5 577 c 128,-1,19
 365 650 365 650 285 650 c 0,20,21
 204 650 204 650 170.5 577 c 128,-1,22
 137 504 137 504 137 358 c 0,23,24
 137 211 137 211 170.5 138 c 128,-1,25
 204 65 204 65 285 65 c 0,14,15
EndSplineSet
Validated: 1
EndChar

StartChar: one
Encoding: 49 49 150
Width: 572
Flags: W
LayerCount: 2
Fore
SplineSet
269 0 m 1,0,-1
 269 499 l 2,1,2
 269 542 269 542 270 568 c 128,-1,3
 271 594 271 594 273 622 c 1,4,5
 257 607 257 607 244 595.5 c 128,-1,6
 231 584 231 584 211 567 c 2,7,-1
 135 505 l 1,8,-1
 89 564 l 1,9,-1
 282 714 l 1,10,-1
 355 714 l 1,11,-1
 355 0 l 1,12,-1
 269 0 l 1,0,-1
EndSplineSet
Validated: 1
EndChar

StartChar: two
Encoding: 50 50 151
Width: 572
Flags: W
LayerCount: 2
Fore
SplineSet
48 0 m 1,0,-1
 48 73 l 1,1,-1
 235 262 l 2,2,3
 289 316 289 316 326 358 c 128,-1,4
 363 400 363 400 382 440.5 c 128,-1,5
 401 481 401 481 401 529 c 0,6,7
 401 588 401 588 366 618.5 c 128,-1,8
 331 649 331 649 275 649 c 0,9,10
 223 649 223 649 183.5 631 c 128,-1,11
 144 613 144 613 103 581 c 1,12,-1
 56 640 l 1,13,14
 98 675 98 675 152.5 699.5 c 128,-1,15
 207 724 207 724 275 724 c 0,16,17
 375 724 375 724 433 673.5 c 128,-1,18
 491 623 491 623 491 534 c 0,19,20
 491 478 491 478 468 429.5 c 128,-1,21
 445 381 445 381 404 333 c 128,-1,22
 363 285 363 285 308 231 c 2,23,-1
 159 84 l 1,24,-1
 159 80 l 1,25,-1
 520 80 l 1,26,-1
 520 0 l 1,27,-1
 48 0 l 1,0,-1
EndSplineSet
Validated: 1
EndChar

StartChar: three
Encoding: 51 51 152
Width: 572
Flags: W
LayerCount: 2
Fore
SplineSet
241 -10 m 0,0,1
 185 -10 185 -10 137 -1.5 c 128,-1,2
 89 7 89 7 45 29 c 1,3,-1
 45 111 l 1,4,5
 90 89 90 89 142 76.5 c 128,-1,6
 194 64 194 64 242 64 c 0,7,8
 338 64 338 64 380.5 101.5 c 128,-1,9
 423 139 423 139 423 205 c 0,10,11
 423 272 423 272 370.5 301.5 c 128,-1,12
 318 331 318 331 223 331 c 2,13,-1
 154 331 l 1,14,-1
 154 406 l 1,15,-1
 224 406 l 2,16,17
 312 406 312 406 357.5 443 c 128,-1,18
 403 480 403 480 403 541 c 0,19,20
 403 593 403 593 368 621.5 c 128,-1,21
 333 650 333 650 273 650 c 0,22,23
 215 650 215 650 174 633 c 128,-1,24
 133 616 133 616 93 590 c 1,25,-1
 49 650 l 1,26,27
 87 680 87 680 143.5 702 c 128,-1,28
 200 724 200 724 272 724 c 0,29,30
 384 724 384 724 438.5 674 c 128,-1,31
 493 624 493 624 493 547 c 0,32,33
 493 475 493 475 453 432.5 c 128,-1,34
 413 390 413 390 345 376 c 1,35,-1
 345 372 l 1,36,37
 431 362 431 362 473 318 c 128,-1,38
 515 274 515 274 515 203 c 0,39,40
 515 141 515 141 486 92.5 c 128,-1,41
 457 44 457 44 396.5 17 c 128,-1,42
 336 -10 336 -10 241 -10 c 0,0,1
EndSplineSet
Validated: 1
EndChar

StartChar: four
Encoding: 52 52 153
Width: 572
Flags: W
LayerCount: 2
Fore
SplineSet
363 0 m 1,0,-1
 363 162 l 1,1,-1
 21 162 l 1,2,-1
 21 237 l 1,3,-1
 357 718 l 1,4,-1
 448 718 l 1,5,-1
 448 241 l 1,6,-1
 552 241 l 1,7,-1
 552 162 l 1,8,-1
 448 162 l 1,9,-1
 448 0 l 1,10,-1
 363 0 l 1,0,-1
107 241 m 1,11,-1
 363 241 l 1,12,-1
 363 466 l 2,13,14
 363 518 363 518 364.5 554.5 c 128,-1,15
 366 591 366 591 368 624 c 1,16,-1
 364 624 l 1,17,18
 356 605 356 605 344 583 c 128,-1,19
 332 561 332 561 321 546 c 2,20,-1
 107 241 l 1,11,-1
EndSplineSet
Validated: 1
EndChar

StartChar: five
Encoding: 53 53 154
Width: 572
Flags: W
LayerCount: 2
Fore
SplineSet
248 -10 m 0,0,1
 193 -10 193 -10 144.5 0 c 128,-1,2
 96 10 96 10 63 29 c 1,3,-1
 63 112 l 1,4,5
 99 90 99 90 150.5 77.5 c 128,-1,6
 202 65 202 65 249 65 c 0,7,8
 328 65 328 65 376.5 102.5 c 128,-1,9
 425 140 425 140 425 219 c 0,10,11
 425 289 425 289 382 326.5 c 128,-1,12
 339 364 339 364 246 364 c 0,13,14
 218 364 218 364 182 359 c 128,-1,15
 146 354 146 354 124 349 c 1,16,-1
 80 377 l 1,17,-1
 107 714 l 1,18,-1
 465 714 l 1,19,-1
 465 634 l 1,20,-1
 182 634 l 1,21,-1
 165 427 l 1,22,23
 182 430 182 430 211 434 c 128,-1,24
 240 438 240 438 275 438 c 0,25,26
 385 438 385 438 450 383 c 128,-1,27
 515 328 515 328 515 228 c 0,28,29
 515 117 515 117 444.5 53.5 c 128,-1,30
 374 -10 374 -10 248 -10 c 0,0,1
EndSplineSet
Validated: 1
EndChar

StartChar: six
Encoding: 54 54 155
Width: 572
Flags: W
LayerCount: 2
Fore
SplineSet
298 -10 m 0,0,1
 230 -10 230 -10 175 24 c 128,-1,2
 120 58 120 58 87.5 128 c 128,-1,3
 55 198 55 198 55 305 c 0,4,5
 55 382 55 382 68.5 456.5 c 128,-1,6
 82 531 82 531 117.5 591.5 c 128,-1,7
 153 652 153 652 217 688 c 128,-1,8
 281 724 281 724 382 724 c 0,9,10
 403 724 403 724 428.5 722 c 128,-1,11
 454 720 454 720 470 715 c 1,12,-1
 470 640 l 1,13,14
 452 646 452 646 429.5 649 c 128,-1,15
 407 652 407 652 384 652 c 0,16,17
 315 652 315 652 269 629 c 128,-1,18
 223 606 223 606 196.5 566 c 128,-1,19
 170 526 170 526 158 474 c 128,-1,20
 146 422 146 422 143 363 c 1,21,-1
 149 363 l 1,22,23
 172 398 172 398 213 422.5 c 128,-1,24
 254 447 254 447 318 447 c 0,25,26
 411 447 411 447 468 390.5 c 128,-1,27
 525 334 525 334 525 230 c 0,28,29
 525 118 525 118 463.5 54 c 128,-1,30
 402 -10 402 -10 298 -10 c 0,0,1
297 64 m 0,31,32
 360 64 360 64 399 104.5 c 128,-1,33
 438 145 438 145 438 230 c 0,34,35
 438 298 438 298 403.5 338 c 128,-1,36
 369 378 369 378 300 378 c 0,37,38
 253 378 253 378 218 358.5 c 128,-1,39
 183 339 183 339 163.5 309 c 128,-1,40
 144 279 144 279 144 247 c 0,41,42
 144 204 144 204 161 161.5 c 128,-1,43
 178 119 178 119 212 91.5 c 128,-1,44
 246 64 246 64 297 64 c 0,31,32
EndSplineSet
Validated: 1
EndChar

StartChar: seven
Encoding: 55 55 156
Width: 572
Flags: W
LayerCount: 2
Fore
SplineSet
136 0 m 1,0,-1
 429 634 l 1,1,-1
 44 634 l 1,2,-1
 44 714 l 1,3,-1
 523 714 l 1,4,-1
 523 646 l 1,5,-1
 233 0 l 1,6,-1
 136 0 l 1,0,-1
EndSplineSet
Validated: 1
EndChar

StartChar: eight
Encoding: 56 56 157
Width: 572
Flags: W
LayerCount: 2
Fore
SplineSet
288 -10 m 0,0,1
 173 -10 173 -10 111 40.5 c 128,-1,2
 49 91 49 91 49 182 c 0,3,4
 49 231 49 231 69.5 267 c 128,-1,5
 90 303 90 303 124 329 c 128,-1,6
 158 355 158 355 197 373 c 1,7,8
 145 403 145 403 108.5 445.5 c 128,-1,9
 72 488 72 488 72 554 c 0,10,11
 72 609 72 609 100 646.5 c 128,-1,12
 128 684 128 684 176 704 c 128,-1,13
 224 724 224 724 285 724 c 0,14,15
 379 724 379 724 439 680 c 128,-1,16
 499 636 499 636 499 553 c 0,17,18
 499 510 499 510 480.5 478 c 128,-1,19
 462 446 462 446 431 421.5 c 128,-1,20
 400 397 400 397 363 378 c 1,21,22
 407 357 407 357 443 330.5 c 128,-1,23
 479 304 479 304 500.5 269 c 128,-1,24
 522 234 522 234 522 185 c 0,25,26
 522 95 522 95 458.5 42.5 c 128,-1,27
 395 -10 395 -10 288 -10 c 0,0,1
289 412 m 1,28,29
 341 434 341 434 376.5 465 c 128,-1,30
 412 496 412 496 412 550 c 0,31,32
 412 600 412 600 377 626.5 c 128,-1,33
 342 653 342 653 284 653 c 0,34,35
 229 653 229 653 193.5 626.5 c 128,-1,36
 158 600 158 600 158 550 c 0,37,38
 158 513 158 513 175.5 488 c 128,-1,39
 193 463 193 463 223 445.5 c 128,-1,40
 253 428 253 428 289 412 c 1,28,29
286 60 m 0,41,42
 359 60 359 60 397.5 94.5 c 128,-1,43
 436 129 436 129 436 184 c 0,44,45
 436 236 436 236 395 270.5 c 128,-1,46
 354 305 354 305 286 331 c 2,47,-1
 270 337 l 1,48,49
 204 309 204 309 169.5 272.5 c 128,-1,50
 135 236 135 236 135 181 c 0,51,52
 135 129 135 129 172 94.5 c 128,-1,53
 209 60 209 60 286 60 c 0,41,42
EndSplineSet
Validated: 1
EndChar

StartChar: nine
Encoding: 57 57 158
Width: 572
Flags: W
LayerCount: 2
Fore
SplineSet
192 -10 m 0,0,1
 172 -10 172 -10 145.5 -7.5 c 128,-1,2
 119 -5 119 -5 102 0 c 1,3,-1
 102 75 l 1,4,5
 141 62 141 62 190 62 c 0,6,7
 260 62 260 62 305.5 85 c 128,-1,8
 351 108 351 108 378 147.5 c 128,-1,9
 405 187 405 187 417 239.5 c 128,-1,10
 429 292 429 292 431 350 c 1,11,-1
 425 350 l 1,12,13
 403 316 403 316 361.5 291.5 c 128,-1,14
 320 267 320 267 255 267 c 0,15,16
 163 267 163 267 106.5 323.5 c 128,-1,17
 50 380 50 380 50 483 c 0,18,19
 50 558 50 558 78.5 612 c 128,-1,20
 107 666 107 666 158 695 c 128,-1,21
 209 724 209 724 278 724 c 0,22,23
 346 724 346 724 401 689.5 c 128,-1,24
 456 655 456 655 488 585.5 c 128,-1,25
 520 516 520 516 520 409 c 0,26,27
 520 332 520 332 506.5 257.5 c 128,-1,28
 493 183 493 183 457.5 122.5 c 128,-1,29
 422 62 422 62 357.5 26 c 128,-1,30
 293 -10 293 -10 192 -10 c 0,0,1
274 336 m 0,31,32
 322 336 322 336 357 355.5 c 128,-1,33
 392 375 392 375 411.5 405 c 128,-1,34
 431 435 431 435 431 467 c 0,35,36
 431 510 431 510 414 552 c 128,-1,37
 397 594 397 594 363 622 c 128,-1,38
 329 650 329 650 278 650 c 0,39,40
 216 650 216 650 176.5 609 c 128,-1,41
 137 568 137 568 137 484 c 0,42,43
 137 415 137 415 170.5 375.5 c 128,-1,44
 204 336 204 336 274 336 c 0,31,32
EndSplineSet
Validated: 1
EndChar

StartChar: period
Encoding: 46 46 159
Width: 268
Flags: W
LayerCount: 2
Fore
SplineSet
133 -14 m 0,0,1
 108 -14 108 -14 90 2 c 128,-1,2
 72 18 72 18 72 54 c 0,3,4
 72 91 72 91 90 106 c 128,-1,5
 108 121 108 121 133 121 c 0,6,7
 159 121 159 121 177.5 106 c 128,-1,8
 196 91 196 91 196 54 c 0,9,10
 196 18 196 18 177.5 2 c 128,-1,11
 159 -14 159 -14 133 -14 c 0,0,1
EndSplineSet
Validated: 1
EndChar

StartChar: comma
Encoding: 44 44 160
Width: 268
Flags: W
LayerCount: 2
Fore
SplineSet
41 -129 m 1,0,1
 55 -72 55 -72 69.5 -4 c 128,-1,2
 84 64 84 64 91 116 c 1,3,-1
 185 116 l 1,4,-1
 192 105 l 1,5,6
 179 52 179 52 154.5 -11.5 c 128,-1,7
 130 -75 130 -75 106 -129 c 1,8,-1
 41 -129 l 1,0,1
EndSplineSet
Validated: 1
EndChar

StartChar: colon
Encoding: 58 58 161
Width: 268
Flags: W
LayerCount: 2
Fore
SplineSet
133 414 m 0,0,1
 108 414 108 414 90 430 c 128,-1,2
 72 446 72 446 72 482 c 0,3,4
 72 520 72 520 90 535 c 128,-1,5
 108 550 108 550 133 550 c 0,6,7
 159 550 159 550 177.5 535 c 128,-1,8
 196 520 196 520 196 482 c 0,9,10
 196 446 196 446 177.5 430 c 128,-1,11
 159 414 159 414 133 414 c 0,0,1
133 -14 m 0,12,13
 108 -14 108 -14 90 2 c 128,-1,14
 72 18 72 18 72 54 c 0,15,16
 72 91 72 91 90 106 c 128,-1,17
 108 121 108 121 133 121 c 0,18,19
 159 121 159 121 177.5 106 c 128,-1,20
 196 91 196 91 196 54 c 0,21,22
 196 18 196 18 177.5 2 c 128,-1,23
 159 -14 159 -14 133 -14 c 0,12,13
EndSplineSet
Validated: 1
EndChar

StartChar: semicolon
Encoding: 59 59 162
Width: 268
Flags: W
LayerCount: 2
Fore
SplineSet
131 414 m 0,0,1
 106 414 106 414 88 430 c 128,-1,2
 70 446 70 446 70 482 c 0,3,4
 70 520 70 520 88 535 c 128,-1,5
 106 550 106 550 131 550 c 0,6,7
 157 550 157 550 175.5 535 c 128,-1,8
 194 520 194 520 194 482 c 0,9,10
 194 446 194 446 175.5 430 c 128,-1,11
 157 414 157 414 131 414 c 0,0,1
31 -129 m 1,12,13
 41 -91 41 -91 50.5 -47.5 c 128,-1,14
 60 -4 60 -4 68.5 38.5 c 128,-1,15
 77 81 77 81 82 116 c 1,16,-1
 176 116 l 1,17,-1
 183 105 l 1,18,19
 170 53 170 53 145.5 -11.5 c 128,-1,20
 121 -76 121 -76 97 -129 c 1,21,-1
 31 -129 l 1,12,13
EndSplineSet
Validated: 1
EndChar

StartChar: uni0021
Encoding: 33 33 163
Width: 269
Flags: W
LayerCount: 2
Fore
SplineSet
106 201 m 1,0,-1
 81 714 l 1,1,-1
 188 714 l 1,2,-1
 163 201 l 1,3,-1
 106 201 l 1,0,-1
134 -14 m 0,4,5
 108 -14 108 -14 90 2 c 128,-1,6
 72 18 72 18 72 54 c 0,7,8
 72 91 72 91 90 106 c 128,-1,9
 108 121 108 121 134 121 c 0,10,11
 159 121 159 121 177.5 106 c 128,-1,12
 196 91 196 91 196 54 c 0,13,14
 196 18 196 18 177.5 2 c 128,-1,15
 159 -14 159 -14 134 -14 c 0,4,5
EndSplineSet
Validated: 1
EndChar

StartChar: question
Encoding: 63 63 164
Width: 434
Flags: W
LayerCount: 2
Fore
SplineSet
140 201 m 1,0,-1
 140 228 l 2,1,2
 140 266 140 266 147.5 293.5 c 128,-1,3
 155 321 155 321 173.5 346 c 128,-1,4
 192 371 192 371 224 398 c 0,5,6
 263 431 263 431 284.5 453 c 128,-1,7
 306 475 306 475 315 496 c 128,-1,8
 324 517 324 517 324 547 c 0,9,10
 324 595 324 595 293 621 c 128,-1,11
 262 647 262 647 203 647 c 0,12,13
 154 647 154 647 116 634.5 c 128,-1,14
 78 622 78 622 43 605 c 1,15,-1
 12 675 l 1,16,17
 52 696 52 696 100.5 710 c 128,-1,18
 149 724 149 724 209 724 c 0,19,20
 304 724 304 724 356 677 c 128,-1,21
 408 630 408 630 408 549 c 0,22,23
 408 504 408 504 393.5 472.5 c 128,-1,24
 379 441 379 441 352.5 414.5 c 128,-1,25
 326 388 326 388 290 358 c 0,26,27
 256 330 256 330 239 309 c 128,-1,28
 222 288 222 288 216 267.5 c 128,-1,29
 210 247 210 247 210 218 c 2,30,-1
 210 201 l 1,31,-1
 140 201 l 1,0,-1
179 -14 m 0,32,33
 152 -14 152 -14 134.5 2 c 128,-1,34
 117 18 117 18 117 54 c 0,35,36
 117 91 117 91 134.5 106 c 128,-1,37
 152 121 152 121 179 121 c 0,38,39
 204 121 204 121 222 106 c 128,-1,40
 240 91 240 91 240 54 c 0,41,42
 240 18 240 18 222 2 c 128,-1,43
 204 -14 204 -14 179 -14 c 0,32,33
EndSplineSet
Validated: 1
EndChar

StartChar: asterisk
Encoding: 42 42 165
Width: 551
Flags: W
LayerCount: 2
Fore
SplineSet
195 310 m 1,0,-1
 106 357 l 1,1,-1
 223 515 l 1,2,-1
 41 530 l 1,3,-1
 55 622 l 1,4,-1
 245 568 l 1,5,-1
 224 760 l 1,6,-1
 322 760 l 1,7,-1
 302 568 l 1,8,-1
 494 622 l 1,9,-1
 508 530 l 1,10,-1
 324 515 l 1,11,-1
 443 357 l 1,12,-1
 357 310 l 1,13,-1
 272 485 l 1,14,-1
 195 310 l 1,0,-1
EndSplineSet
Validated: 1
EndChar

StartChar: uni0023
Encoding: 35 35 166
Width: 646
Flags: W
LayerCount: 2
Fore
SplineSet
113 0 m 1,0,-1
 151 209 l 1,1,-1
 25 209 l 1,2,-1
 25 276 l 1,3,-1
 164 276 l 1,4,-1
 196 436 l 1,5,-1
 62 436 l 1,6,-1
 62 502 l 1,7,-1
 208 502 l 1,8,-1
 248 714 l 1,9,-1
 320 714 l 1,10,-1
 280 502 l 1,11,-1
 424 502 l 1,12,-1
 464 714 l 1,13,-1
 533 714 l 1,14,-1
 493 502 l 1,15,-1
 620 502 l 1,16,-1
 620 436 l 1,17,-1
 480 436 l 1,18,-1
 449 276 l 1,19,-1
 586 276 l 1,20,-1
 586 209 l 1,21,-1
 436 209 l 1,22,-1
 395 0 l 1,23,-1
 324 0 l 1,24,-1
 365 209 l 1,25,-1
 222 209 l 1,26,-1
 183 0 l 1,27,-1
 113 0 l 1,0,-1
235 276 m 1,28,-1
 378 276 l 1,29,-1
 409 436 l 1,30,-1
 266 436 l 1,31,-1
 235 276 l 1,28,-1
EndSplineSet
Validated: 1
EndChar

StartChar: slash
Encoding: 47 47 167
Width: 372
Flags: W
LayerCount: 2
Fore
SplineSet
10 0 m 1,0,-1
 276 714 l 1,1,-1
 362 714 l 1,2,-1
 96 0 l 1,3,-1
 10 0 l 1,0,-1
EndSplineSet
Validated: 1
EndChar

StartChar: backslash
Encoding: 92 92 168
Width: 372
Flags: W
LayerCount: 2
Fore
SplineSet
276 0 m 1,0,-1
 10 714 l 1,1,-1
 96 714 l 1,2,-1
 363 0 l 1,3,-1
 276 0 l 1,0,-1
EndSplineSet
Validated: 1
EndChar

StartChar: parenleft
Encoding: 40 40 169
Width: 300
Flags: W
LayerCount: 2
Fore
SplineSet
187 -158 m 1,0,1
 111 -70 111 -70 75.5 41.5 c 128,-1,2
 40 153 40 153 40 274 c 0,3,4
 40 396 40 396 75.5 509.5 c 128,-1,5
 111 623 111 623 187 714 c 1,6,-1
 270 714 l 1,7,8
 200 620 200 620 164.5 507 c 128,-1,9
 129 394 129 394 129 275 c 0,10,11
 129 159 129 159 164.5 47.5 c 128,-1,12
 200 -64 200 -64 269 -158 c 1,13,-1
 187 -158 l 1,0,1
EndSplineSet
Validated: 1
EndChar

StartChar: parenright
Encoding: 41 41 170
Width: 300
Flags: W
LayerCount: 2
Fore
SplineSet
31 -158 m 1,0,1
 100 -64 100 -64 135.5 47.5 c 128,-1,2
 171 159 171 159 171 275 c 0,3,4
 171 394 171 394 135.5 507 c 128,-1,5
 100 620 100 620 30 714 c 1,6,-1
 113 714 l 1,7,8
 189 623 189 623 224.5 509.5 c 128,-1,9
 260 396 260 396 260 274 c 0,10,11
 260 153 260 153 224.5 41.5 c 128,-1,12
 189 -70 189 -70 113 -158 c 1,13,-1
 31 -158 l 1,0,1
EndSplineSet
Validated: 1
EndChar

StartChar: braceleft
Encoding: 123 123 171
Width: 380
Flags: W
LayerCount: 2
Fore
SplineSet
348 -158 m 1,0,1
 256 -157 256 -157 203 -118 c 128,-1,2
 150 -79 150 -79 150 1 c 2,3,-1
 150 148 l 2,4,5
 150 199 150 199 118.5 220.5 c 128,-1,6
 87 242 87 242 28 242 c 1,7,-1
 28 315 l 1,8,9
 87 316 87 316 118.5 337 c 128,-1,10
 150 358 150 358 150 408 c 2,11,-1
 150 556 l 2,12,13
 150 636 150 636 205 675 c 128,-1,14
 260 714 260 714 348 714 c 1,15,-1
 348 642 l 1,16,17
 296 641 296 641 266.5 619 c 128,-1,18
 237 597 237 597 237 548 c 2,19,-1
 237 404 l 2,20,21
 237 301 237 301 128 282 c 1,22,-1
 128 276 l 1,23,24
 237 257 237 257 237 154 c 2,25,-1
 237 7 l 2,26,27
 237 -42 237 -42 266 -63.5 c 128,-1,28
 295 -85 295 -85 348 -86 c 1,29,-1
 348 -158 l 1,0,1
EndSplineSet
Validated: 1
EndChar

StartChar: braceright
Encoding: 125 125 172
Width: 380
Flags: W
LayerCount: 2
Fore
SplineSet
32 -158 m 1,0,-1
 32 -86 l 1,1,2
 84 -84 84 -84 113.5 -62.5 c 128,-1,3
 143 -41 143 -41 143 8 c 2,4,-1
 143 153 l 2,5,6
 143 256 143 256 252 275 c 1,7,-1
 252 281 l 1,8,9
 143 300 143 300 143 403 c 2,10,-1
 143 549 l 2,11,12
 143 598 143 598 114 619.5 c 128,-1,13
 85 641 85 641 32 642 c 1,14,-1
 32 714 l 1,15,16
 124 713 124 713 177 674 c 128,-1,17
 230 635 230 635 230 555 c 2,18,-1
 230 409 l 2,19,20
 230 358 230 358 261.5 336.5 c 128,-1,21
 293 315 293 315 352 315 c 1,22,-1
 352 242 l 1,23,24
 293 241 293 241 261.5 220 c 128,-1,25
 230 199 230 199 230 149 c 2,26,-1
 230 0 l 2,27,28
 230 -79 230 -79 175 -118.5 c 128,-1,29
 120 -158 120 -158 32 -158 c 1,0,-1
EndSplineSet
Validated: 1
EndChar

StartChar: bracketleft
Encoding: 91 91 173
Width: 329
Flags: W
LayerCount: 2
Fore
SplineSet
80 -158 m 1,0,-1
 80 714 l 1,1,-1
 304 714 l 1,2,-1
 304 642 l 1,3,-1
 166 642 l 1,4,-1
 166 -86 l 1,5,-1
 304 -86 l 1,6,-1
 304 -158 l 1,7,-1
 80 -158 l 1,0,-1
EndSplineSet
Validated: 1
EndChar

StartChar: bracketright
Encoding: 93 93 174
Width: 329
Flags: W
LayerCount: 2
Fore
SplineSet
25 -158 m 1,0,-1
 25 -86 l 1,1,-1
 163 -86 l 1,2,-1
 163 642 l 1,3,-1
 25 642 l 1,4,-1
 25 714 l 1,5,-1
 249 714 l 1,6,-1
 249 -158 l 1,7,-1
 25 -158 l 1,0,-1
EndSplineSet
Validated: 1
EndChar

StartChar: uni2308
Encoding: 8968 8968 175
Width: 404
Flags: W
LayerCount: 2
Fore
SplineSet
51 -80 m 1,0,-1
 51 794 l 1,1,-1
 353 794 l 1,2,-1
 353 730 l 1,3,-1
 122 730 l 1,4,-1
 122 -80 l 1,5,-1
 51 -80 l 1,0,-1
EndSplineSet
Validated: 1
EndChar

StartChar: uni230A
Encoding: 8970 8970 176
Width: 404
Flags: W
LayerCount: 2
Fore
SplineSet
51 -80 m 1,0,-1
 51 794 l 1,1,-1
 123 794 l 1,2,-1
 123 -16 l 1,3,-1
 353 -16 l 1,4,-1
 353 -80 l 1,5,-1
 51 -80 l 1,0,-1
EndSplineSet
Validated: 1
EndChar

StartChar: uni2309
Encoding: 8969 8969 177
Width: 404
Flags: W
LayerCount: 2
Fore
SplineSet
282 -80 m 1,0,-1
 282 730 l 1,1,-1
 51 730 l 1,2,-1
 51 794 l 1,3,-1
 353 794 l 1,4,-1
 353 -80 l 1,5,-1
 282 -80 l 1,0,-1
EndSplineSet
Validated: 1
EndChar

StartChar: uni230B
Encoding: 8971 8971 178
Width: 404
Flags: W
LayerCount: 2
Fore
SplineSet
51 -80 m 1,0,-1
 51 -16 l 1,1,-1
 281 -16 l 1,2,-1
 281 794 l 1,3,-1
 353 794 l 1,4,-1
 353 -80 l 1,5,-1
 51 -80 l 1,0,-1
EndSplineSet
Validated: 1
EndChar

StartChar: hyphen
Encoding: 45 45 179
Width: 322
Flags: W
LayerCount: 2
Fore
SplineSet
40 229 m 1,0,-1
 40 307 l 1,1,-1
 282 307 l 1,2,-1
 282 229 l 1,3,-1
 40 229 l 1,0,-1
EndSplineSet
Validated: 1
EndChar

StartChar: underscore
Encoding: 95 95 180
Width: 444
Flags: W
LayerCount: 2
Fore
SplineSet
-2 -154 m 1,0,-1
 -2 -90 l 1,1,-1
 446 -90 l 1,2,-1
 446 -154 l 1,3,-1
 -2 -154 l 1,0,-1
EndSplineSet
Validated: 1
EndChar

StartChar: uni2035
Encoding: 8245 8245 181
Width: 232
Flags: W
LayerCount: 2
Fore
SplineSet
135 456 m 1,0,-1
 -26 714 l 1,1,-1
 64 714 l 1,2,-1
 193 456 l 1,3,-1
 135 456 l 1,0,-1
EndSplineSet
Validated: 1
EndChar

StartChar: uni2034
Encoding: 8244 8244 182
Width: 584
Flags: W
LayerCount: 2
Fore
SplineSet
391 456 m 1,0,-1
 520 714 l 1,1,-1
 610 714 l 1,2,-1
 449 456 l 1,3,-1
 391 456 l 1,0,-1
39 456 m 1,4,-1
 168 714 l 1,5,-1
 258 714 l 1,6,-1
 97 456 l 1,7,-1
 39 456 l 1,4,-1
215 456 m 1,8,-1
 344 714 l 1,9,-1
 434 714 l 1,10,-1
 273 456 l 1,11,-1
 215 456 l 1,8,-1
EndSplineSet
Validated: 1
EndChar

StartChar: uni0022
Encoding: 34 34 183
Width: 408
Flags: W
LayerCount: 2
Fore
SplineSet
268 456 m 1,0,-1
 248 714 l 1,1,-1
 343 714 l 1,2,-1
 323 456 l 1,3,-1
 268 456 l 1,0,-1
85 456 m 1,4,-1
 65 714 l 1,5,-1
 160 714 l 1,6,-1
 140 456 l 1,7,-1
 85 456 l 1,4,-1
EndSplineSet
Validated: 1
EndChar

StartChar: quotesingle
Encoding: 39 39 184
Width: 225
Flags: W
LayerCount: 2
Fore
SplineSet
85 456 m 1,0,-1
 65 714 l 1,1,-1
 160 714 l 1,2,-1
 140 456 l 1,3,-1
 85 456 l 1,0,-1
EndSplineSet
Validated: 1
EndChar

StartChar: dollar
Encoding: 36 36 186
Width: 572
Flags: W
LayerCount: 2
Fore
SplineSet
253 -58 m 1,0,-1
 253 49 l 1,1,2
 198 50 198 50 146 58.5 c 128,-1,3
 94 67 94 67 62 82 c 1,4,-1
 62 167 l 1,5,6
 96 151 96 151 149 139 c 128,-1,7
 202 127 202 127 253 126 c 1,8,-1
 253 328 l 1,9,10
 154 355 154 355 108 396 c 128,-1,11
 62 437 62 437 62 508 c 0,12,13
 62 582 62 582 113.5 624 c 128,-1,14
 165 666 165 666 253 671 c 1,15,-1
 253 759 l 1,16,-1
 317 759 l 1,17,-1
 317 672 l 1,18,19
 370 671 370 671 413.5 660.5 c 128,-1,20
 457 650 457 650 493 635 c 1,21,-1
 466 561 l 1,22,23
 434 574 434 574 395.5 583.5 c 128,-1,24
 357 593 357 593 317 596 c 1,25,-1
 317 395 l 1,26,27
 383 376 383 376 427 354.5 c 128,-1,28
 471 333 471 333 493.5 301.5 c 128,-1,29
 516 270 516 270 516 220 c 0,30,31
 516 150 516 150 464 106.5 c 128,-1,32
 412 63 412 63 317 53 c 1,33,-1
 317 -58 l 1,34,-1
 253 -58 l 1,0,-1
253 417 m 1,35,-1
 253 594 l 1,36,37
 199 590 199 590 173.5 569 c 128,-1,38
 148 548 148 548 148 515 c 0,39,40
 148 475 148 475 170.5 453.5 c 128,-1,41
 193 432 193 432 253 417 c 1,35,-1
317 131 m 1,42,43
 376 137 376 137 403 158.5 c 128,-1,44
 430 180 430 180 430 214 c 0,45,46
 430 252 430 252 406 271.5 c 128,-1,47
 382 291 382 291 317 307 c 1,48,-1
 317 131 l 1,42,43
EndSplineSet
Validated: 1
EndChar

StartChar: uni2135
Encoding: 8501 8501 187
Width: 609
Flags: W
LayerCount: 2
Fore
SplineSet
523 -26 m 1,0,1
 485 27 485 27 437.5 90.5 c 128,-1,2
 390 154 390 154 337.5 221.5 c 128,-1,3
 285 289 285 289 230 353 c 1,4,5
 166 265 166 265 140 172 c 128,-1,6
 114 79 114 79 110 -1 c 1,7,-1
 37 -1 l 1,8,9
 40 93 40 93 73.5 199 c 128,-1,10
 107 305 107 305 186 404 c 1,11,12
 148 447 148 447 111.5 483.5 c 128,-1,13
 75 520 75 520 43 549 c 1,14,-1
 97 601 l 1,15,16
 162 540 162 540 235 457 c 128,-1,17
 308 374 308 374 375 288 c 1,18,19
 414 334 414 334 438.5 387 c 128,-1,20
 463 440 463 440 475.5 491.5 c 128,-1,21
 488 543 488 543 488 583 c 1,22,-1
 566 583 l 1,23,24
 562 528 562 528 544 466 c 128,-1,25
 526 404 526 404 494 344 c 128,-1,26
 462 284 462 284 416 235 c 1,27,28
 463 175 463 175 503 120.5 c 128,-1,29
 543 66 543 66 576 20 c 1,30,-1
 523 -26 l 1,0,1
EndSplineSet
Validated: 1
EndChar

StartChar: uni224C
Encoding: 8780 8780 188
Width: 572
Flags: W
LayerCount: 2
Fore
SplineSet
171 451 m 0,0,1
 101 451 101 451 51 505 c 1,2,-1
 51 582 l 1,3,4
 79 554 79 554 109.5 538.5 c 128,-1,5
 140 523 140 523 166 523 c 0,6,7
 212 523 212 523 276 552 c 0,8,9
 341 582 341 582 402 582 c 0,10,11
 471 582 471 582 521 529 c 1,12,-1
 521 451 l 1,13,14
 492 480 492 480 462 495 c 128,-1,15
 432 510 432 510 408 510 c 0,16,17
 361 510 361 510 297 481 c 0,18,19
 233 451 233 451 171 451 c 0,0,1
51 318 m 1,20,-1
 51 389 l 1,21,-1
 521 389 l 1,22,-1
 521 318 l 1,23,-1
 51 318 l 1,20,-1
51 158 m 1,24,-1
 51 229 l 1,25,-1
 521 229 l 1,26,-1
 521 158 l 1,27,-1
 51 158 l 1,24,-1
EndSplineSet
Validated: 1
EndChar

StartChar: uni224A
Encoding: 8778 8778 189
Width: 572
Flags: W
LayerCount: 2
Fore
SplineSet
51 450 m 1,0,-1
 51 528 l 1,1,2
 101 581 101 581 170 581 c 0,3,4
 232 581 232 581 296 551 c 0,5,6
 360 522 360 522 406 522 c 0,7,8
 432 522 432 522 462.5 537.5 c 128,-1,9
 493 553 493 553 521 581 c 1,10,-1
 521 504 l 1,11,12
 472 450 472 450 401 450 c 0,13,14
 340 450 340 450 275 480 c 0,15,16
 211 509 211 509 164 509 c 0,17,18
 140 509 140 509 110 494 c 128,-1,19
 80 479 80 479 51 450 c 1,0,-1
51 290 m 1,20,-1
 51 368 l 1,21,22
 101 421 101 421 170 421 c 0,23,24
 232 421 232 421 296 391 c 0,25,26
 360 362 360 362 406 362 c 0,27,28
 432 362 432 362 462.5 377.5 c 128,-1,29
 493 393 493 393 521 421 c 1,30,-1
 521 344 l 1,31,32
 472 290 472 290 401 290 c 0,33,34
 340 290 340 290 275 320 c 0,35,36
 211 349 211 349 164 349 c 0,37,38
 140 349 140 349 110 334 c 128,-1,39
 80 319 80 319 51 290 c 1,20,-1
51 158 m 1,40,-1
 51 229 l 1,41,-1
 521 229 l 1,42,-1
 521 158 l 1,43,-1
 51 158 l 1,40,-1
EndSplineSet
Validated: 1
EndChar

StartChar: uni2250
Encoding: 8784 8784 190
Width: 572
Flags: W
LayerCount: 2
Fore
SplineSet
286 562 m 256,0,1
 261 562 261 562 243.5 579.5 c 128,-1,2
 226 597 226 597 226 622 c 256,3,4
 226 647 226 647 243.5 664.5 c 128,-1,5
 261 682 261 682 286 682 c 256,6,7
 311 682 311 682 328.5 664.5 c 128,-1,8
 346 647 346 647 346 622 c 256,9,10
 346 597 346 597 328.5 579.5 c 128,-1,11
 311 562 311 562 286 562 c 256,0,1
51 416 m 1,12,-1
 51 487 l 1,13,-1
 521 487 l 1,14,-1
 521 416 l 1,15,-1
 51 416 l 1,12,-1
51 217 m 1,16,-1
 51 288 l 1,17,-1
 521 288 l 1,18,-1
 521 217 l 1,19,-1
 51 217 l 1,16,-1
EndSplineSet
Validated: 1
EndChar

StartChar: uni2252
Encoding: 8786 8786 191
Width: 572
Flags: W
LayerCount: 2
Fore
SplineSet
111 562 m 256,0,1
 86 562 86 562 68.5 579.5 c 128,-1,2
 51 597 51 597 51 622 c 256,3,4
 51 647 51 647 68.5 664.5 c 128,-1,5
 86 682 86 682 111 682 c 256,6,7
 136 682 136 682 153.5 664.5 c 128,-1,8
 171 647 171 647 171 622 c 256,9,10
 171 597 171 597 153.5 579.5 c 128,-1,11
 136 562 136 562 111 562 c 256,0,1
51 416 m 1,12,-1
 51 487 l 1,13,-1
 521 487 l 1,14,-1
 521 416 l 1,15,-1
 51 416 l 1,12,-1
51 217 m 1,16,-1
 51 288 l 1,17,-1
 521 288 l 1,18,-1
 521 217 l 1,19,-1
 51 217 l 1,16,-1
461 22 m 256,20,21
 436 22 436 22 418.5 39.5 c 128,-1,22
 401 57 401 57 401 82 c 256,23,24
 401 107 401 107 418.5 124.5 c 128,-1,25
 436 142 436 142 461 142 c 256,26,27
 486 142 486 142 503.5 124.5 c 128,-1,28
 521 107 521 107 521 82 c 256,29,30
 521 57 521 57 503.5 39.5 c 128,-1,31
 486 22 486 22 461 22 c 256,20,21
EndSplineSet
Validated: 1
EndChar

StartChar: uni2243
Encoding: 8771 8771 192
Width: 572
Flags: W
LayerCount: 2
Fore
SplineSet
51 379 m 1,0,-1
 51 457 l 1,1,2
 101 510 101 510 170 510 c 0,3,4
 232 510 232 510 296 480 c 0,5,6
 360 451 360 451 406 451 c 0,7,8
 432 451 432 451 462.5 466.5 c 128,-1,9
 493 482 493 482 521 510 c 1,10,-1
 521 433 l 1,11,12
 472 379 472 379 401 379 c 0,13,14
 340 379 340 379 275 409 c 0,15,16
 211 438 211 438 164 438 c 0,17,18
 140 438 140 438 110 423 c 128,-1,19
 80 408 80 408 51 379 c 1,0,-1
51 246 m 1,20,-1
 51 317 l 1,21,-1
 521 317 l 1,22,-1
 521 246 l 1,23,-1
 51 246 l 1,20,-1
EndSplineSet
Validated: 1
EndChar

StartChar: uni2235
Encoding: 8757 8757 193
Width: 572
Flags: W
LayerCount: 2
Fore
SplineSet
461 463 m 256,0,1
 436 463 436 463 418.5 480.5 c 128,-1,2
 401 498 401 498 401 523 c 256,3,4
 401 548 401 548 418.5 565.5 c 128,-1,5
 436 583 436 583 461 583 c 256,6,7
 486 583 486 583 503.5 565.5 c 128,-1,8
 521 548 521 548 521 523 c 256,9,10
 521 498 521 498 503.5 480.5 c 128,-1,11
 486 463 486 463 461 463 c 256,0,1
111 463 m 256,12,13
 86 463 86 463 68.5 480.5 c 128,-1,14
 51 498 51 498 51 523 c 256,15,16
 51 548 51 548 68.5 565.5 c 128,-1,17
 86 583 86 583 111 583 c 256,18,19
 136 583 136 583 153.5 565.5 c 128,-1,20
 171 548 171 548 171 523 c 256,21,22
 171 498 171 498 153.5 480.5 c 128,-1,23
 136 463 136 463 111 463 c 256,12,13
286 122 m 256,24,25
 261 122 261 122 243.5 139.5 c 128,-1,26
 226 157 226 157 226 182 c 256,27,28
 226 207 226 207 243.5 224.5 c 128,-1,29
 261 242 261 242 286 242 c 256,30,31
 311 242 311 242 328.5 224.5 c 128,-1,32
 346 207 346 207 346 182 c 256,33,34
 346 157 346 157 328.5 139.5 c 128,-1,35
 311 122 311 122 286 122 c 256,24,25
EndSplineSet
Validated: 1
EndChar

StartChar: uni2136
Encoding: 8502 8502 194
Width: 530
Flags: W
LayerCount: 2
Fore
SplineSet
34 0 m 1,0,-1
 34 61 l 1,1,-1
 344 61 l 1,2,-1
 344 358 l 2,3,4
 344 446 344 446 309.5 483 c 128,-1,5
 275 520 275 520 185 520 c 2,6,-1
 56 520 l 1,7,-1
 56 581 l 1,8,-1
 185 581 l 2,9,10
 269 581 269 581 319 559.5 c 128,-1,11
 369 538 369 538 391 487 c 128,-1,12
 413 436 413 436 413 347 c 2,13,-1
 413 61 l 1,14,-1
 490 61 l 1,15,-1
 490 0 l 1,16,-1
 34 0 l 1,0,-1
EndSplineSet
Validated: 1
EndChar

StartChar: uni226C
Encoding: 8812 8812 195
Width: 348
Flags: W
LayerCount: 2
Fore
SplineSet
52 0 m 1,0,1
 75 20 75 20 95 44.5 c 128,-1,2
 115 69 115 69 134 96 c 1,3,4
 51 220 51 220 51 377 c 0,5,6
 51 535 51 535 134 662 c 1,7,8
 118 688 118 688 97 712 c 128,-1,9
 76 736 76 736 51 760 c 1,10,-1
 131 760 l 1,11,12
 142 750 142 750 152.5 738 c 128,-1,13
 163 726 163 726 173 714 c 1,14,15
 187 730 187 730 198.5 741.5 c 128,-1,16
 210 753 210 753 217 760 c 1,17,-1
 296 760 l 1,18,19
 247 713 247 713 213 662 c 1,20,21
 297 533 297 533 297 377 c 0,22,23
 297 222 297 222 213 96 c 1,24,25
 230 70 230 70 251 46 c 128,-1,26
 272 22 272 22 295 0 c 1,27,-1
 217 0 l 1,28,29
 204 12 204 12 193 23.5 c 128,-1,30
 182 35 182 35 173 45 c 1,31,32
 164 33 164 33 131 0 c 1,33,-1
 52 0 l 1,0,1
173 155 m 1,34,35
 199 213 199 213 211 251 c 128,-1,36
 223 289 223 289 226 318.5 c 128,-1,37
 229 348 229 348 229 378 c 0,38,39
 229 410 229 410 225.5 440 c 128,-1,40
 222 470 222 470 210.5 508 c 128,-1,41
 199 546 199 546 173 602 c 1,42,43
 151 554 151 554 139.5 516.5 c 128,-1,44
 128 479 128 479 123.5 446 c 128,-1,45
 119 413 119 413 119 378 c 256,46,47
 119 343 119 343 123.5 310 c 128,-1,48
 128 277 128 277 139.5 240 c 128,-1,49
 151 203 151 203 173 155 c 1,34,35
EndSplineSet
Validated: 1
EndChar

StartChar: uni22C8
Encoding: 8904 8904 196
Width: 734
Flags: W
LayerCount: 2
Fore
SplineSet
90 0 m 1,0,-1
 51 14 l 1,1,-1
 51 640 l 1,2,-1
 90 654 l 1,3,-1
 367 378 l 1,4,-1
 644 654 l 1,5,-1
 683 640 l 1,6,-1
 683 14 l 1,7,-1
 644 0 l 1,8,-1
 366 276 l 1,9,-1
 90 0 l 1,0,-1
612 132 m 1,10,-1
 612 522 l 1,11,-1
 418 328 l 1,12,-1
 612 132 l 1,10,-1
122 133 m 1,13,-1
 316 328 l 1,14,-1
 122 520 l 1,15,-1
 122 133 l 1,13,-1
EndSplineSet
Validated: 1
EndChar

StartChar: uni2254
Encoding: 8788 8788 197
Width: 617
Flags: W
LayerCount: 2
Fore
SplineSet
111 392 m 256,0,1
 86 392 86 392 68.5 409.5 c 128,-1,2
 51 427 51 427 51 452 c 256,3,4
 51 477 51 477 68.5 494.5 c 128,-1,5
 86 512 86 512 111 512 c 256,6,7
 136 512 136 512 153.5 494.5 c 128,-1,8
 171 477 171 477 171 452 c 256,9,10
 171 427 171 427 153.5 409.5 c 128,-1,11
 136 392 136 392 111 392 c 256,0,1
226 416 m 1,12,-1
 226 487 l 1,13,-1
 566 487 l 1,14,-1
 566 416 l 1,15,-1
 226 416 l 1,12,-1
111 192 m 256,16,17
 86 192 86 192 68.5 209.5 c 128,-1,18
 51 227 51 227 51 252 c 256,19,20
 51 277 51 277 68.5 294.5 c 128,-1,21
 86 312 86 312 111 312 c 256,22,23
 136 312 136 312 153.5 294.5 c 128,-1,24
 171 277 171 277 171 252 c 256,25,26
 171 227 171 227 153.5 209.5 c 128,-1,27
 136 192 136 192 111 192 c 256,16,17
226 217 m 1,28,-1
 226 288 l 1,29,-1
 566 288 l 1,30,-1
 566 217 l 1,31,-1
 226 217 l 1,28,-1
EndSplineSet
Validated: 1
EndChar

StartChar: uni2201
Encoding: 8705 8705 198
Width: 431
Flags: W
LayerCount: 2
Fore
SplineSet
219 -12 m 0,0,1
 132 -12 132 -12 91.5 46 c 128,-1,2
 51 104 51 104 51 221 c 2,3,-1
 51 493 l 2,4,5
 51 606 51 606 95 666.5 c 128,-1,6
 139 727 139 727 219 727 c 0,7,8
 298 727 298 727 339 668.5 c 128,-1,9
 380 610 380 610 380 498 c 1,10,-1
 300 498 l 1,11,12
 300 576 300 576 280.5 613 c 128,-1,13
 261 650 261 650 217 650 c 0,14,15
 171 650 171 650 152 612 c 128,-1,16
 133 574 133 574 133 486 c 2,17,-1
 133 229 l 2,18,19
 133 143 133 143 153.5 104 c 128,-1,20
 174 65 174 65 220 65 c 0,21,22
 261 65 261 65 280.5 101 c 128,-1,23
 300 137 300 137 300 216 c 1,24,-1
 380 216 l 1,25,26
 380 106 380 106 338 47 c 128,-1,27
 296 -12 296 -12 219 -12 c 0,0,1
EndSplineSet
Validated: 1
EndChar

StartChar: uni220D
Encoding: 8717 8717 199
Width: 556
Flags: W
LayerCount: 2
Fore
SplineSet
51 133 m 1,0,-1
 51 204 l 1,1,-1
 256 204 l 2,2,3
 339 204 339 204 381 234 c 128,-1,4
 423 264 423 264 432 317 c 1,5,-1
 51 317 l 1,6,-1
 51 388 l 1,7,-1
 432 388 l 1,8,9
 423 441 423 441 381 471 c 128,-1,10
 339 501 339 501 256 501 c 2,11,-1
 51 501 l 1,12,-1
 51 572 l 1,13,-1
 248 572 l 2,14,15
 374 572 374 572 439.5 516 c 128,-1,16
 505 460 505 460 505 352 c 0,17,18
 505 245 505 245 439.5 189 c 128,-1,19
 374 133 374 133 248 133 c 2,20,-1
 51 133 l 1,0,-1
EndSplineSet
Validated: 1
EndChar

StartChar: uni22B3
Encoding: 8883 8883 200
Width: 572
Flags: W
LayerCount: 2
Fore
SplineSet
51 164 m 1,0,-1
 51 541 l 1,1,-1
 521 369 l 1,2,-1
 521 335 l 1,3,-1
 51 164 l 1,0,-1
118 256 m 1,4,-1
 403 351 l 1,5,-1
 118 449 l 1,6,-1
 118 256 l 1,4,-1
EndSplineSet
Validated: 1
EndChar

StartChar: uni22B5
Encoding: 8885 8885 201
Width: 572
Flags: W
LayerCount: 2
Fore
SplineSet
51 221 m 1,0,-1
 51 598 l 1,1,-1
 521 426 l 1,2,-1
 521 392 l 1,3,-1
 51 221 l 1,0,-1
118 313 m 1,4,-1
 403 408 l 1,5,-1
 118 506 l 1,6,-1
 118 313 l 1,4,-1
51 102 m 1,7,-1
 51 173 l 1,8,-1
 521 173 l 1,9,-1
 521 102 l 1,10,-1
 51 102 l 1,7,-1
EndSplineSet
Validated: 1
EndChar

StartChar: uni222E
Encoding: 8750 8750 202
Width: 545
Flags: W
LayerCount: 2
Fore
SplineSet
152 -240 m 0,0,1
 113 -240 113 -240 84 -230 c 1,2,-1
 84 -158 l 1,3,4
 114 -170 114 -170 144 -170 c 0,5,6
 230 -170 230 -170 230 -56 c 2,7,-1
 230 134 l 1,8,9
 148 147 148 147 99.5 198.5 c 128,-1,10
 51 250 51 250 51 322 c 0,11,12
 51 395 51 395 100.5 446 c 128,-1,13
 150 497 150 497 230 510 c 1,14,-1
 230 707 l 2,15,16
 230 885 230 885 391 885 c 0,17,18
 432 885 432 885 454 876 c 1,19,-1
 454 803 l 1,20,21
 426 815 426 815 398 815 c 0,22,23
 315 815 315 815 315 701 c 2,24,-1
 315 510 l 1,25,26
 395 497 395 497 444.5 445.5 c 128,-1,27
 494 394 494 394 494 322 c 0,28,29
 494 249 494 249 444.5 198 c 128,-1,30
 395 147 395 147 315 134 c 1,31,-1
 315 -62 l 2,32,33
 315 -240 315 -240 152 -240 c 0,0,1
230 201 m 1,34,-1
 230 443 l 1,35,36
 180 433 180 433 151 399.5 c 128,-1,37
 122 366 122 366 122 322 c 0,38,39
 122 276 122 276 151.5 243 c 128,-1,40
 181 210 181 210 230 201 c 1,34,-1
315 201 m 1,41,42
 364 211 364 211 393.5 243.5 c 128,-1,43
 423 276 423 276 423 322 c 0,44,45
 423 367 423 367 394 400.5 c 128,-1,46
 365 434 365 434 315 443 c 1,47,-1
 315 201 l 1,41,42
EndSplineSet
Validated: 1
EndChar

StartChar: uni2210
Encoding: 8720 8720 203
Width: 649
Flags: W
LayerCount: 2
Fore
SplineSet
51 -240 m 1,0,-1
 51 714 l 1,1,-1
 141 714 l 1,2,-1
 141 -160 l 1,3,-1
 508 -160 l 1,4,-1
 508 714 l 1,5,-1
 598 714 l 1,6,-1
 598 -240 l 1,7,-1
 51 -240 l 1,0,-1
EndSplineSet
Validated: 1
EndChar

StartChar: uni22CF
Encoding: 8911 8911 204
Width: 730
Flags: W
LayerCount: 2
Fore
SplineSet
51 0 m 1,0,1
 101 53 101 53 146.5 121 c 128,-1,2
 192 189 192 189 230.5 264.5 c 128,-1,3
 269 340 269 340 297.5 417 c 128,-1,4
 326 494 326 494 342 564 c 1,5,-1
 388 564 l 1,6,7
 405 492 405 492 434.5 414.5 c 128,-1,8
 464 337 464 337 502.5 261 c 128,-1,9
 541 185 541 185 586 117.5 c 128,-1,10
 631 50 631 50 679 0 c 1,11,-1
 593 0 l 1,12,13
 575 18 575 18 550.5 53 c 128,-1,14
 526 88 526 88 499 133 c 128,-1,15
 472 178 472 178 446 227 c 128,-1,16
 420 276 420 276 399.5 324.5 c 128,-1,17
 379 373 379 373 368 413 c 1,18,-1
 362 413 l 1,19,20
 348 363 348 363 320 302.5 c 128,-1,21
 292 242 292 242 258.5 182 c 128,-1,22
 225 122 225 122 192.5 74 c 128,-1,23
 160 26 160 26 137 0 c 1,24,-1
 51 0 l 1,0,1
EndSplineSet
Validated: 1
EndChar

StartChar: uni22CE
Encoding: 8910 8910 205
Width: 730
Flags: W
LayerCount: 2
Fore
SplineSet
342 0 m 1,0,1
 326 70 326 70 298 146 c 128,-1,2
 270 222 270 222 232 297 c 128,-1,3
 194 372 194 372 148 440.5 c 128,-1,4
 102 509 102 509 51 564 c 1,5,-1
 137 564 l 1,6,7
 155 544 155 544 180 508.5 c 128,-1,8
 205 473 205 473 231.5 428.5 c 128,-1,9
 258 384 258 384 284 335 c 128,-1,10
 310 286 310 286 330.5 238.5 c 128,-1,11
 351 191 351 191 362 151 c 1,12,-1
 368 151 l 1,13,14
 380 192 380 192 400.5 240.5 c 128,-1,15
 421 289 421 289 447 338 c 128,-1,16
 473 387 473 387 500 432 c 128,-1,17
 527 477 527 477 551 511.5 c 128,-1,18
 575 546 575 546 593 564 c 1,19,-1
 679 564 l 1,20,21
 631 514 631 514 586 447 c 128,-1,22
 541 380 541 380 502.5 304.5 c 128,-1,23
 464 229 464 229 434.5 151 c 128,-1,24
 405 73 405 73 388 0 c 1,25,-1
 342 0 l 1,0,1
EndSplineSet
Validated: 1
EndChar

StartChar: uni2138
Encoding: 8504 8504 206
Width: 458
Flags: W
LayerCount: 2
Fore
SplineSet
290 0 m 1,0,-1
 290 520 l 1,1,-1
 2 520 l 1,2,-1
 2 581 l 1,3,-1
 436 581 l 1,4,-1
 436 520 l 1,5,-1
 359 520 l 1,6,-1
 359 0 l 1,7,-1
 290 0 l 1,0,-1
EndSplineSet
Validated: 1
EndChar

StartChar: uni225C
Encoding: 8796 8796 207
Width: 572
Flags: W
LayerCount: 2
Fore
SplineSet
138 389 m 1,0,-1
 127 411 l 1,1,-1
 275 695 l 1,2,-1
 297 695 l 1,3,-1
 445 411 l 1,4,-1
 434 389 l 1,5,-1
 138 389 l 1,0,-1
209 444 m 1,6,-1
 363 444 l 1,7,-1
 286 600 l 1,8,-1
 209 444 l 1,6,-1
51 249 m 1,9,-1
 51 320 l 1,10,-1
 521 320 l 1,11,-1
 521 249 l 1,12,-1
 51 249 l 1,9,-1
51 50 m 1,13,-1
 51 121 l 1,14,-1
 521 121 l 1,15,-1
 521 50 l 1,16,-1
 51 50 l 1,13,-1
EndSplineSet
Validated: 1
EndChar

StartChar: uni22C4
Encoding: 8900 8900 208
Width: 589
Flags: W
LayerCount: 2
Fore
SplineSet
295 109 m 1,0,-1
 51 353 l 1,1,-1
 295 596 l 1,2,-1
 538 353 l 1,3,-1
 295 109 l 1,0,-1
295 208 m 1,4,-1
 440 353 l 1,5,-1
 295 498 l 1,6,-1
 150 353 l 1,7,-1
 295 208 l 1,4,-1
EndSplineSet
Validated: 1
EndChar

StartChar: uni224F
Encoding: 8783 8783 209
Width: 572
Flags: W
LayerCount: 2
Fore
SplineSet
51 416 m 1,0,-1
 51 487 l 1,1,-1
 143 487 l 1,2,3
 143 558 143 558 181 594 c 128,-1,4
 219 630 219 630 286 630 c 0,5,6
 354 630 354 630 391.5 594 c 128,-1,7
 429 558 429 558 429 487 c 1,8,-1
 521 487 l 1,9,-1
 521 416 l 1,10,-1
 356 416 l 1,11,-1
 356 487 l 2,12,13
 356 519 356 519 337 539 c 128,-1,14
 318 559 318 559 286 559 c 0,15,16
 255 559 255 559 235.5 539 c 128,-1,17
 216 519 216 519 216 487 c 2,18,-1
 216 416 l 1,19,-1
 51 416 l 1,0,-1
51 217 m 1,20,-1
 51 288 l 1,21,-1
 521 288 l 1,22,-1
 521 217 l 1,23,-1
 51 217 l 1,20,-1
EndSplineSet
Validated: 1
EndChar

StartChar: uni2223
Encoding: 8739 8739 210
Width: 173
Flags: W
LayerCount: 2
Fore
SplineSet
51 -120 m 1,0,-1
 51 760 l 1,1,-1
 122 760 l 1,2,-1
 122 -120 l 1,3,-1
 51 -120 l 1,0,-1
EndSplineSet
Validated: 1
EndChar

StartChar: uni22C7
Encoding: 8903 8903 211
Width: 572
Flags: W
LayerCount: 2
Fore
SplineSet
287 488 m 0,0,1
 263 488 263 488 245 505.5 c 128,-1,2
 227 523 227 523 227 548 c 256,3,4
 227 573 227 573 244.5 590.5 c 128,-1,5
 262 608 262 608 287 608 c 0,6,7
 313 608 313 608 330 589.5 c 128,-1,8
 347 571 347 571 347 548 c 0,9,10
 347 523 347 523 329.5 505.5 c 128,-1,11
 312 488 312 488 287 488 c 0,0,1
118 132 m 1,12,-1
 66 183 l 1,13,-1
 200 317 l 1,14,-1
 51 317 l 1,15,-1
 51 388 l 1,16,-1
 200 388 l 1,17,-1
 65 522 l 1,18,-1
 117 574 l 1,19,-1
 286 403 l 1,20,-1
 457 574 l 1,21,-1
 507 523 l 1,22,-1
 371 388 l 1,23,-1
 521 388 l 1,24,-1
 521 317 l 1,25,-1
 372 317 l 1,26,-1
 506 183 l 1,27,-1
 456 132 l 1,28,-1
 285 301 l 1,29,-1
 118 132 l 1,12,-1
287 96 m 256,30,31
 262 96 262 96 244.5 113.5 c 128,-1,32
 227 131 227 131 227 156 c 256,33,34
 227 181 227 181 244.5 198.5 c 128,-1,35
 262 216 262 216 287 216 c 0,36,37
 313 216 313 216 330 197.5 c 128,-1,38
 347 179 347 179 347 156 c 0,39,40
 347 131 347 131 329.5 113.5 c 128,-1,41
 312 96 312 96 287 96 c 256,30,31
EndSplineSet
Validated: 1
EndChar

StartChar: uni22EB
Encoding: 8939 8939 212
Width: 572
Flags: W
LayerCount: 2
Fore
SplineSet
157 66 m 1,0,-1
 96 92 l 1,1,-1
 135 194 l 1,2,-1
 51 164 l 1,3,-1
 51 541 l 1,4,-1
 241 471 l 1,5,-1
 326 692 l 1,6,-1
 387 666 l 1,7,-1
 303 449 l 1,8,-1
 521 369 l 1,9,-1
 521 335 l 1,10,-1
 217 224 l 1,11,-1
 157 66 l 1,0,-1
118 256 m 1,12,-1
 165 271 l 1,13,-1
 219 414 l 1,14,-1
 118 449 l 1,15,-1
 118 256 l 1,12,-1
246 298 m 1,16,-1
 403 351 l 1,17,-1
 282 393 l 1,18,-1
 246 298 l 1,16,-1
EndSplineSet
Validated: 1
EndChar

StartChar: uni22ED
Encoding: 8941 8941 213
Width: 572
Flags: W
LayerCount: 2
Fore
SplineSet
144 -74 m 1,0,-1
 82 -56 l 1,1,-1
 123 102 l 1,2,-1
 51 102 l 1,3,-1
 51 173 l 1,4,-1
 142 173 l 1,5,-1
 165 262 l 1,6,-1
 51 221 l 1,7,-1
 51 598 l 1,8,-1
 235 530 l 1,9,-1
 294 755 l 1,10,-1
 356 737 l 1,11,-1
 296 508 l 1,12,-1
 521 426 l 1,13,-1
 521 392 l 1,14,-1
 239 289 l 1,15,-1
 208 173 l 1,16,-1
 521 173 l 1,17,-1
 521 102 l 1,18,-1
 190 102 l 1,19,-1
 144 -74 l 1,0,-1
118 313 m 1,20,-1
 184 335 l 1,21,-1
 220 471 l 1,22,-1
 118 506 l 1,23,-1
 118 313 l 1,20,-1
257 359 m 1,24,-1
 403 408 l 1,25,-1
 281 450 l 1,26,-1
 257 359 l 1,24,-1
EndSplineSet
Validated: 1
EndChar

StartChar: uni2224
Encoding: 8740 8740 214
Width: 431
Flags: W
LayerCount: 2
Fore
SplineSet
97 142 m 5,0,-1
 51 187 l 5,1,-1
 184 329 l 5,2,-1
 184 760 l 5,3,-1
 255 760 l 5,4,-1
 255 406 l 5,5,-1
 332 488 l 5,6,-1
 380 444 l 5,7,-1
 255 311 l 5,8,-1
 255 -120 l 5,9,-1
 184 -120 l 5,10,-1
 184 235 l 5,11,-1
 97 142 l 5,0,-1
EndSplineSet
Validated: 1
EndChar

StartChar: uni22AE
Encoding: 8878 8878 215
Width: 836
Flags: W
LayerCount: 2
Fore
SplineSet
438 -9 m 1,0,-1
 377 17 l 1,1,-1
 494 318 l 1,2,-1
 312 318 l 1,3,-1
 312 26 l 1,4,-1
 241 26 l 1,5,-1
 241 680 l 1,6,-1
 312 680 l 1,7,-1
 312 389 l 1,8,-1
 521 389 l 1,9,-1
 649 717 l 1,10,-1
 710 691 l 1,11,-1
 593 389 l 1,12,-1
 785 389 l 1,13,-1
 785 318 l 1,14,-1
 565 318 l 1,15,-1
 438 -9 l 1,0,-1
51 26 m 1,16,-1
 51 680 l 1,17,-1
 122 680 l 1,18,-1
 122 26 l 1,19,-1
 51 26 l 1,16,-1
EndSplineSet
Validated: 1
EndChar

StartChar: uni22E0
Encoding: 8928 8928 216
Width: 542
Flags: W
LayerCount: 2
Fore
SplineSet
242 -74 m 1,0,-1
 180 -56 l 1,1,-1
 232 145 l 1,2,3
 180 170 180 170 135 185 c 128,-1,4
 90 200 90 200 51 207 c 1,5,-1
 51 278 l 1,6,7
 148 260 148 260 250 212 c 1,8,-1
 278 321 l 1,9,10
 163 370 163 370 51 390 c 1,11,-1
 51 436 l 1,12,13
 136 453 136 453 206.5 476 c 128,-1,14
 277 499 277 499 332 527 c 1,15,-1
 392 755 l 1,16,-1
 454 737 l 1,17,-1
 410 571 l 1,18,19
 456 602 456 602 491 638 c 1,20,-1
 491 557 l 1,21,22
 472 536 472 536 446 516.5 c 128,-1,23
 420 497 420 497 386 479 c 1,24,-1
 355 360 l 1,25,26
 434 322 434 322 491 271 c 1,27,-1
 491 183 l 1,28,29
 460 215 460 215 421.5 242 c 128,-1,30
 383 269 383 269 338 293 c 1,31,-1
 309 183 l 1,32,33
 365 152 365 152 411 119 c 128,-1,34
 457 86 457 86 491 50 c 1,35,-1
 491 -42 l 1,36,37
 466 -7 466 -7 414 34 c 128,-1,38
 362 75 362 75 291 115 c 1,39,-1
 242 -74 l 1,0,-1
295 386 m 1,40,-1
 311 445 l 1,41,42
 283 435 283 435 258 427.5 c 128,-1,43
 233 420 233 420 212 416 c 1,44,-1
 212 412 l 1,45,46
 238 405 238 405 258.5 399 c 128,-1,47
 279 393 279 393 295 386 c 1,40,-1
EndSplineSet
Validated: 1
EndChar

StartChar: uni22AC
Encoding: 8876 8876 217
Width: 756
Flags: W
LayerCount: 2
Fore
SplineSet
283 -10 m 1,0,-1
 222 16 l 1,1,-1
 339 318 l 1,2,-1
 122 318 l 1,3,-1
 122 26 l 1,4,-1
 51 26 l 1,5,-1
 51 680 l 1,6,-1
 122 680 l 1,7,-1
 122 389 l 1,8,-1
 367 389 l 1,9,-1
 494 716 l 1,10,-1
 555 690 l 1,11,-1
 438 389 l 1,12,-1
 705 389 l 1,13,-1
 705 318 l 1,14,-1
 410 318 l 1,15,-1
 283 -10 l 1,0,-1
EndSplineSet
Validated: 1
EndChar

StartChar: uni22E1
Encoding: 8929 8929 218
Width: 542
Flags: W
LayerCount: 2
Fore
SplineSet
205 -74 m 1,0,-1
 143 -56 l 1,1,-1
 176 70 l 1,2,3
 133 41 133 41 102 13 c 128,-1,4
 71 -15 71 -15 51 -42 c 1,5,-1
 51 50 l 1,6,7
 107 108 107 108 200 164 c 1,8,-1
 238 309 l 1,9,10
 119 253 119 253 51 183 c 1,11,-1
 51 271 l 1,12,13
 137 347 137 347 260 391 c 1,14,-1
 270 431 l 1,15,16
 200 454 200 454 141.5 487 c 128,-1,17
 83 520 83 520 51 557 c 1,18,-1
 51 638 l 1,19,20
 133 550 133 550 287 494 c 1,21,-1
 355 755 l 1,22,-1
 417 737 l 1,23,-1
 348 472 l 1,24,25
 419 450 419 450 491 436 c 1,26,-1
 491 390 l 1,27,28
 398 373 398 373 313 341 c 1,29,-1
 278 205 l 1,30,31
 335 233 335 233 388.5 251 c 128,-1,32
 442 269 442 269 491 278 c 1,33,-1
 491 207 l 1,34,35
 439 199 439 199 380 177 c 128,-1,36
 321 155 321 155 255 118 c 1,37,-1
 205 -74 l 1,0,-1
EndSplineSet
Validated: 1
EndChar

StartChar: uni2214
Encoding: 8724 8724 219
Width: 572
Flags: W
LayerCount: 2
Fore
SplineSet
285 636 m 0,0,1
 259 636 259 636 244 652.5 c 128,-1,2
 229 669 229 669 229 697 c 0,3,4
 229 726 229 726 244 741.5 c 128,-1,5
 259 757 259 757 285 757 c 256,6,7
 311 757 311 757 325.5 741 c 128,-1,8
 340 725 340 725 340 697 c 0,9,10
 340 665 340 665 324 650.5 c 128,-1,11
 308 636 308 636 285 636 c 0,0,1
250 109 m 1,12,-1
 250 316 l 1,13,-1
 51 316 l 1,14,-1
 51 387 l 1,15,-1
 250 387 l 1,16,-1
 250 593 l 1,17,-1
 322 593 l 1,18,-1
 322 387 l 1,19,-1
 521 387 l 1,20,-1
 521 316 l 1,21,-1
 322 316 l 1,22,-1
 322 109 l 1,23,-1
 250 109 l 1,12,-1
EndSplineSet
Validated: 1
EndChar

StartChar: uni22D2
Encoding: 8914 8914 220
Width: 684
Flags: W
LayerCount: 2
Fore
SplineSet
51 54 m 1,0,-1
 51 307 l 2,1,2
 51 472 51 472 127.5 561.5 c 128,-1,3
 204 651 204 651 342 651 c 0,4,5
 485 651 485 651 559 563 c 128,-1,6
 633 475 633 475 633 308 c 2,7,-1
 633 54 l 1,8,-1
 562 54 l 1,9,-1
 562 308 l 2,10,11
 562 579 562 579 342 579 c 0,12,13
 231 579 231 579 176.5 512.5 c 128,-1,14
 122 446 122 446 122 308 c 2,15,-1
 122 54 l 1,16,-1
 51 54 l 1,0,-1
187 54 m 1,17,-1
 187 309 l 2,18,19
 187 408 187 408 225.5 461 c 128,-1,20
 264 514 264 514 342 514 c 0,21,22
 419 514 419 514 458 460.5 c 128,-1,23
 497 407 497 407 497 309 c 2,24,-1
 497 54 l 1,25,-1
 426 54 l 1,26,-1
 426 309 l 2,27,28
 426 442 426 442 342 442 c 256,29,30
 258 442 258 442 258 309 c 2,31,-1
 258 54 l 1,32,-1
 187 54 l 1,17,-1
EndSplineSet
Validated: 1
EndChar

StartChar: uni22D0
Encoding: 8912 8912 221
Width: 699
Flags: W
LayerCount: 2
Fore
SplineSet
394 62 m 2,0,1
 225 62 225 62 138 136.5 c 128,-1,2
 51 211 51 211 51 353 c 0,3,4
 51 493 51 493 140.5 568.5 c 128,-1,5
 230 644 230 644 394 644 c 2,6,-1
 648 644 l 1,7,-1
 648 573 l 1,8,-1
 394 573 l 2,9,10
 123 573 123 573 123 353 c 256,11,12
 123 133 123 133 394 133 c 2,13,-1
 648 133 l 1,14,-1
 648 62 l 1,15,-1
 394 62 l 2,0,1
393 198 m 2,16,17
 293 198 293 198 240.5 237 c 128,-1,18
 188 276 188 276 188 353 c 256,19,20
 188 430 188 430 240.5 469 c 128,-1,21
 293 508 293 508 393 508 c 2,22,-1
 648 508 l 1,23,-1
 648 437 l 1,24,-1
 393 437 l 2,25,26
 260 437 260 437 260 353 c 0,27,28
 260 310 260 310 292.5 289.5 c 128,-1,29
 325 269 325 269 393 269 c 2,30,-1
 648 269 l 1,31,-1
 648 198 l 1,32,-1
 393 198 l 2,16,17
EndSplineSet
Validated: 1
EndChar

StartChar: uni22D1
Encoding: 8913 8913 222
Width: 699
Flags: W
LayerCount: 2
Fore
SplineSet
51 62 m 1,0,-1
 51 133 l 1,1,-1
 305 133 l 2,2,3
 576 133 576 133 576 353 c 256,4,5
 576 573 576 573 305 573 c 2,6,-1
 51 573 l 1,7,-1
 51 644 l 1,8,-1
 304 644 l 2,9,10
 468 644 468 644 558 568.5 c 128,-1,11
 648 493 648 493 648 353 c 0,12,13
 648 211 648 211 560.5 136.5 c 128,-1,14
 473 62 473 62 305 62 c 2,15,-1
 51 62 l 1,0,-1
51 198 m 1,16,-1
 51 269 l 1,17,-1
 306 269 l 2,18,19
 439 269 439 269 439 353 c 256,20,21
 439 437 439 437 306 437 c 2,22,-1
 51 437 l 1,23,-1
 51 508 l 1,24,-1
 306 508 l 2,25,26
 405 508 405 508 458 469.5 c 128,-1,27
 511 431 511 431 511 353 c 0,28,29
 511 276 511 276 458 237 c 128,-1,30
 405 198 405 198 306 198 c 2,31,-1
 51 198 l 1,16,-1
EndSplineSet
Validated: 1
EndChar

StartChar: uni22D3
Encoding: 8915 8915 223
Width: 684
Flags: W
LayerCount: 2
Fore
SplineSet
342 54 m 0,0,1
 203 54 203 54 127 144 c 128,-1,2
 51 234 51 234 51 398 c 2,3,-1
 51 651 l 1,4,-1
 122 651 l 1,5,-1
 122 397 l 2,6,7
 122 259 122 259 176.5 192.5 c 128,-1,8
 231 126 231 126 342 126 c 0,9,10
 562 126 562 126 562 397 c 2,11,-1
 562 651 l 1,12,-1
 633 651 l 1,13,-1
 633 397 l 2,14,15
 633 229 633 229 559 141.5 c 128,-1,16
 485 54 485 54 342 54 c 0,0,1
342 191 m 0,17,18
 264 191 264 191 225.5 244 c 128,-1,19
 187 297 187 297 187 396 c 2,20,-1
 187 651 l 1,21,-1
 258 651 l 1,22,-1
 258 396 l 2,23,24
 258 263 258 263 342 263 c 256,25,26
 426 263 426 263 426 396 c 2,27,-1
 426 651 l 1,28,-1
 497 651 l 1,29,-1
 497 396 l 2,30,31
 497 296 497 296 458 243.5 c 128,-1,32
 419 191 419 191 342 191 c 0,17,18
EndSplineSet
Validated: 1
EndChar

StartChar: uni220A
Encoding: 8714 8714 224
Width: 556
Flags: W
LayerCount: 2
Fore
SplineSet
308 133 m 2,0,1
 182 133 182 133 116.5 189 c 128,-1,2
 51 245 51 245 51 352 c 0,3,4
 51 461 51 461 117.5 516.5 c 128,-1,5
 184 572 184 572 308 572 c 2,6,-1
 505 572 l 1,7,-1
 505 501 l 1,8,-1
 308 501 l 2,9,10
 140 501 140 501 120 388 c 1,11,-1
 505 388 l 1,12,-1
 505 317 l 1,13,-1
 120 317 l 1,14,15
 138 204 138 204 308 204 c 2,16,-1
 505 204 l 1,17,-1
 505 133 l 1,18,-1
 308 133 l 2,0,1
EndSplineSet
Validated: 1
EndChar

StartChar: uni22EE
Encoding: 8942 8942 225
Width: 222
Flags: W
LayerCount: 2
Fore
SplineSet
111 598 m 256,0,1
 86 598 86 598 68.5 616 c 128,-1,2
 51 634 51 634 51 658 c 0,3,4
 51 683 51 683 68.5 700.5 c 128,-1,5
 86 718 86 718 111 718 c 256,6,7
 136 718 136 718 153.5 701 c 128,-1,8
 171 684 171 684 171 658 c 0,9,10
 171 633 171 633 153.5 615.5 c 128,-1,11
 136 598 136 598 111 598 c 256,0,1
111 292 m 256,12,13
 86 292 86 292 68.5 310 c 128,-1,14
 51 328 51 328 51 352 c 0,15,16
 51 377 51 377 68.5 394.5 c 128,-1,17
 86 412 86 412 111 412 c 0,18,19
 134 412 134 412 152.5 395 c 128,-1,20
 171 378 171 378 171 352 c 0,21,22
 171 327 171 327 153.5 309.5 c 128,-1,23
 136 292 136 292 111 292 c 256,12,13
111 -10 m 256,24,25
 86 -10 86 -10 68.5 8 c 128,-1,26
 51 26 51 26 51 50 c 0,27,28
 51 73 51 73 68 91.5 c 128,-1,29
 85 110 85 110 111 110 c 0,30,31
 136 110 136 110 153.5 92.5 c 128,-1,32
 171 75 171 75 171 50 c 256,33,34
 171 25 171 25 153.5 7.5 c 128,-1,35
 136 -10 136 -10 111 -10 c 256,24,25
EndSplineSet
Validated: 1
EndChar

StartChar: uni2255
Encoding: 8789 8789 226
Width: 617
Flags: W
LayerCount: 2
Fore
SplineSet
506 392 m 256,0,1
 481 392 481 392 463.5 409.5 c 128,-1,2
 446 427 446 427 446 452 c 256,3,4
 446 477 446 477 463.5 494.5 c 128,-1,5
 481 512 481 512 506 512 c 256,6,7
 531 512 531 512 548.5 494.5 c 128,-1,8
 566 477 566 477 566 452 c 256,9,10
 566 427 566 427 548.5 409.5 c 128,-1,11
 531 392 531 392 506 392 c 256,0,1
51 416 m 1,12,-1
 51 487 l 1,13,-1
 391 487 l 1,14,-1
 391 416 l 1,15,-1
 51 416 l 1,12,-1
506 192 m 256,16,17
 481 192 481 192 463.5 209.5 c 128,-1,18
 446 227 446 227 446 252 c 256,19,20
 446 277 446 277 463.5 294.5 c 128,-1,21
 481 312 481 312 506 312 c 256,22,23
 531 312 531 312 548.5 294.5 c 128,-1,24
 566 277 566 277 566 252 c 256,25,26
 566 227 566 227 548.5 209.5 c 128,-1,27
 531 192 531 192 506 192 c 256,16,17
51 217 m 1,28,-1
 51 288 l 1,29,-1
 391 288 l 1,30,-1
 391 217 l 1,31,-1
 51 217 l 1,28,-1
EndSplineSet
Validated: 1
EndChar

StartChar: uni22DD
Encoding: 8925 8925 227
Width: 572
Flags: W
LayerCount: 2
Fore
SplineSet
51 540 m 1,0,-1
 51 611 l 1,1,-1
 521 611 l 1,2,-1
 521 540 l 1,3,-1
 51 540 l 1,0,-1
51 0 m 1,4,-1
 51 78 l 1,5,-1
 417 246 l 1,6,-1
 51 414 l 1,7,-1
 51 492 l 1,8,-1
 521 271 l 1,9,-1
 521 221 l 1,10,-1
 51 0 l 1,4,-1
EndSplineSet
Validated: 1
EndChar

StartChar: uni22DC
Encoding: 8924 8924 228
Width: 572
Flags: W
LayerCount: 2
Fore
SplineSet
51 540 m 1,0,-1
 51 611 l 1,1,-1
 521 611 l 1,2,-1
 521 540 l 1,3,-1
 51 540 l 1,0,-1
521 0 m 1,4,-1
 51 221 l 1,5,-1
 51 271 l 1,6,-1
 521 492 l 1,7,-1
 521 414 l 1,8,-1
 155 246 l 1,9,-1
 521 78 l 1,10,-1
 521 0 l 1,4,-1
EndSplineSet
Validated: 1
EndChar

StartChar: uni22DE
Encoding: 8926 8926 229
Width: 542
Flags: W
LayerCount: 2
Fore
SplineSet
51 328 m 1,0,-1
 51 399 l 1,1,2
 105 408 105 408 169 432.5 c 128,-1,3
 233 457 233 457 295.5 492.5 c 128,-1,4
 358 528 358 528 409.5 568.5 c 128,-1,5
 461 609 461 609 491 648 c 1,6,-1
 491 556 l 1,7,8
 442 504 442 504 369 458 c 128,-1,9
 296 412 296 412 213.5 378 c 128,-1,10
 131 344 131 344 51 328 c 1,0,-1
491 -32 m 1,11,12
 363 102 363 102 51 170 c 1,13,-1
 51 216 l 1,14,15
 131 230 131 230 214 260 c 128,-1,16
 297 290 297 290 369.5 331.5 c 128,-1,17
 442 373 442 373 491 423 c 1,18,-1
 491 335 l 1,19,20
 436 286 436 286 361.5 248.5 c 128,-1,21
 287 211 287 211 212 194 c 1,22,-1
 212 190 l 1,23,24
 263 181 263 181 317 159 c 128,-1,25
 371 137 371 137 417.5 108.5 c 128,-1,26
 464 80 464 80 491 49 c 1,27,-1
 491 -32 l 1,11,12
EndSplineSet
Validated: 1
EndChar

StartChar: uni22DF
Encoding: 8927 8927 230
Width: 542
Flags: W
LayerCount: 2
Fore
SplineSet
491 328 m 1,0,1
 411 344 411 344 328 378 c 128,-1,2
 245 412 245 412 173 458.5 c 128,-1,3
 101 505 101 505 51 556 c 1,4,-1
 51 648 l 1,5,6
 79 610 79 610 130.5 570 c 128,-1,7
 182 530 182 530 245 494.5 c 128,-1,8
 308 459 308 459 372.5 433.5 c 128,-1,9
 437 408 437 408 491 399 c 1,10,-1
 491 328 l 1,0,1
51 -32 m 1,11,-1
 51 49 l 1,12,13
 78 80 78 80 124 108.5 c 128,-1,14
 170 137 170 137 225 159 c 128,-1,15
 280 181 280 181 330 190 c 1,16,-1
 330 194 l 1,17,18
 255 211 255 211 180.5 248.5 c 128,-1,19
 106 286 106 286 51 335 c 1,20,-1
 51 423 l 1,21,22
 101 373 101 373 173.5 331 c 128,-1,23
 246 289 246 289 329 259.5 c 128,-1,24
 412 230 412 230 491 216 c 1,25,-1
 491 170 l 1,26,27
 179 102 179 102 51 -32 c 1,11,-1
EndSplineSet
Validated: 1
EndChar

StartChar: uni224D
Encoding: 8781 8781 231
Width: 572
Flags: W
LayerCount: 2
Fore
SplineSet
286 391 m 0,0,1
 162 391 162 391 51 458 c 1,2,-1
 88 516 l 1,3,4
 135 492 135 492 168.5 480.5 c 128,-1,5
 202 469 202 469 229.5 465.5 c 128,-1,6
 257 462 257 462 286 462 c 0,7,8
 317 462 317 462 344.5 465.5 c 128,-1,9
 372 469 372 469 405 480.5 c 128,-1,10
 438 492 438 492 484 516 c 1,11,-1
 521 458 l 1,12,13
 463 425 463 425 404.5 408 c 128,-1,14
 346 391 346 391 286 391 c 0,0,1
88 194 m 1,15,-1
 51 252 l 1,16,17
 162 319 162 319 286 319 c 0,18,19
 346 319 346 319 404.5 302 c 128,-1,20
 463 285 463 285 521 252 c 1,21,-1
 484 194 l 1,22,23
 437 219 437 219 403.5 230 c 128,-1,24
 370 241 370 241 342.5 244.5 c 128,-1,25
 315 248 315 248 286 248 c 0,26,27
 256 248 256 248 228.5 244.5 c 128,-1,28
 201 241 201 241 168 230 c 128,-1,29
 135 219 135 219 88 194 c 1,15,-1
EndSplineSet
Validated: 1
EndChar

StartChar: uni2259
Encoding: 8793 8793 232
Width: 572
Flags: W
LayerCount: 2
Fore
SplineSet
104 389 m 1,0,-1
 249 663 l 1,1,-1
 323 663 l 1,2,-1
 468 389 l 1,3,-1
 389 389 l 1,4,-1
 286 594 l 1,5,-1
 183 389 l 1,6,-1
 104 389 l 1,0,-1
51 249 m 1,7,-1
 51 320 l 1,8,-1
 521 320 l 1,9,-1
 521 249 l 1,10,-1
 51 249 l 1,7,-1
51 50 m 1,11,-1
 51 121 l 1,12,-1
 521 121 l 1,13,-1
 521 50 l 1,14,-1
 51 50 l 1,11,-1
EndSplineSet
Validated: 1
EndChar

StartChar: uni22A9
Encoding: 8873 8873 233
Width: 836
Flags: W
LayerCount: 2
Fore
SplineSet
241 26 m 1,0,-1
 241 680 l 1,1,-1
 312 680 l 1,2,-1
 312 390 l 1,3,-1
 785 390 l 1,4,-1
 785 319 l 1,5,-1
 312 319 l 1,6,-1
 312 26 l 1,7,-1
 241 26 l 1,0,-1
51 26 m 1,8,-1
 51 680 l 1,9,-1
 122 680 l 1,10,-1
 122 26 l 1,11,-1
 51 26 l 1,8,-1
EndSplineSet
Validated: 1
EndChar

StartChar: uni2251
Encoding: 8785 8785 234
Width: 572
Flags: W
LayerCount: 2
Fore
SplineSet
286 562 m 256,0,1
 261 562 261 562 243.5 579.5 c 128,-1,2
 226 597 226 597 226 622 c 256,3,4
 226 647 226 647 243.5 664.5 c 128,-1,5
 261 682 261 682 286 682 c 256,6,7
 311 682 311 682 328.5 664.5 c 128,-1,8
 346 647 346 647 346 622 c 256,9,10
 346 597 346 597 328.5 579.5 c 128,-1,11
 311 562 311 562 286 562 c 256,0,1
51 416 m 1,12,-1
 51 487 l 1,13,-1
 521 487 l 1,14,-1
 521 416 l 1,15,-1
 51 416 l 1,12,-1
51 217 m 1,16,-1
 51 288 l 1,17,-1
 521 288 l 1,18,-1
 521 217 l 1,19,-1
 51 217 l 1,16,-1
286 22 m 256,20,21
 261 22 261 22 243.5 39.5 c 128,-1,22
 226 57 226 57 226 82 c 256,23,24
 226 107 226 107 243.5 124.5 c 128,-1,25
 261 142 261 142 286 142 c 256,26,27
 311 142 311 142 328.5 124.5 c 128,-1,28
 346 107 346 107 346 82 c 256,29,30
 346 57 346 57 328.5 39.5 c 128,-1,31
 311 22 311 22 286 22 c 256,20,21
EndSplineSet
Validated: 1
EndChar

StartChar: uni224E
Encoding: 8782 8782 235
Width: 572
Flags: W
LayerCount: 2
Fore
SplineSet
51 416 m 1,0,-1
 51 487 l 1,1,-1
 143 487 l 1,2,3
 143 558 143 558 181 594 c 128,-1,4
 219 630 219 630 286 630 c 0,5,6
 354 630 354 630 391.5 594 c 128,-1,7
 429 558 429 558 429 487 c 1,8,-1
 521 487 l 1,9,-1
 521 416 l 1,10,-1
 356 416 l 1,11,-1
 356 487 l 2,12,13
 356 519 356 519 337 539 c 128,-1,14
 318 559 318 559 286 559 c 0,15,16
 255 559 255 559 235.5 539 c 128,-1,17
 216 519 216 519 216 487 c 2,18,-1
 216 416 l 1,19,-1
 51 416 l 1,0,-1
286 74 m 256,20,21
 218 74 218 74 180.5 110.5 c 128,-1,22
 143 147 143 147 143 217 c 1,23,-1
 51 217 l 1,24,-1
 51 288 l 1,25,-1
 216 288 l 1,26,-1
 216 217 l 2,27,28
 216 185 216 185 235.5 165 c 128,-1,29
 255 145 255 145 286 145 c 0,30,31
 318 145 318 145 337 165.5 c 128,-1,32
 356 186 356 186 356 217 c 2,33,-1
 356 288 l 1,34,-1
 521 288 l 1,35,-1
 521 217 l 1,36,-1
 429 217 l 1,37,38
 429 147 429 147 391.5 110.5 c 128,-1,39
 354 74 354 74 286 74 c 256,20,21
EndSplineSet
Validated: 1
EndChar

StartChar: uni2137
Encoding: 8503 8503 236
Width: 376
Flags: W
LayerCount: 2
Fore
SplineSet
8 -23 m 1,0,-1
 8 49 l 1,1,2
 63 82 63 82 97 106 c 128,-1,3
 131 130 131 130 149.5 151.5 c 128,-1,4
 168 173 168 173 174.5 199.5 c 128,-1,5
 181 226 181 226 181 265 c 2,6,-1
 181 421 l 2,7,8
 181 454 181 454 170 470 c 128,-1,9
 159 486 159 486 130 496 c 2,10,-1
 46 524 l 1,11,-1
 46 592 l 1,12,-1
 173 551 l 2,13,14
 222 535 222 535 236 499.5 c 128,-1,15
 250 464 250 464 250 400 c 2,16,-1
 250 294 l 2,17,18
 250 274 250 274 255 252.5 c 128,-1,19
 260 231 260 231 266 211 c 2,20,-1
 325 0 l 1,21,-1
 254 0 l 1,22,-1
 214 180 l 1,23,24
 214 146 214 146 195.5 115.5 c 128,-1,25
 177 85 177 85 151 68 c 2,26,-1
 8 -23 l 1,0,-1
EndSplineSet
Validated: 1
EndChar

StartChar: uni2269
Encoding: 8809 8809 237
Width: 572
Flags: W
LayerCount: 2
Fore
SplineSet
51 290 m 1,0,-1
 51 363 l 1,1,-1
 413 484 l 1,2,-1
 51 606 l 1,3,-1
 51 679 l 1,4,-1
 521 509 l 1,5,-1
 521 459 l 1,6,-1
 51 290 l 1,0,-1
52 28 m 1,7,-1
 52 99 l 1,8,-1
 225 99 l 1,9,-1
 267 188 l 1,10,-1
 52 188 l 1,11,-1
 52 259 l 1,12,-1
 300 259 l 1,13,-1
 330 322 l 1,14,-1
 387 292 l 1,15,-1
 372 259 l 1,16,-1
 521 259 l 1,17,-1
 521 188 l 1,18,-1
 338 188 l 1,19,-1
 297 99 l 1,20,-1
 521 99 l 1,21,-1
 521 28 l 1,22,-1
 263 28 l 1,23,-1
 216 -73 l 1,24,-1
 158 -45 l 1,25,-1
 192 28 l 1,26,-1
 52 28 l 1,7,-1
EndSplineSet
Validated: 1
EndChar

StartChar: uni22E7
Encoding: 8935 8935 238
Width: 572
Flags: W
LayerCount: 2
Fore
SplineSet
51 236 m 1,0,-1
 51 309 l 1,1,-1
 413 430 l 1,2,-1
 51 552 l 1,3,-1
 51 625 l 1,4,-1
 521 455 l 1,5,-1
 521 405 l 1,6,-1
 51 236 l 1,0,-1
253 -4 m 1,7,-1
 195 24 l 1,8,-1
 235 105 l 1,9,10
 215 112 215 112 197.5 115.5 c 128,-1,11
 180 119 180 119 164 119 c 0,12,13
 138 119 138 119 108 103.5 c 128,-1,14
 78 88 78 88 51 60 c 1,15,-1
 51 138 l 1,16,17
 99 191 99 191 170 191 c 0,18,19
 216 191 216 191 267 173 c 1,20,-1
 311 262 l 1,21,-1
 368 232 l 1,22,-1
 327 148 l 1,23,24
 372 132 372 132 406 132 c 0,25,26
 462 132 462 132 521 191 c 1,27,-1
 521 114 l 1,28,29
 472 60 472 60 401 60 c 0,30,31
 350 60 350 60 294 81 c 1,32,-1
 253 -4 l 1,7,-1
EndSplineSet
Validated: 1
EndChar

StartChar: uni22D7
Encoding: 8919 8919 239
Width: 532
Flags: W
LayerCount: 2
Fore
SplineSet
51 106 m 1,0,-1
 51 184 l 1,1,-1
 377 352 l 1,2,-1
 51 520 l 1,3,-1
 51 598 l 1,4,-1
 481 377 l 1,5,-1
 481 327 l 1,6,-1
 51 106 l 1,0,-1
131 292 m 256,7,8
 106 292 106 292 88.5 310 c 128,-1,9
 71 328 71 328 71 352 c 0,10,11
 71 377 71 377 88.5 394.5 c 128,-1,12
 106 412 106 412 131 412 c 0,13,14
 154 412 154 412 172.5 395 c 128,-1,15
 191 378 191 378 191 352 c 0,16,17
 191 327 191 327 173.5 309.5 c 128,-1,18
 156 292 156 292 131 292 c 256,7,8
EndSplineSet
Validated: 1
EndChar

StartChar: uni22DB
Encoding: 8923 8923 240
Width: 572
Flags: W
LayerCount: 2
Fore
SplineSet
51 426 m 1,0,-1
 51 499 l 1,1,-1
 413 620 l 1,2,-1
 51 742 l 1,3,-1
 51 815 l 1,4,-1
 521 645 l 1,5,-1
 521 595 l 1,6,-1
 51 426 l 1,0,-1
51 318 m 1,7,-1
 51 389 l 1,8,-1
 521 389 l 1,9,-1
 521 318 l 1,10,-1
 51 318 l 1,7,-1
521 -108 m 1,11,-1
 51 61 l 1,12,-1
 51 111 l 1,13,-1
 521 281 l 1,14,-1
 521 208 l 1,15,-1
 159 86 l 1,16,-1
 521 -35 l 1,17,-1
 521 -108 l 1,11,-1
EndSplineSet
Validated: 1
EndChar

StartChar: uni2273
Encoding: 8819 8819 241
Width: 572
Flags: W
LayerCount: 2
Fore
SplineSet
51 226 m 1,0,-1
 51 299 l 1,1,-1
 413 420 l 1,2,-1
 51 542 l 1,3,-1
 51 615 l 1,4,-1
 521 445 l 1,5,-1
 521 395 l 1,6,-1
 51 226 l 1,0,-1
51 50 m 1,7,-1
 51 128 l 1,8,9
 75 155 75 155 105.5 168 c 128,-1,10
 136 181 136 181 170 181 c 0,11,12
 226 181 226 181 295 152 c 0,13,14
 330 138 330 138 357 130 c 128,-1,15
 384 122 384 122 406 122 c 0,16,17
 432 122 432 122 463.5 137.5 c 128,-1,18
 495 153 495 153 521 181 c 1,19,-1
 521 104 l 1,20,21
 470 50 470 50 401 50 c 0,22,23
 373 50 373 50 342 58 c 128,-1,24
 311 66 311 66 276 80 c 0,25,26
 206 109 206 109 164 109 c 0,27,28
 139 109 139 109 109.5 94 c 128,-1,29
 80 79 80 79 51 50 c 1,7,-1
EndSplineSet
Validated: 1
EndChar

StartChar: uni2277
Encoding: 8823 8823 242
Width: 572
Flags: W
LayerCount: 2
Fore
SplineSet
51 313 m 1,0,-1
 51 386 l 1,1,-1
 413 507 l 1,2,-1
 51 629 l 1,3,-1
 51 702 l 1,4,-1
 521 532 l 1,5,-1
 521 482 l 1,6,-1
 51 313 l 1,0,-1
521 2 m 1,7,-1
 51 171 l 1,8,-1
 51 221 l 1,9,-1
 521 391 l 1,10,-1
 521 318 l 1,11,-1
 159 196 l 1,12,-1
 521 75 l 1,13,-1
 521 2 l 1,7,-1
EndSplineSet
Validated: 1
EndChar

StartChar: uni2267
Encoding: 8807 8807 243
Width: 572
Flags: W
LayerCount: 2
Fore
SplineSet
51 290 m 1,0,-1
 51 363 l 1,1,-1
 413 484 l 1,2,-1
 51 606 l 1,3,-1
 51 679 l 1,4,-1
 521 509 l 1,5,-1
 521 459 l 1,6,-1
 51 290 l 1,0,-1
51 188 m 1,7,-1
 51 259 l 1,8,-1
 521 259 l 1,9,-1
 521 188 l 1,10,-1
 51 188 l 1,7,-1
51 28 m 1,11,-1
 51 99 l 1,12,-1
 521 99 l 1,13,-1
 521 28 l 1,14,-1
 51 28 l 1,11,-1
EndSplineSet
Validated: 1
EndChar

StartChar: uni2253
Encoding: 8787 8787 244
Width: 572
Flags: W
LayerCount: 2
Fore
SplineSet
461 562 m 256,0,1
 436 562 436 562 418.5 579.5 c 128,-1,2
 401 597 401 597 401 622 c 256,3,4
 401 647 401 647 418.5 664.5 c 128,-1,5
 436 682 436 682 461 682 c 256,6,7
 486 682 486 682 503.5 664.5 c 128,-1,8
 521 647 521 647 521 622 c 256,9,10
 521 597 521 597 503.5 579.5 c 128,-1,11
 486 562 486 562 461 562 c 256,0,1
51 416 m 1,12,-1
 51 487 l 1,13,-1
 521 487 l 1,14,-1
 521 416 l 1,15,-1
 51 416 l 1,12,-1
51 217 m 1,16,-1
 51 288 l 1,17,-1
 521 288 l 1,18,-1
 521 217 l 1,19,-1
 51 217 l 1,16,-1
111 22 m 256,20,21
 86 22 86 22 68.5 39.5 c 128,-1,22
 51 57 51 57 51 82 c 256,23,24
 51 107 51 107 68.5 124.5 c 128,-1,25
 86 142 86 142 111 142 c 256,26,27
 136 142 136 142 153.5 124.5 c 128,-1,28
 171 107 171 107 171 82 c 256,29,30
 171 57 171 57 153.5 39.5 c 128,-1,31
 136 22 136 22 111 22 c 256,20,21
EndSplineSet
Validated: 1
EndChar

StartChar: uni22BA
Encoding: 8890 8890 245
Width: 556
Flags: W
LayerCount: 2
Fore
SplineSet
243 0 m 1,0,-1
 243 583 l 1,1,-1
 51 583 l 1,2,-1
 51 654 l 1,3,-1
 505 654 l 1,4,-1
 505 583 l 1,5,-1
 314 583 l 1,6,-1
 314 0 l 1,7,-1
 243 0 l 1,0,-1
EndSplineSet
Validated: 1
EndChar

StartChar: uni22C9
Encoding: 8905 8905 246
Width: 734
Flags: W
LayerCount: 2
Fore
SplineSet
90 0 m 1,0,-1
 51 14 l 1,1,-1
 51 640 l 1,2,-1
 90 654 l 1,3,-1
 367 378 l 1,4,-1
 637 646 l 1,5,-1
 684 594 l 1,6,-1
 418 328 l 1,7,-1
 683 61 l 1,8,-1
 637 8 l 1,9,-1
 366 276 l 1,10,-1
 90 0 l 1,0,-1
122 133 m 1,11,-1
 316 328 l 1,12,-1
 122 520 l 1,13,-1
 122 133 l 1,11,-1
EndSplineSet
Validated: 1
EndChar

StartChar: uni22CB
Encoding: 8907 8907 247
Width: 736
Flags: W
LayerCount: 2
Fore
SplineSet
98 8 m 1,0,-1
 52 61 l 1,1,-1
 317 328 l 1,2,-1
 51 594 l 1,3,-1
 98 646 l 1,4,-1
 685 61 l 1,5,-1
 638 8 l 1,6,-1
 369 276 l 1,7,-1
 98 8 l 1,0,-1
EndSplineSet
Validated: 1
EndChar

StartChar: uni2268
Encoding: 8808 8808 248
Width: 572
Flags: W
LayerCount: 2
Fore
SplineSet
521 290 m 1,0,-1
 51 459 l 1,1,-1
 51 509 l 1,2,-1
 521 679 l 1,3,-1
 521 606 l 1,4,-1
 159 484 l 1,5,-1
 521 363 l 1,6,-1
 521 290 l 1,0,-1
52 28 m 1,7,-1
 52 99 l 1,8,-1
 225 99 l 1,9,-1
 267 188 l 1,10,-1
 52 188 l 1,11,-1
 52 259 l 1,12,-1
 300 259 l 1,13,-1
 330 322 l 1,14,-1
 387 292 l 1,15,-1
 372 259 l 1,16,-1
 521 259 l 1,17,-1
 521 188 l 1,18,-1
 338 188 l 1,19,-1
 297 99 l 1,20,-1
 521 99 l 1,21,-1
 521 28 l 1,22,-1
 263 28 l 1,23,-1
 216 -73 l 1,24,-1
 158 -45 l 1,25,-1
 192 28 l 1,26,-1
 52 28 l 1,7,-1
EndSplineSet
Validated: 1
EndChar

StartChar: uni22E6
Encoding: 8934 8934 249
Width: 572
Flags: W
LayerCount: 2
Fore
SplineSet
521 226 m 1,0,-1
 51 395 l 1,1,-1
 51 445 l 1,2,-1
 521 615 l 1,3,-1
 521 542 l 1,4,-1
 159 420 l 1,5,-1
 521 299 l 1,6,-1
 521 226 l 1,0,-1
253 -14 m 1,7,-1
 195 14 l 1,8,-1
 235 95 l 1,9,10
 193 109 193 109 164 109 c 0,11,12
 139 109 139 109 109.5 94 c 128,-1,13
 80 79 80 79 51 50 c 1,14,-1
 51 128 l 1,15,16
 75 155 75 155 105.5 168 c 128,-1,17
 136 181 136 181 170 181 c 0,18,19
 213 181 213 181 267 163 c 1,20,-1
 311 252 l 1,21,-1
 368 222 l 1,22,-1
 327 138 l 1,23,24
 369 122 369 122 406 122 c 0,25,26
 432 122 432 122 463.5 137.5 c 128,-1,27
 495 153 495 153 521 181 c 1,28,-1
 521 104 l 1,29,30
 470 50 470 50 401 50 c 0,31,32
 350 50 350 50 294 71 c 1,33,-1
 253 -14 l 1,7,-1
EndSplineSet
Validated: 1
EndChar

StartChar: uni22D6
Encoding: 8918 8918 250
Width: 532
Flags: W
LayerCount: 2
Fore
SplineSet
481 106 m 1,0,-1
 51 327 l 1,1,-1
 51 377 l 1,2,-1
 481 598 l 1,3,-1
 481 520 l 1,4,-1
 155 352 l 1,5,-1
 481 184 l 1,6,-1
 481 106 l 1,0,-1
401 292 m 256,7,8
 376 292 376 292 358.5 310 c 128,-1,9
 341 328 341 328 341 352 c 0,10,11
 341 377 341 377 358.5 394.5 c 128,-1,12
 376 412 376 412 401 412 c 0,13,14
 424 412 424 412 442.5 395 c 128,-1,15
 461 378 461 378 461 352 c 0,16,17
 461 327 461 327 443.5 309.5 c 128,-1,18
 426 292 426 292 401 292 c 256,7,8
EndSplineSet
Validated: 1
EndChar

StartChar: uni22DA
Encoding: 8922 8922 251
Width: 572
Flags: W
LayerCount: 2
Fore
SplineSet
521 426 m 1,0,-1
 51 595 l 1,1,-1
 51 645 l 1,2,-1
 521 815 l 1,3,-1
 521 742 l 1,4,-1
 159 620 l 1,5,-1
 521 499 l 1,6,-1
 521 426 l 1,0,-1
51 318 m 1,7,-1
 51 389 l 1,8,-1
 521 389 l 1,9,-1
 521 318 l 1,10,-1
 51 318 l 1,7,-1
51 -108 m 1,11,-1
 51 -35 l 1,12,-1
 413 86 l 1,13,-1
 51 208 l 1,14,-1
 51 281 l 1,15,-1
 521 111 l 1,16,-1
 521 61 l 1,17,-1
 51 -108 l 1,11,-1
EndSplineSet
Validated: 1
EndChar

StartChar: uni2272
Encoding: 8818 8818 252
Width: 572
Flags: W
LayerCount: 2
Fore
SplineSet
521 226 m 1,0,-1
 51 395 l 1,1,-1
 51 445 l 1,2,-1
 521 615 l 1,3,-1
 521 542 l 1,4,-1
 159 420 l 1,5,-1
 521 299 l 1,6,-1
 521 226 l 1,0,-1
51 50 m 1,7,-1
 51 128 l 1,8,9
 75 155 75 155 105.5 168 c 128,-1,10
 136 181 136 181 170 181 c 0,11,12
 226 181 226 181 295 152 c 0,13,14
 330 138 330 138 357 130 c 128,-1,15
 384 122 384 122 406 122 c 0,16,17
 432 122 432 122 463.5 137.5 c 128,-1,18
 495 153 495 153 521 181 c 1,19,-1
 521 104 l 1,20,21
 470 50 470 50 401 50 c 0,22,23
 373 50 373 50 342 58 c 128,-1,24
 311 66 311 66 276 80 c 0,25,26
 206 109 206 109 164 109 c 0,27,28
 139 109 139 109 109.5 94 c 128,-1,29
 80 79 80 79 51 50 c 1,7,-1
EndSplineSet
Validated: 1
EndChar

StartChar: uni2276
Encoding: 8822 8822 253
Width: 572
Flags: W
LayerCount: 2
Fore
SplineSet
521 313 m 1,0,-1
 51 482 l 1,1,-1
 51 532 l 1,2,-1
 521 702 l 1,3,-1
 521 629 l 1,4,-1
 159 507 l 1,5,-1
 521 386 l 1,6,-1
 521 313 l 1,0,-1
51 2 m 1,7,-1
 51 75 l 1,8,-1
 413 196 l 1,9,-1
 51 318 l 1,10,-1
 51 391 l 1,11,-1
 521 221 l 1,12,-1
 521 171 l 1,13,-1
 51 2 l 1,7,-1
EndSplineSet
Validated: 1
EndChar

StartChar: uni2266
Encoding: 8806 8806 254
Width: 572
Flags: W
LayerCount: 2
Fore
SplineSet
521 290 m 1,0,-1
 51 459 l 1,1,-1
 51 509 l 1,2,-1
 521 679 l 1,3,-1
 521 606 l 1,4,-1
 159 484 l 1,5,-1
 521 363 l 1,6,-1
 521 290 l 1,0,-1
51 188 m 1,7,-1
 51 259 l 1,8,-1
 521 259 l 1,9,-1
 521 188 l 1,10,-1
 51 188 l 1,7,-1
51 28 m 1,11,-1
 51 99 l 1,12,-1
 521 99 l 1,13,-1
 521 28 l 1,14,-1
 51 28 l 1,11,-1
EndSplineSet
Validated: 1
EndChar

StartChar: uni2221
Encoding: 8737 8737 255
Width: 652
Flags: W
LayerCount: 2
Fore
SplineSet
476 -125 m 1,0,-1
 405 -105 l 1,1,2
 408 -88 408 -88 410 -69.5 c 128,-1,3
 412 -51 412 -51 412 -30 c 0,4,5
 412 -22 412 -22 412 -14.5 c 128,-1,6
 412 -7 412 -7 411 0 c 1,7,-1
 51 0 l 1,8,-1
 51 50 l 1,9,-1
 268 296 l 1,10,11
 252 312 252 312 231 327.5 c 128,-1,12
 210 343 210 343 184 357 c 1,13,-1
 220 421 l 1,14,15
 247 405 247 405 271.5 388 c 128,-1,16
 296 371 296 371 317 351 c 1,17,-1
 461 515 l 1,18,-1
 511 464 l 1,19,-1
 366 299 l 1,20,21
 449 199 449 199 475 71 c 1,22,-1
 601 71 l 1,23,-1
 601 0 l 1,24,-1
 484 0 l 1,25,26
 485 -8 485 -8 485 -17 c 128,-1,27
 485 -26 485 -26 485 -34 c 0,28,29
 485 -83 485 -83 476 -125 c 1,0,-1
166 71 m 1,30,-1
 401 71 l 1,31,32
 379 166 379 166 317 244 c 1,33,-1
 166 71 l 1,30,-1
EndSplineSet
Validated: 1
EndChar

StartChar: uni2213
Encoding: 8723 8723 256
Width: 572
Flags: W
LayerCount: 2
Fore
SplineSet
51 636 m 1,0,-1
 51 707 l 1,1,-1
 521 707 l 1,2,-1
 521 636 l 1,3,-1
 51 636 l 1,0,-1
250 109 m 1,4,-1
 250 316 l 1,5,-1
 51 316 l 1,6,-1
 51 387 l 1,7,-1
 250 387 l 1,8,-1
 250 593 l 1,9,-1
 322 593 l 1,10,-1
 322 387 l 1,11,-1
 521 387 l 1,12,-1
 521 316 l 1,13,-1
 322 316 l 1,14,-1
 322 109 l 1,15,-1
 250 109 l 1,4,-1
EndSplineSet
Validated: 1
EndChar

StartChar: uni22A7
Encoding: 8871 8871 257
Width: 469
Flags: W
LayerCount: 2
Fore
SplineSet
51 26 m 1,0,-1
 51 680 l 1,1,-1
 122 680 l 1,2,-1
 122 505 l 1,3,-1
 418 505 l 1,4,-1
 418 434 l 1,5,-1
 122 434 l 1,6,-1
 122 272 l 1,7,-1
 418 272 l 1,8,-1
 418 201 l 1,9,-1
 122 201 l 1,10,-1
 122 26 l 1,11,-1
 51 26 l 1,0,-1
EndSplineSet
Validated: 1
EndChar

StartChar: uni226B
Encoding: 8811 8811 258
Width: 833
Flags: W
LayerCount: 2
Fore
SplineSet
351 97 m 1,0,-1
 351 175 l 1,1,-1
 698 353 l 1,2,-1
 351 531 l 1,3,-1
 351 609 l 1,4,-1
 802 378 l 1,5,-1
 802 328 l 1,6,-1
 351 97 l 1,0,-1
31 97 m 1,7,-1
 31 175 l 1,8,-1
 378 353 l 1,9,-1
 31 531 l 1,10,-1
 31 609 l 1,11,-1
 482 378 l 1,12,-1
 482 328 l 1,13,-1
 31 97 l 1,7,-1
EndSplineSet
Validated: 1
EndChar

StartChar: uni226A
Encoding: 8810 8810 259
Width: 833
Flags: W
LayerCount: 2
Fore
SplineSet
802 97 m 1,0,-1
 351 328 l 1,1,-1
 351 378 l 1,2,-1
 802 609 l 1,3,-1
 802 531 l 1,4,-1
 455 353 l 1,5,-1
 802 175 l 1,6,-1
 802 97 l 1,0,-1
482 97 m 1,7,-1
 31 328 l 1,8,-1
 31 378 l 1,9,-1
 482 609 l 1,10,-1
 482 531 l 1,11,-1
 135 353 l 1,12,-1
 482 175 l 1,13,-1
 482 97 l 1,7,-1
EndSplineSet
Validated: 1
EndChar

StartChar: uni22B8
Encoding: 8888 8888 260
Width: 796
Flags: W
LayerCount: 2
Fore
SplineSet
608 217 m 0,0,1
 562 217 562 217 524 247 c 128,-1,2
 486 277 486 277 475 324 c 1,3,-1
 51 324 l 1,4,-1
 51 384 l 1,5,-1
 475 384 l 1,6,7
 486 431 486 431 524 461 c 128,-1,8
 562 491 562 491 608 491 c 0,9,10
 645 491 645 491 676 472.5 c 128,-1,11
 707 454 707 454 726 423 c 128,-1,12
 745 392 745 392 745 354 c 256,13,14
 745 316 745 316 726.5 285 c 128,-1,15
 708 254 708 254 677 235.5 c 128,-1,16
 646 217 646 217 608 217 c 0,0,1
608 280 m 256,17,18
 639 280 639 280 660.5 301.5 c 128,-1,19
 682 323 682 323 682 354 c 256,20,21
 682 385 682 385 660.5 406.5 c 128,-1,22
 639 428 639 428 608 428 c 256,23,24
 577 428 577 428 555.5 406.5 c 128,-1,25
 534 385 534 385 534 354 c 256,26,27
 534 323 534 323 555.5 301.5 c 128,-1,28
 577 280 577 280 608 280 c 256,17,18
EndSplineSet
Validated: 1
EndChar

StartChar: uni228E
Encoding: 8846 8846 261
Width: 644
Flags: W
LayerCount: 2
Fore
SplineSet
322 0 m 0,0,1
 186 0 186 0 118.5 71.5 c 128,-1,2
 51 143 51 143 51 291 c 2,3,-1
 51 696 l 1,4,-1
 122 696 l 1,5,-1
 122 291 l 2,6,7
 122 177 122 177 169 124.5 c 128,-1,8
 216 72 216 72 322 72 c 256,9,10
 428 72 428 72 475 124.5 c 128,-1,11
 522 177 522 177 522 291 c 2,12,-1
 522 696 l 1,13,-1
 593 696 l 1,14,-1
 593 291 l 2,15,16
 593 143 593 143 526 71.5 c 128,-1,17
 459 0 459 0 322 0 c 0,0,1
298 181 m 1,18,-1
 298 262 l 1,19,-1
 217 262 l 1,20,-1
 217 313 l 1,21,-1
 298 313 l 1,22,-1
 298 393 l 1,23,-1
 349 393 l 1,24,-1
 349 313 l 1,25,-1
 430 313 l 1,26,-1
 430 262 l 1,27,-1
 349 262 l 1,28,-1
 349 181 l 1,29,-1
 298 181 l 1,18,-1
EndSplineSet
Validated: 1
EndChar

StartChar: uni22BC
Encoding: 8892 8892 262
Width: 572
Flags: W
LayerCount: 2
Fore
SplineSet
51 508 m 1,0,-1
 51 579 l 1,1,-1
 521 579 l 1,2,-1
 521 508 l 1,3,-1
 51 508 l 1,0,-1
51 0 m 1,4,-1
 267 440 l 1,5,-1
 306 440 l 1,6,-1
 521 0 l 1,7,-1
 443 0 l 1,8,-1
 286 331 l 1,9,-1
 129 0 l 1,10,-1
 51 0 l 1,4,-1
EndSplineSet
Validated: 1
EndChar

StartChar: uni22AF
Encoding: 8879 8879 263
Width: 836
Flags: W
LayerCount: 2
Fore
SplineSet
443 -10 m 1,0,-1
 382 16 l 1,1,-1
 454 201 l 1,2,-1
 312 201 l 1,3,-1
 312 26 l 1,4,-1
 241 26 l 1,5,-1
 241 680 l 1,6,-1
 312 680 l 1,7,-1
 312 505 l 1,8,-1
 572 505 l 1,9,-1
 654 716 l 1,10,-1
 715 690 l 1,11,-1
 643 505 l 1,12,-1
 785 505 l 1,13,-1
 785 434 l 1,14,-1
 615 434 l 1,15,-1
 552 272 l 1,16,-1
 785 272 l 1,17,-1
 785 201 l 1,18,-1
 525 201 l 1,19,-1
 443 -10 l 1,0,-1
51 27 m 1,20,-1
 51 680 l 1,21,-1
 122 680 l 1,22,-1
 122 27 l 1,23,-1
 51 27 l 1,20,-1
312 272 m 1,24,-1
 481 272 l 1,25,-1
 544 434 l 1,26,-1
 312 434 l 1,27,-1
 312 272 l 1,24,-1
EndSplineSet
Validated: 1
EndChar

StartChar: uni2247
Encoding: 8775 8775 264
Width: 572
Flags: W
LayerCount: 2
Fore
SplineSet
51 158 m 1,0,-1
 51 229 l 1,1,-1
 211 229 l 1,2,-1
 245 318 l 1,3,-1
 51 318 l 1,4,-1
 51 389 l 1,5,-1
 272 389 l 1,6,-1
 303 469 l 1,7,8
 289 474 289 474 275 481 c 0,9,10
 211 510 211 510 164 510 c 0,11,12
 140 510 140 510 110 495 c 128,-1,13
 80 480 80 480 51 451 c 1,14,-1
 51 529 l 1,15,16
 101 582 101 582 170 582 c 0,17,18
 232 582 232 582 296 552 c 0,19,20
 313 544 313 544 329 538 c 1,21,-1
 378 665 l 1,22,-1
 440 642 l 1,23,-1
 394 523 l 1,24,25
 400 523 400 523 406 523 c 0,26,27
 432 523 432 523 462.5 538.5 c 128,-1,28
 493 554 493 554 521 582 c 1,29,-1
 521 505 l 1,30,31
 472 451 472 451 401 451 c 0,32,33
 384 451 384 451 367 453 c 1,34,-1
 343 389 l 1,35,-1
 521 389 l 1,36,-1
 521 318 l 1,37,-1
 316 318 l 1,38,-1
 281 229 l 1,39,-1
 521 229 l 1,40,-1
 521 158 l 1,41,-1
 254 158 l 1,42,-1
 208 38 l 1,43,-1
 146 61 l 1,44,-1
 183 158 l 1,45,-1
 51 158 l 1,0,-1
EndSplineSet
Validated: 1
EndChar

StartChar: uni2288
Encoding: 8840 8840 265
Width: 699
Flags: W
LayerCount: 2
Fore
SplineSet
91 0 m 1,0,-1
 91 71 l 1,1,-1
 226 71 l 1,2,-1
 258 153 l 1,3,4
 51 203 51 203 51 431 c 0,5,6
 51 574 51 574 133.5 648 c 128,-1,7
 216 722 216 722 379 722 c 2,8,-1
 476 722 l 1,9,-1
 521 838 l 1,10,-1
 583 814 l 1,11,-1
 548 722 l 1,12,-1
 648 722 l 1,13,-1
 648 651 l 1,14,-1
 520 651 l 1,15,-1
 351 211 l 1,16,17
 365 210 365 210 379 210 c 2,18,-1
 648 210 l 1,19,-1
 648 140 l 1,20,-1
 379 140 l 2,21,22
 351 140 351 140 325 142 c 1,23,-1
 297 71 l 1,24,-1
 648 71 l 1,25,-1
 648 0 l 1,26,-1
 270 0 l 1,27,-1
 237 -86 l 1,28,-1
 175 -62 l 1,29,-1
 199 0 l 1,30,-1
 91 0 l 1,0,-1
123 431 m 0,31,32
 123 339 123 339 162.5 287.5 c 128,-1,33
 202 236 202 236 283 219 c 1,34,-1
 449 651 l 1,35,-1
 379 651 l 2,36,37
 249 651 249 651 186 599 c 128,-1,38
 123 547 123 547 123 431 c 0,31,32
EndSplineSet
Validated: 1
EndChar

StartChar: uni2289
Encoding: 8841 8841 266
Width: 699
Flags: W
LayerCount: 2
Fore
SplineSet
51 0 m 1,0,-1
 51 71 l 1,1,-1
 167 71 l 1,2,-1
 194 140 l 1,3,-1
 51 140 l 1,4,-1
 51 210 l 1,5,-1
 221 210 l 1,6,-1
 389 647 l 1,7,8
 357 651 357 651 320 651 c 2,9,-1
 51 651 l 1,10,-1
 51 722 l 1,11,-1
 320 722 l 2,12,13
 371 722 371 722 415 715 c 1,14,-1
 462 838 l 1,15,-1
 524 814 l 1,16,-1
 479 698 l 1,17,18
 648 637 648 637 648 431 c 0,19,20
 648 289 648 289 565.5 214.5 c 128,-1,21
 483 140 483 140 320 140 c 2,22,-1
 265 140 l 1,23,-1
 238 71 l 1,24,-1
 608 71 l 1,25,-1
 608 0 l 1,26,-1
 211 0 l 1,27,-1
 178 -86 l 1,28,-1
 116 -62 l 1,29,-1
 140 0 l 1,30,-1
 51 0 l 1,0,-1
576 431 m 0,31,32
 576 588 576 588 454 632 c 1,33,-1
 292 210 l 1,34,-1
 320 210 l 2,35,36
 451 210 451 210 513.5 263 c 128,-1,37
 576 316 576 316 576 431 c 0,31,32
EndSplineSet
Validated: 1
EndChar

StartChar: uni22B2
Encoding: 8882 8882 267
Width: 572
Flags: W
LayerCount: 2
Fore
SplineSet
521 164 m 1,0,-1
 51 335 l 1,1,-1
 51 369 l 1,2,-1
 521 541 l 1,3,-1
 521 164 l 1,0,-1
454 256 m 1,4,-1
 454 449 l 1,5,-1
 169 351 l 1,6,-1
 454 256 l 1,4,-1
EndSplineSet
Validated: 1
EndChar

StartChar: uni22B4
Encoding: 8884 8884 268
Width: 572
Flags: W
LayerCount: 2
Fore
SplineSet
521 221 m 1,0,-1
 51 392 l 1,1,-1
 51 426 l 1,2,-1
 521 598 l 1,3,-1
 521 221 l 1,0,-1
454 313 m 1,4,-1
 454 506 l 1,5,-1
 169 408 l 1,6,-1
 454 313 l 1,4,-1
51 102 m 1,7,-1
 51 173 l 1,8,-1
 521 173 l 1,9,-1
 521 102 l 1,10,-1
 51 102 l 1,7,-1
EndSplineSet
Validated: 1
EndChar

StartChar: uni2249
Encoding: 8777 8777 269
Width: 572
Flags: W
LayerCount: 2
Fore
SplineSet
51 189 m 1,0,-1
 51 267 l 1,1,2
 101 320 101 320 170 320 c 0,3,4
 205 320 205 320 241 310 c 1,5,-1
 287 411 l 1,6,7
 281 413 281 413 275 416 c 0,8,9
 211 445 211 445 164 445 c 0,10,11
 140 445 140 445 110 430 c 128,-1,12
 80 415 80 415 51 386 c 1,13,-1
 51 464 l 1,14,15
 101 517 101 517 170 517 c 0,16,17
 232 517 232 517 296 487 c 0,18,19
 308 482 308 482 319 477 c 1,20,-1
 385 620 l 1,21,-1
 445 591 l 1,22,-1
 384 460 l 1,23,24
 395 458 395 458 406 458 c 0,25,26
 432 458 432 458 462.5 473.5 c 128,-1,27
 493 489 493 489 521 517 c 1,28,-1
 521 440 l 1,29,30
 472 386 472 386 401 386 c 0,31,32
 376 386 376 386 352 391 c 1,33,-1
 303 287 l 1,34,35
 363 261 363 261 406 261 c 0,36,37
 432 261 432 261 462.5 276.5 c 128,-1,38
 493 292 493 292 521 320 c 1,39,-1
 521 243 l 1,40,41
 472 189 472 189 401 189 c 0,42,43
 340 189 340 189 275 219 c 1,44,-1
 272 220 l 1,45,-1
 205 77 l 1,46,-1
 145 105 l 1,47,-1
 209 242 l 1,48,49
 185 248 185 248 164 248 c 0,50,51
 140 248 140 248 110 233 c 128,-1,52
 80 218 80 218 51 189 c 1,0,-1
EndSplineSet
Validated: 1
EndChar

StartChar: uni2244
Encoding: 8772 8772 270
Width: 572
Flags: W
LayerCount: 2
Fore
SplineSet
220 77 m 1,0,-1
 158 100 l 1,1,-1
 214 246 l 1,2,-1
 51 246 l 1,3,-1
 51 317 l 1,4,-1
 241 317 l 1,5,-1
 277 408 l 1,6,-1
 275 409 l 2,7,8
 211 438 211 438 164 438 c 0,9,10
 140 438 140 438 110 423 c 128,-1,11
 80 408 80 408 51 379 c 1,12,-1
 51 457 l 1,13,14
 101 510 101 510 170 510 c 0,15,16
 232 510 232 510 296 480 c 0,17,18
 300 478 300 478 303 477 c 2,19,-1
 358 620 l 1,20,-1
 420 597 l 1,21,-1
 366 456 l 1,22,23
 387 451 387 451 406 451 c 0,24,25
 432 451 432 451 462.5 466.5 c 128,-1,26
 493 482 493 482 521 510 c 1,27,-1
 521 433 l 1,28,29
 472 379 472 379 401 379 c 0,30,31
 370 379 370 379 339 386 c 1,32,-1
 312 317 l 1,33,-1
 521 317 l 1,34,-1
 521 246 l 1,35,-1
 285 246 l 1,36,-1
 220 77 l 1,0,-1
EndSplineSet
Validated: 1
EndChar

StartChar: uni226F
Encoding: 8815 8815 271
Width: 572
Flags: W
LayerCount: 2
Fore
SplineSet
217 66 m 1,0,-1
 156 92 l 1,1,-1
 190 180 l 1,2,-1
 51 119 l 1,3,-1
 51 197 l 1,4,-1
 224 270 l 1,5,-1
 283 423 l 1,6,-1
 51 533 l 1,7,-1
 51 611 l 1,8,-1
 306 483 l 1,9,-1
 386 692 l 1,10,-1
 447 666 l 1,11,-1
 365 453 l 1,12,-1
 521 376 l 1,13,-1
 521 326 l 1,14,-1
 275 217 l 1,15,-1
 217 66 l 1,0,-1
308 305 m 1,16,-1
 427 355 l 1,17,-1
 343 395 l 1,18,-1
 308 305 l 1,16,-1
EndSplineSet
Validated: 1
EndChar

StartChar: uni2271
Encoding: 8817 8817 272
Width: 572
Flags: W
LayerCount: 2
Fore
SplineSet
184 -74 m 1,0,-1
 122 -56 l 1,1,-1
 149 47 l 1,2,-1
 51 47 l 1,3,-1
 51 118 l 1,4,-1
 167 118 l 1,5,-1
 197 230 l 1,6,-1
 51 166 l 1,7,-1
 51 244 l 1,8,-1
 219 314 l 1,9,-1
 262 480 l 1,10,-1
 51 580 l 1,11,-1
 51 658 l 1,12,-1
 279 544 l 1,13,-1
 334 755 l 1,14,-1
 396 737 l 1,15,-1
 338 514 l 1,16,-1
 521 423 l 1,17,-1
 521 373 l 1,18,-1
 272 263 l 1,19,-1
 234 118 l 1,20,-1
 521 118 l 1,21,-1
 521 47 l 1,22,-1
 215 47 l 1,23,-1
 184 -74 l 1,0,-1
293 346 m 1,24,-1
 427 402 l 1,25,-1
 321 452 l 1,26,-1
 293 346 l 1,24,-1
EndSplineSet
Validated: 1
EndChar

StartChar: uni2262
Encoding: 8802 8802 273
Width: 572
Flags: W
LayerCount: 2
Fore
SplineSet
51 143 m 1,0,-1
 51 214 l 1,1,-1
 196 214 l 1,2,-1
 237 317 l 1,3,-1
 51 317 l 1,4,-1
 51 388 l 1,5,-1
 264 388 l 1,6,-1
 304 491 l 1,7,-1
 51 491 l 1,8,-1
 51 562 l 1,9,-1
 332 562 l 1,10,-1
 372 665 l 1,11,-1
 434 641 l 1,12,-1
 403 562 l 1,13,-1
 521 562 l 1,14,-1
 521 491 l 1,15,-1
 376 491 l 1,16,-1
 335 388 l 1,17,-1
 521 388 l 1,18,-1
 521 317 l 1,19,-1
 308 317 l 1,20,-1
 268 214 l 1,21,-1
 521 214 l 1,22,-1
 521 143 l 1,23,-1
 240 143 l 1,24,-1
 200 40 l 1,25,-1
 138 64 l 1,26,-1
 169 143 l 1,27,-1
 51 143 l 1,0,-1
EndSplineSet
Validated: 1
EndChar

StartChar: uni226E
Encoding: 8814 8814 274
Width: 572
Flags: W
LayerCount: 2
Fore
SplineSet
217 66 m 1,0,-1
 156 92 l 1,1,-1
 217 252 l 1,2,-1
 51 326 l 1,3,-1
 51 376 l 1,4,-1
 316 508 l 1,5,-1
 386 692 l 1,6,-1
 447 666 l 1,7,-1
 403 552 l 1,8,-1
 521 611 l 1,9,-1
 521 533 l 1,10,-1
 368 461 l 1,11,-1
 302 289 l 1,12,-1
 521 197 l 1,13,-1
 521 119 l 1,14,-1
 278 226 l 1,15,-1
 217 66 l 1,0,-1
241 314 m 1,16,-1
 282 420 l 1,17,-1
 145 355 l 1,18,-1
 241 314 l 1,16,-1
EndSplineSet
Validated: 1
EndChar

StartChar: uni2270
Encoding: 8816 8816 275
Width: 572
Flags: W
LayerCount: 2
Fore
SplineSet
204 -74 m 1,0,-1
 142 -56 l 1,1,-1
 169 47 l 1,2,-1
 51 47 l 1,3,-1
 51 118 l 1,4,-1
 187 118 l 1,5,-1
 233 293 l 1,6,-1
 51 373 l 1,7,-1
 51 423 l 1,8,-1
 299 547 l 1,9,-1
 354 755 l 1,10,-1
 416 737 l 1,11,-1
 376 586 l 1,12,-1
 521 658 l 1,13,-1
 521 580 l 1,14,-1
 354 501 l 1,15,-1
 310 332 l 1,16,-1
 521 244 l 1,17,-1
 521 166 l 1,18,-1
 293 266 l 1,19,-1
 254 118 l 1,20,-1
 521 118 l 1,21,-1
 521 47 l 1,22,-1
 235 47 l 1,23,-1
 204 -74 l 1,0,-1
250 358 m 1,24,-1
 278 465 l 1,25,-1
 145 402 l 1,26,-1
 250 358 l 1,24,-1
EndSplineSet
Validated: 1
EndChar

StartChar: uni22EA
Encoding: 8938 8938 276
Width: 572
Flags: W
LayerCount: 2
Fore
SplineSet
277 66 m 1,0,-1
 216 92 l 1,1,-1
 277 252 l 1,2,-1
 51 335 l 1,3,-1
 51 369 l 1,4,-1
 366 484 l 1,5,-1
 446 692 l 1,6,-1
 507 666 l 1,7,-1
 449 515 l 1,8,-1
 521 541 l 1,9,-1
 521 164 l 1,10,-1
 339 230 l 1,11,-1
 277 66 l 1,0,-1
454 256 m 1,12,-1
 454 449 l 1,13,-1
 419 437 l 1,14,-1
 361 287 l 1,15,-1
 454 256 l 1,12,-1
298 308 m 1,16,-1
 337 409 l 1,17,-1
 169 351 l 1,18,-1
 298 308 l 1,16,-1
EndSplineSet
Validated: 1
EndChar

StartChar: uni22EC
Encoding: 8940 8940 277
Width: 572
Flags: W
LayerCount: 2
Fore
SplineSet
244 -74 m 1,0,-1
 182 -56 l 1,1,-1
 223 102 l 1,2,-1
 51 102 l 1,3,-1
 51 173 l 1,4,-1
 242 173 l 1,5,-1
 277 309 l 1,6,-1
 51 392 l 1,7,-1
 51 426 l 1,8,-1
 335 530 l 1,9,-1
 394 755 l 1,10,-1
 456 737 l 1,11,-1
 409 557 l 1,12,-1
 521 598 l 1,13,-1
 521 221 l 1,14,-1
 338 287 l 1,15,-1
 308 173 l 1,16,-1
 521 173 l 1,17,-1
 521 102 l 1,18,-1
 290 102 l 1,19,-1
 244 -74 l 1,0,-1
454 313 m 1,20,-1
 454 506 l 1,21,-1
 390 484 l 1,22,-1
 354 346 l 1,23,-1
 454 313 l 1,20,-1
292 367 m 1,24,-1
 316 459 l 1,25,-1
 169 408 l 1,26,-1
 292 367 l 1,24,-1
EndSplineSet
Validated: 1
EndChar

StartChar: uni2226
Encoding: 8742 8742 278
Width: 616
Flags: W
LayerCount: 2
Fore
SplineSet
97 47 m 1,0,-1
 51 92 l 1,1,-1
 179 229 l 1,2,-1
 179 760 l 1,3,-1
 250 760 l 1,4,-1
 250 305 l 1,5,-1
 366 429 l 1,6,-1
 366 760 l 1,7,-1
 437 760 l 1,8,-1
 437 505 l 1,9,-1
 519 593 l 1,10,-1
 567 549 l 1,11,-1
 437 410 l 1,12,-1
 437 -120 l 1,13,-1
 366 -120 l 1,14,-1
 366 334 l 1,15,-1
 250 210 l 1,16,-1
 250 -120 l 1,17,-1
 179 -120 l 1,18,-1
 179 135 l 1,19,-1
 97 47 l 1,0,-1
EndSplineSet
Validated: 1
EndChar

StartChar: uni2280
Encoding: 8832 8832 279
Width: 542
Flags: W
LayerCount: 2
Fore
SplineSet
263 66 m 1,0,-1
 199 85 l 1,1,-1
 244 258 l 1,2,3
 137 309 137 309 51 330 c 1,4,-1
 51 376 l 1,5,6
 107 389 107 389 169.5 414.5 c 128,-1,7
 232 440 232 440 301 477 c 1,8,-1
 357 692 l 1,9,-1
 421 673 l 1,10,-1
 383 528 l 1,11,12
 412 548 412 548 439 569.5 c 128,-1,13
 466 591 466 591 491 613 c 1,14,-1
 491 527 l 1,15,16
 481 517 481 517 458 500 c 128,-1,17
 435 483 435 483 408.5 465.5 c 128,-1,18
 382 448 382 448 358 434 c 1,19,-1
 322 293 l 1,20,21
 358 274 358 274 391.5 252.5 c 128,-1,22
 425 231 425 231 451.5 211.5 c 128,-1,23
 478 192 478 192 491 179 c 1,24,-1
 491 93 l 1,25,26
 413 165 413 165 304 226 c 1,27,-1
 263 66 l 1,0,-1
261 324 m 1,28,-1
 278 390 l 1,29,30
 222 364 222 364 192 355 c 1,31,-1
 192 351 l 1,32,33
 200 350 200 350 261 324 c 1,28,-1
EndSplineSet
Validated: 1
EndChar

StartChar: uni2241
Encoding: 8769 8769 280
Width: 572
Flags: W
LayerCount: 2
Fore
SplineSet
220 169 m 1,0,-1
 165 199 l 1,1,-1
 238 331 l 1,2,3
 197 346 197 346 164 346 c 0,4,5
 138 346 138 346 108 330.5 c 128,-1,6
 78 315 78 315 51 287 c 1,7,-1
 51 365 l 1,8,9
 99 418 99 418 170 418 c 0,10,11
 195 418 195 418 221 412.5 c 128,-1,12
 247 407 247 407 275 397 c 1,13,-1
 352 537 l 1,14,-1
 407 507 l 1,15,-1
 334 375 l 1,16,17
 355 367 355 367 373 363 c 128,-1,18
 391 359 391 359 406 359 c 0,19,20
 432 359 432 359 463.5 374.5 c 128,-1,21
 495 390 495 390 521 418 c 1,22,-1
 521 341 l 1,23,24
 472 287 472 287 401 287 c 0,25,26
 349 287 349 287 297 307 c 1,27,-1
 220 169 l 1,0,-1
EndSplineSet
Validated: 1
EndChar

StartChar: uni2281
Encoding: 8833 8833 281
Width: 542
Flags: W
LayerCount: 2
Fore
SplineSet
205 66 m 1,0,-1
 141 85 l 1,1,-1
 166 183 l 1,2,3
 129 157 129 157 100 134.5 c 128,-1,4
 71 112 71 112 51 93 c 1,5,-1
 51 179 l 1,6,7
 64 192 64 192 101.5 218.5 c 128,-1,8
 139 245 139 245 191 276 c 1,9,-1
 225 409 l 1,10,11
 192 428 192 428 157 450 c 128,-1,12
 122 472 122 472 93.5 492.5 c 128,-1,13
 65 513 65 513 51 527 c 1,14,-1
 51 613 l 1,15,16
 130 538 130 538 243 476 c 1,17,-1
 299 692 l 1,18,-1
 363 673 l 1,19,-1
 303 445 l 1,20,21
 405 396 405 396 491 376 c 1,22,-1
 491 330 l 1,23,24
 383 305 383 305 248 232 c 1,25,-1
 205 66 l 1,0,-1
271 319 m 1,26,27
 290 328 290 328 309.5 336 c 128,-1,28
 329 344 329 344 350 351 c 1,29,-1
 350 355 l 1,30,31
 330 360 330 360 286 379 c 1,32,-1
 271 319 l 1,26,27
EndSplineSet
Validated: 1
EndChar

StartChar: uni2285
Encoding: 8837 8837 282
Width: 699
Flags: W
LayerCount: 2
Fore
SplineSet
51 62 m 1,0,-1
 51 132 l 1,1,-1
 146 132 l 1,2,-1
 315 573 l 1,3,-1
 51 573 l 1,4,-1
 51 644 l 1,5,-1
 320 644 l 2,6,7
 331 644 331 644 342 644 c 1,8,-1
 388 763 l 1,9,-1
 450 740 l 1,10,-1
 411 637 l 1,11,12
 528 618 528 618 588 546 c 128,-1,13
 648 474 648 474 648 353 c 0,14,15
 648 211 648 211 565.5 136.5 c 128,-1,16
 483 62 483 62 320 62 c 2,17,-1
 190 62 l 1,18,-1
 144 -57 l 1,19,-1
 82 -34 l 1,20,-1
 119 62 l 1,21,-1
 51 62 l 1,0,-1
576 353 m 0,22,23
 576 453 576 453 528.5 505.5 c 128,-1,24
 481 558 481 558 385 569 c 1,25,-1
 217 132 l 1,26,-1
 320 132 l 2,27,28
 451 132 451 132 513.5 184.5 c 128,-1,29
 576 237 576 237 576 353 c 0,22,23
EndSplineSet
Validated: 1
EndChar

StartChar: uni22AD
Encoding: 8877 8877 283
Width: 756
Flags: W
LayerCount: 2
Fore
SplineSet
283 -10 m 1,0,-1
 222 16 l 1,1,-1
 294 201 l 1,2,-1
 122 201 l 1,3,-1
 122 26 l 1,4,-1
 51 26 l 1,5,-1
 51 680 l 1,6,-1
 122 680 l 1,7,-1
 122 505 l 1,8,-1
 412 505 l 1,9,-1
 494 716 l 1,10,-1
 555 690 l 1,11,-1
 483 505 l 1,12,-1
 705 505 l 1,13,-1
 705 434 l 1,14,-1
 455 434 l 1,15,-1
 392 272 l 1,16,-1
 705 272 l 1,17,-1
 705 201 l 1,18,-1
 365 201 l 1,19,-1
 283 -10 l 1,0,-1
122 272 m 1,20,-1
 321 272 l 1,21,-1
 384 434 l 1,22,-1
 122 434 l 1,23,-1
 122 272 l 1,20,-1
EndSplineSet
Validated: 1
EndChar

StartChar: plus
Encoding: 43 43 284
Width: 572
Flags: W
LayerCount: 2
Fore
SplineSet
249 111 m 1,0,-1
 249 317 l 1,1,-1
 50 317 l 1,2,-1
 50 388 l 1,3,-1
 249 388 l 1,4,-1
 249 595 l 1,5,-1
 321 595 l 1,6,-1
 321 388 l 1,7,-1
 520 388 l 1,8,-1
 520 317 l 1,9,-1
 321 317 l 1,10,-1
 321 111 l 1,11,-1
 249 111 l 1,0,-1
EndSplineSet
Validated: 1
EndChar

StartChar: multiply
Encoding: 215 215 285
Width: 572
Flags: W
LayerCount: 2
Fore
SplineSet
118 132 m 1,0,-1
 66 183 l 1,1,-1
 235 353 l 1,2,-1
 65 522 l 1,3,-1
 117 574 l 1,4,-1
 286 403 l 1,5,-1
 457 574 l 1,6,-1
 507 523 l 1,7,-1
 337 353 l 1,8,-1
 506 183 l 1,9,-1
 456 132 l 1,10,-1
 285 301 l 1,11,-1
 118 132 l 1,0,-1
EndSplineSet
Validated: 1
EndChar

